<?xml version="1.0" encoding="UTF-8"?>
<svg width="35px" height="35px" viewBox="0 0 35 35" version="1.1" xmlns="http://www.w3.org/2000/svg" xmlns:xlink="http://www.w3.org/1999/xlink">
    <!-- Generator: Sketch 52.6 (67491) - http://www.bohemiancoding.com/sketch -->
    <title>Round Button</title>
    <desc>Created with Sketch.</desc>
    <defs>
        <circle id="path-1" cx="17.5" cy="17.5" r="17.5"></circle>
    </defs>
    <g id="Round-Button" stroke="none" stroke-width="1" fill="none" fill-rule="evenodd">
        <mask id="mask-2" fill="white">
            <use xlink:href="#path-1"></use>
        </mask>
        <use id="Oval" fill="#9D291F" xlink:href="#path-1"></use>
        <g id="color/@red" mask="url(#mask-2)" fill="#9D291F">
            <g transform="translate(-3.000000, -3.000000)" id="Rectangle">
                <rect x="0" y="0" width="41" height="41"></rect>
            </g>
        </g>
        <g id="Icon/Microphone/Off" mask="url(#mask-2)">
            <g transform="translate(-1.000000, -1.000000)">
                <g id="Microphone" opacity="0.7" stroke="none" stroke-width="1" fill-rule="evenodd" transform="translate(12.000000, 7.000000)">
                    <path d="M13.097,13 C13.097,12.447 12.65,12 12.097,12 C11.544,12 11.097,12.447 11.097,13 C11.097,16.092 8.744,17.193 6.543,17.193 C4.285,17.193 2,15.753 2,13 C2,12.447 1.553,12 1,12 C0.448,12 0,12.447 0,13 C0,16.659 2.79,18.78 5.682,19.134 L5.682,22.944 C5.682,23.497 6.129,23.944 6.682,23.944 C7.235,23.944 7.682,23.497 7.682,22.944 L7.682,19.112 C10.962,18.674 13.097,16.331 13.097,13" id="Fill-3" fill="#FFFFFF"></path>
                    <path d="M6.691,15.949 C4.661,15.949 3,14.288 3,12.257 L3,3.692 C3,1.661 4.661,0 6.691,0 C8.722,0 10.383,1.661 10.383,3.692 L10.383,12.257 C10.383,14.288 8.722,15.949 6.691,15.949" id="Fill-1" fill="#FFFFFF"></path>
                </g>
                <path d="M28.8816352,8 L8,29.5396683" id="Line" stroke="#FFFFFF" stroke-width="2" stroke-linecap="round" stroke-linejoin="round"></path>
            </g>
        </g>
    </g>
</svg>