<?xml version="1.0" encoding="UTF-8"?>
<svg width="35px" height="35px" viewBox="0 0 35 35" version="1.1" xmlns="http://www.w3.org/2000/svg" xmlns:xlink="http://www.w3.org/1999/xlink">
    <!-- Generator: Sketch 52.6 (67491) - http://www.bohemiancoding.com/sketch -->
    <title>Round Button</title>
    <desc>Created with Sketch.</desc>
    <defs>
        <circle id="path-1" cx="17.5" cy="17.5" r="17.5"></circle>
    </defs>
    <g id="Round-Button" stroke="none" stroke-width="1" fill="none" fill-rule="evenodd">
        <mask id="mask-2" fill="white">
            <use xlink:href="#path-1"></use>
        </mask>
        <use id="Oval" fill="#9D291F" xlink:href="#path-1"></use>
        <g id="color/@red" mask="url(#mask-2)" fill="#9D291F">
            <g transform="translate(-3.000000, -3.000000)" id="Rectangle">
                <rect x="0" y="0" width="41" height="41"></rect>
            </g>
        </g>
        <g id="Icon/Speaker/Off" mask="url(#mask-2)">
            <g transform="translate(-1.000000, -1.000000)">
                <g id="Speaker" opacity="0.7" stroke="none" stroke-width="1" fill-rule="evenodd" transform="translate(7.000000, 10.000000)">
                    <path d="M5.3186,14.2198 L1.0006,14.2198 C0.4476,14.2198 0.0006,13.7718 0.0006,13.2198 L0.0006,4.1718 C0.0006,3.6198 0.4476,3.1718 1.0006,3.1718 L5.3186,3.1718 C5.8706,3.1718 6.3186,3.6198 6.3186,4.1718 L6.3186,13.2198 C6.3186,13.7718 5.8706,14.2198 5.3186,14.2198" id="Fill-1" fill="#FFFFFF"></path>
                    <path d="M11.5686,0.2969 L7.1936,3.3179 L7.1936,13.8809 L11.5686,16.9009 C12.2576,17.5359 13.4356,17.0869 13.4356,16.1899 L13.4356,1.0089 C13.4356,0.1119 12.2576,-0.3381 11.5686,0.2969" id="Fill-3" fill="#FFFFFF"></path>
                </g>
                <path d="M28.8816352,8 L8,29.5396683" id="Line" stroke="#FFFFFF" stroke-width="2" stroke-linecap="round" stroke-linejoin="round"></path>
            </g>
        </g>
    </g>
</svg>