<?xml version="1.0" encoding="UTF-8"?>
<svg width="35px" height="35px" viewBox="0 0 35 35" version="1.1" xmlns="http://www.w3.org/2000/svg" xmlns:xlink="http://www.w3.org/1999/xlink">
    <!-- Generator: Sketch 52.6 (67491) - http://www.bohemiancoding.com/sketch -->
    <title>speaker</title>
    <desc>Created with Sketch.</desc>
    <defs>
        <path d="M12.3186,24.2198 L8.0006,24.2198 C7.4476,24.2198 7.0006,23.7718 7.0006,23.2198 L7.0006,14.1718 C7.0006,13.6198 7.4476,13.1718 8.0006,13.1718 L12.3186,13.1718 C12.8706,13.1718 13.3186,13.6198 13.3186,14.1718 L13.3186,23.2198 C13.3186,23.7718 12.8706,24.2198 12.3186,24.2198 Z M18.5686,10.2969 C19.2576,9.6619 20.4356,10.1119 20.4356,11.0089 L20.4356,26.1899 C20.4356,27.0869 19.2576,27.5359 18.5686,26.9009 L14.1936,23.8809 L14.1936,13.3179 L18.5686,10.2969 Z M23.0363,15.0235 C24.9983,16.9855 25.0063,20.1675 23.0663,22.1425 C22.9483,22.2755 22.7813,22.3635 22.5903,22.3635 C22.2343,22.3635 21.9453,22.0745 21.9453,21.7185 C21.9453,21.5395 22.0193,21.3775 22.1393,21.2605 C23.6003,19.7885 23.5983,17.3995 22.1293,15.9305 L22.1313,15.9285 C22.0133,15.8125 21.9393,15.6525 21.9393,15.4745 C21.9393,15.1215 22.2263,14.8355 22.5793,14.8355 C22.7583,14.8355 23.0363,15.0235 23.0363,15.0235 Z M25.5344,12.5254 C28.8844,15.8764 28.8844,21.3244 25.5364,24.6734 C25.3914,24.8204 25.1914,24.9114 24.9694,24.9114 C24.5274,24.9114 24.1694,24.5534 24.1694,24.1124 C24.1694,23.8904 24.2594,23.6914 24.4034,23.5464 L24.4004,23.5434 L24.4004,23.5424 C27.1254,20.8184 27.1254,16.3844 24.3994,13.6594 L24.4034,13.6564 C24.2614,13.5114 24.1724,13.3134 24.1724,13.0944 C24.1724,12.6534 24.5294,12.2954 24.9714,12.2954 C25.1904,12.2954 25.3884,12.3834 25.5334,12.5264 L25.5344,12.5254 Z M27.8381,26.9571 C27.8351,26.9611 27.8321,26.9641 27.8291,26.9681 C27.8281,26.9681 27.8281,26.9691 27.8271,26.9691 L27.8271,26.9701 L27.8261,26.9691 C27.6821,27.1101 27.4851,27.1991 27.2681,27.1991 C26.8261,27.1991 26.4681,26.8411 26.4681,26.3991 C26.4681,26.1821 26.5571,25.9841 26.6981,25.8411 L26.6921,25.8351 L26.6931,25.8351 C30.6821,21.8471 30.6821,15.3561 26.6921,11.3661 L26.6951,11.3631 C26.5521,11.2191 26.4631,11.0191 26.4631,10.8001 C26.4631,10.3581 26.8201,10.0001 27.2621,10.0001 C27.4831,10.0001 27.6821,10.0891 27.8261,10.2331 L27.8271,10.2321 C32.4381,14.8441 32.4411,22.3431 27.8381,26.9571 Z" id="path-1"></path>
    </defs>
    <g id="Symbols" stroke="none" stroke-width="1" fill="none" fill-rule="evenodd">
        <g id="leftBar" transform="translate(-15.000000, -105.000000)">
            <g id="Round-Button" transform="translate(15.000000, 105.000000)">
                <g id="color/@white" transform="translate(-3.000000, -3.000000)" fill="#FFFFFF" fill-rule="evenodd">
                    <rect id="Rectangle" x="0" y="0" width="41" height="41"></rect>
                </g>
                <g id="Icon/Speaker/On" transform="translate(-1.000000, -1.000000)">
                    <mask id="mask-2" fill="white">
                        <use xlink:href="#path-1"></use>
                    </mask>
                    <use id="Combined-Shape" fill="#FFFFFF" fill-rule="evenodd" xlink:href="#path-1"></use>
                    <g id="color/@blue" mask="url(#mask-2)" fill="#006BA6" fill-rule="evenodd">
                        <g transform="translate(-1.000000, -1.000000)" id="Rectangle">
                            <rect x="0" y="0" width="39" height="39"></rect>
                        </g>
                    </g>
                </g>
            </g>
        </g>
    </g>
</svg>