<?xml version="1.0" encoding="UTF-8"?>
<svg width="25px" height="19px" viewBox="0 0 25 19" version="1.1" xmlns="http://www.w3.org/2000/svg" xmlns:xlink="http://www.w3.org/1999/xlink">
    <!-- Generator: Sketch 53 (72520) - https://sketchapp.com -->
    <title>cameraSwitch</title>
    <desc>Created with Sketch.</desc>
    <g id="Page-1" stroke="none" stroke-width="1" fill="none" fill-rule="evenodd">
        <g id="Mobile" transform="translate(-95.000000, -605.000000)" fill="#006BA6">
            <path d="M114.75,611.25 C114.336,611.25 114,610.914 114,610.5 C114,610.086 114.336,609.75 114.75,609.75 C115.164,609.75 115.5,610.086 115.5,610.5 C115.5,610.914 115.164,611.25 114.75,611.25 M107.5,621.5 L107.5,623.1615 L103.2665,620.7175 L107.5,618.272 L107.5,619.959 L107.5,620 C109.9815,620 112,617.9815 112,615.5 C112,614.936 111.891,614.398 111.701,613.9 L113.006,613.118 C113.3225,613.8485 113.5,614.653 113.5,615.5 C113.5,618.8135 110.8135,621.5 107.5,621.5 M101.5,615.5 C101.5,612.1865 104.1865,609.5 107.5,609.5 L107.5,609.459 L107.5,607.772 L111.7335,610.2175 L107.5,612.6615 L107.5,611 C105.0185,611 103,613.0185 103,615.5 C103,616.0905 103.1175,616.653 103.325,617.17 L102.026,617.9485 C101.6905,617.2005 101.5,616.373 101.5,615.5 M118.5,608 L113.7795,608 L111.425,605.641 L111.423,605.6465 C111.0575,605.251 110.539,605 109.958,605 L107.5,605 L105.042,605 C104.461,605 103.9425,605.251 103.577,605.6465 L103.575,605.641 L101.2205,608 L96.5,608 C95.675,608 95,608.675 95,609.5 L95,622.5 C95,623.325 95.675,624 96.5,624 L118.5,624 C119.325,624 120,623.325 120,622.5 L120,609.5 C120,608.675 119.325,608 118.5,608" id="cameraSwitch"></path>
        </g>
    </g>
</svg>