<?xml version="1.0" encoding="UTF-8"?>
<svg width="25px" height="20px" viewBox="0 0 25 20" version="1.1" xmlns="http://www.w3.org/2000/svg" xmlns:xlink="http://www.w3.org/1999/xlink">
    <!-- Generator: Sketch 53 (72520) - https://sketchapp.com -->
    <title>camera</title>
    <desc>Created with Sketch.</desc>
    <g id="Page-1" stroke="none" stroke-width="1" fill="none" fill-rule="evenodd">
        <g id="Mobile" transform="translate(-23.000000, -605.000000)" fill="#006BA6">
            <path d="M26.5,607.9999 C26.225,607.9999 26,607.7749 26,607.4999 C26,607.2249 26.225,606.9999 26.5,606.9999 L28,606.9999 C28.275,606.9999 28.5,607.2249 28.5,607.4999 C28.5,607.7749 28.275,607.9999 28,607.9999 L26.5,607.9999 Z M46.5,608.4999 C47.325,608.4999 48,609.1749 48,609.9999 L48,622.9999 C48,623.8249 47.325,624.4999 46.5,624.4999 L24.5,624.4999 C23.675,624.4999 23,623.8249 23,622.9999 L23,609.9999 C23,609.1749 23.675,608.4999 24.5,608.4999 L29.2205,608.4999 L31.575,606.1409 L31.577,606.1464 C31.9425,605.7509 32.461,605.4999 33.042,605.4999 L35.5,605.4999 L37.958,605.4999 C38.539,605.4999 39.0575,605.7509 39.423,606.1464 L39.425,606.1409 L41.7795,608.4999 L46.5,608.4999 Z M42.75,611.7499 C43.164,611.7499 43.5,611.4139 43.5,610.9999 C43.5,610.5859 43.164,610.2499 42.75,610.2499 C42.336,610.2499 42,610.5859 42,610.9999 C42,611.4139 42.336,611.7499 42.75,611.7499 Z M35.5,621.9999 C38.8135,621.9999 41.5,619.3134 41.5,615.9999 C41.5,612.6864 38.8135,609.9999 35.5,609.9999 C32.1865,609.9999 29.5,612.6864 29.5,615.9999 C29.5,619.3134 32.1865,621.9999 35.5,621.9999 Z M35.5,611.4999 C37.9855,611.4999 40,613.5144 40,615.9999 C40,618.4854 37.9855,620.4999 35.5,620.4999 C33.0145,620.4999 31,618.4854 31,615.9999 C31,613.5144 33.0145,611.4999 35.5,611.4999 Z" id="camera"></path>
        </g>
    </g>
</svg>