<?xml version="1.0" encoding="UTF-8"?>
<svg width="14px" height="26px" viewBox="0 0 14 26" version="1.1" xmlns="http://www.w3.org/2000/svg" xmlns:xlink="http://www.w3.org/1999/xlink">
    <!-- Generator: Sketch 53 (72520) - https://sketchapp.com -->
    <title>mic</title>
    <desc>Created with Sketch.</desc>
    <g id="Page-1" stroke="none" stroke-width="1" fill="none" fill-rule="evenodd">
        <g id="Mobile" transform="translate(-318.000000, -603.000000)" fill="#006BA6">
            <path d="M325.0001,621 C322.5186,621 320.5001,618.9815 320.5001,616.5 L320.5001,607.5 C320.5001,605.0185 322.5186,603 325.0001,603 C327.4816,603 329.5001,605.0185 329.5001,607.5 L329.5001,616.5 C329.5001,618.9815 327.4816,621 325.0001,621 Z M331.5,612 C331.7765,612 332,612.2235 332,612.5 L332,616.5 C332,620.191 329.1265,623.2165 325.5,623.4745 L325.5,627.5 L328.5,627.5 C328.7765,627.5 329,627.7235 329,628 C329,628.2765 328.7765,628.5 328.5,628.5 L321.5,628.5 C321.224,628.5 321,628.2765 321,628 C321,627.7235 321.224,627.5 321.5,627.5 L324.5,627.5 L324.5,623.4745 C320.8735,623.2165 318,620.191 318,616.5 L318,612.5 C318,612.2235 318.224,612 318.5,612 C318.776,612 319,612.2235 319,612.5 L319,616.5 C319,619.8085 321.6915,622.5 325,622.5 C328.3085,622.5 331,619.8085 331,616.5 L331,612.5 C331,612.2235 331.2235,612 331.5,612 Z" id="mic"></path>
        </g>
    </g>
</svg>