<?xml version="1.0" encoding="UTF-8"?>
<svg width="25px" height="21px" viewBox="0 0 25 21" version="1.1" xmlns="http://www.w3.org/2000/svg" xmlns:xlink="http://www.w3.org/1999/xlink">
    <!-- Generator: Sketch 53 (72520) - https://sketchapp.com -->
    <title>speaker</title>
    <desc>Created with Sketch.</desc>
    <g id="Page-1" stroke="none" stroke-width="1" fill="none" fill-rule="evenodd">
        <g id="Mobile" transform="translate(-240.000000, -605.000000)" fill="#006BA6">
            <path d="M252.155,605.788029 C252.391,605.792029 252.748,606.026029 252.748,606.026029 L252.748,624.046029 C252.748,624.046029 252.391,624.284029 252.155,624.286029 C251.93,624.299029 251.704,624.223029 251.547,624.085029 L245.899,618.514029 L241.119,618.514029 C240.501,618.514029 240,618.013029 240,617.393029 L240,612.681029 C240,612.062029 240.501,611.561029 241.119,611.561029 L245.897,611.561029 L251.547,605.989029 C251.704,605.853029 251.93,605.777029 252.155,605.788029 Z M259.383,605.111229 C262.519,607.642229 264.318,611.260229 264.318,615.037229 C264.318,618.814229 262.519,622.431229 259.383,624.964229 C259.291,625.038229 259.179,625.074229 259.07,625.074229 C258.924,625.074229 258.779,625.010229 258.68,624.887229 C258.507,624.674229 258.54,624.358229 258.755,624.184229 C261.654,621.844229 263.318,618.510229 263.318,615.037229 C263.318,611.564229 261.654,608.230229 258.755,605.889229 C258.54,605.715229 258.507,605.401229 258.68,605.186229 C258.853,604.971229 259.168,604.937229 259.383,605.111229 Z M261.2575,615.037029 C261.2575,617.605029 260.0365,620.064029 257.9055,621.784029 C257.8135,621.859029 257.7025,621.895029 257.5925,621.895029 C257.4465,621.895029 257.3015,621.832029 257.2035,621.709029 C257.0295,621.494029 257.0635,621.180029 257.2785,621.006029 C259.1715,619.477029 260.2575,617.302029 260.2575,615.037029 C260.2575,612.772029 259.1715,610.598029 257.2785,609.068029 C257.0635,608.894029 257.0295,608.580029 257.2035,608.365029 C257.3765,608.150029 257.6915,608.117029 257.9055,608.290029 C260.0365,610.010029 261.2575,612.469029 261.2575,615.037029 Z M256.0065,610.409129 C257.4655,611.587129 258.3025,613.273129 258.3025,615.037129 C258.3025,616.800129 257.4655,618.487129 256.0065,619.665129 C255.9145,619.740129 255.8025,619.775129 255.6935,619.775129 C255.5475,619.775129 255.4025,619.712129 255.3035,619.590129 C255.1305,619.375129 255.1635,619.060129 255.3785,618.887129 C256.6015,617.899129 257.3025,616.496129 257.3025,615.037129 C257.3025,613.578129 256.6015,612.175129 255.3785,611.187129 C255.1635,611.013129 255.1305,610.699129 255.3035,610.484129 C255.4765,610.269129 255.7915,610.236129 256.0065,610.409129 Z" id="speaker"></path>
        </g>
    </g>
</svg>