<?xml version="1.0" encoding="UTF-8"?>
<svg width="100px" height="100px" viewBox="0 0 100 100" version="1.1" xmlns="http://www.w3.org/2000/svg" xmlns:xlink="http://www.w3.org/1999/xlink">
    <!-- Generator: Sketch 53 (72520) - https://sketchapp.com -->
    <title>Group 152</title>
    <desc>Created with Sketch.</desc>
    <defs>
        <polygon id="path-1" points="0 0.305287958 99.6914894 0.305287958 99.6914894 99.4764398 0 99.4764398"></polygon>
    </defs>
    <g id="Page-1" stroke="none" stroke-width="1" fill="none" fill-rule="evenodd">
        <g id="Waiting-Room" transform="translate(-130.000000, -120.000000)">
            <g id="Group-152" transform="translate(130.000000, 120.000000)">
                <polygon id="Fill-1" fill="#006BA6" points="16.2031915 18.8209948 17.6276596 21.8272775 19.3361702 20.0340838"></polygon>
                <g id="Group-151" transform="translate(0.000000, 0.218325)">
                    <path d="M8.63611702,30.942356 C8.45101064,30.8653927 8.28026596,30.8381675 8.12388298,30.8606806 C7.9675,30.8831937 7.82601064,30.9397382 7.69781915,31.0308377 C7.57015957,31.1224607 7.45473404,31.2439267 7.35207447,31.3957592 C7.24941489,31.5475916 7.15898936,31.7151309 7.08079787,31.8973298 L6.63771277,32.9313613 L8.59994681,33.7460209 L9.0175,32.7716754 C9.10260638,32.572199 9.16484043,32.3800524 9.20367021,32.194712 C9.24196809,32.0093717 9.24994681,31.8365969 9.22654255,31.6758639 C9.2031383,31.5151309 9.14515957,31.372199 9.05260638,31.2465445 C8.96005319,31.1203665 8.8212234,31.0193194 8.63611702,30.942356" id="Fill-2" fill="#006BA6"></path>
                    <path d="M71.2935106,14.8354974 C71.6339362,15.0464921 71.978617,15.1951832 72.328617,15.2805236 C72.678617,15.3663874 73.0153191,15.3852356 73.3392553,15.3381152 C73.6631915,15.2904712 73.9669149,15.1726702 74.2520213,14.9831414 C74.5360638,14.7941361 74.7839362,14.5349738 74.9951064,14.2056545 C75.216383,13.8606283 75.3520213,13.5208377 75.403617,13.1868063 C75.453617,12.8527749 75.4302128,12.5328796 75.3328723,12.2271204 C75.235,11.9213613 75.0717021,11.6334031 74.8397872,11.3616754 C74.6089362,11.0904712 74.3232979,10.8491099 73.9839362,10.6381152 L72.9951064,10.0245026 L70.3057447,14.2218848 L71.2935106,14.8354974 Z" id="Fill-4" fill="#006BA6"></path>
                    <path d="M5.56281915,42.6629319 C5.43515957,42.572356 5.2718617,42.5142408 5.07239362,42.4891099 C4.87345745,42.4639791 4.70164894,42.4817801 4.5575,42.541466 C4.41388298,42.6016754 4.29101064,42.6922513 4.18994681,42.8131937 C4.08888298,42.9346597 4.00909574,43.0849215 3.95111702,43.2650262 C3.8931383,43.4446073 3.85005319,43.6419895 3.82239362,43.8566492 L3.69526596,44.8409424 L5.8362234,45.1090052 L5.9612234,44.1430366 C5.98994681,43.9220942 5.99579787,43.7158115 5.97984043,43.5236649 C5.96335106,43.3315183 5.9218617,43.1624084 5.85537234,43.0168586 C5.78781915,42.8718325 5.69047872,42.7535079 5.56281915,42.6629319" id="Fill-6" fill="#006BA6"></path>
                    <polygon id="Fill-8" fill="#006BA6" points="87.4337766 23.350733 84.1582447 24.1297906 85.6050532 26.1329319"></polygon>
                    <path d="M94.029734,46.8084293 L94.0706915,47.8649738 C94.0792021,48.0812042 94.1057979,48.2812042 94.1504787,48.4654974 C94.1951596,48.649267 94.2627128,48.8094764 94.3531383,48.9456021 C94.4430319,49.0812042 94.5573936,49.1869634 94.6951596,49.262356 C94.8334574,49.3372251 95.0026064,49.3712565 95.2036702,49.3639267 C95.4042021,49.3565969 95.5706915,49.31 95.7031383,49.2246597 C95.8345213,49.1393194 95.9387766,49.0288482 96.0153723,48.8927225 C96.0919681,48.7565969 96.1440957,48.5984817 96.1717553,48.418377 C96.1994149,48.2377487 96.2095213,48.0487435 96.2015426,47.8508377 L96.1584574,46.7293717 L94.029734,46.8084293 Z" id="Fill-10" fill="#006BA6"></path>
                    <path d="M95.4665426,53.3659686 C95.2500532,53.1246073 94.9878191,52.9267016 94.6809043,52.7712042 C94.3750532,52.6157068 94.0404787,52.5162304 93.6787766,52.4727749 C93.3106915,52.4282723 92.9575,52.4445026 92.6186702,52.5219895 C92.2798404,52.5994764 91.9766489,52.7308901 91.7101596,52.9167539 C91.4431383,53.1026178 91.2223936,53.3371728 91.0479255,53.6219895 C90.8734574,53.9057592 90.7628191,54.2350785 90.7160106,54.6099476 C90.6686702,54.9842932 90.695266,55.3335079 90.7942021,55.6565445 C90.8931383,55.9801047 91.0489894,56.2638743 91.2628191,56.5073298 C91.476117,56.7513089 91.7372872,56.9507853 92.0473936,57.1068063 C92.3569681,57.2623037 92.6957979,57.3628272 93.0633511,57.4068063 C93.4255851,57.4507853 93.7739894,57.4335079 94.1101596,57.3554974 C94.4457979,57.2774869 94.7484574,57.1460733 95.0186702,56.960733 C95.288883,56.7753927 95.5128191,56.539267 95.6910106,56.252356 C95.8692021,55.965445 95.9819681,55.6319372 96.0293085,55.2513089 C96.076117,54.8769634 96.0479255,54.5293194 95.9457979,54.208377 C95.8426064,53.8879581 95.6830319,53.6068063 95.4665426,53.3659686" id="Fill-12" fill="#006BA6"></path>
                    <path d="M90.1515426,70.1015183 C90.3329255,70.1863351 90.5015426,70.2229843 90.6573936,70.2104188 C90.8132447,70.1978534 90.9584574,70.1491623 91.0935638,70.0653927 C91.2276064,69.981623 91.3510106,69.8627749 91.4632447,69.7098953 C91.5754787,69.5570157 91.6792021,69.3826702 91.7733511,69.1873822 L92.2068617,68.2915707 L90.2584574,67.3779581 L89.8329255,68.2580628 C89.7355851,68.4585864 89.6643085,68.6528272 89.6185638,68.8402618 C89.5733511,69.0276963 89.5589894,69.2009948 89.5760106,69.3596335 C89.5930319,69.5182723 89.6478191,69.6601571 89.7409043,69.7858115 C89.8323936,69.9109424 89.9696277,70.0167016 90.1515426,70.1015183" id="Fill-14" fill="#006BA6"></path>
                    <g id="Group-18">
                        <mask id="mask-2" fill="white">
                            <use xlink:href="#path-1"></use>
                        </mask>
                        <g id="Clip-17"></g>
                        <path d="M96.6441489,49.5461257 C96.5079787,49.7644503 96.3244681,49.9403665 96.0941489,50.0728272 C95.8632979,50.2047644 95.5787234,50.2770157 95.2398936,50.2901047 C94.7505319,50.3084293 94.3489362,50.1749215 94.0361702,49.8895812 C93.7234043,49.6042408 93.5170213,49.2283246 93.4175532,48.7618325 L90.4276596,50.7115707 L90.3845745,49.5990052 L93.2867021,47.8194241 L93.2489362,46.8372251 L90.2824468,46.9482199 L90.2473404,46.0304188 L96.9143617,45.7806806 L96.9957447,47.8848691 C97.0079787,48.2000524 96.9867021,48.5005759 96.931383,48.7874869 C96.8755319,49.0749215 96.7803191,49.327801 96.6441489,49.5461257 L96.6441489,49.5461257 Z M96.8425532,55.3497906 C96.7808511,55.8466492 96.6388298,56.296911 96.4180851,56.7000524 C96.1968085,57.1031937 95.9159574,57.4398429 95.5755319,57.7105236 C95.2351064,57.9801571 94.8398936,58.1770157 94.3909574,58.3010995 C93.9420213,58.4241361 93.4585106,58.4545026 92.9409574,58.392199 C92.4297872,58.3304188 91.9712766,58.1864398 91.5659574,57.9597382 C91.1606383,57.7330366 90.8228723,57.4476963 90.5521277,57.1037173 C90.2819149,56.7586911 90.087234,56.3649738 89.968617,55.9209948 C89.85,55.4764921 89.8218085,55.0063351 89.8835106,54.5089529 C89.9457447,54.0115707 90.0888298,53.5628796 90.312234,53.1634031 C90.5361702,52.7634031 90.8218085,52.4288482 91.168617,52.1592147 C91.5159574,51.8895812 91.9132979,51.6948168 92.3617021,51.5743979 C92.8101064,51.4539791 93.2898936,51.4246597 93.8015957,51.4864398 C94.3191489,51.5487435 94.7808511,51.6916754 95.1861702,51.914712 C95.5920213,52.1382723 95.9265957,52.4220419 96.1909574,52.7649738 C96.4553191,53.1089529 96.6452128,53.5010995 96.7611702,53.9419372 C96.8776596,54.383822 96.9047872,54.8524084 96.8425532,55.3497906 L96.8425532,55.3497906 Z M95.4734043,61.596911 L91.506383,60.4089529 C91.2898936,60.3440314 91.0670213,60.3063351 90.837234,60.2958639 C90.6074468,60.2848691 90.3893617,60.3152356 90.1840426,60.3864398 C89.9781915,60.4571204 89.793617,60.5759686 89.6303191,60.7440314 C89.4670213,60.9115707 89.3393617,61.1424607 89.2478723,61.4393194 C89.1585106,61.7293717 89.1335106,61.9901047 89.1734043,62.2215183 C89.2132979,62.4534555 89.2989362,62.6550262 89.4297872,62.8267539 C89.5601064,62.9984817 89.7244681,63.1429843 89.9212766,63.2602618 C90.1180851,63.3770157 90.325,63.4686387 90.5414894,63.5330366 L94.5085106,64.7204712 L94.237234,65.5995288 L90.2159574,64.3953403 C89.8914894,64.2979581 89.5925532,64.1550262 89.3191489,63.9665445 C89.0457447,63.7780628 88.8234043,63.5482199 88.6505319,63.2770157 C88.4781915,63.0058115 88.3691489,62.6948168 88.3228723,62.3450785 C88.2776596,61.9953403 88.3175532,61.6131414 88.4457447,61.1990052 C88.5739362,60.7848691 88.756383,60.444555 88.9925532,60.1796335 C89.2287234,59.9141885 89.4952128,59.7162827 89.7920213,59.5853927 C90.0888298,59.4545026 90.4037234,59.3859162 90.737766,59.3791099 C91.0707447,59.3723037 91.4,59.4173298 91.7244681,59.514712 L95.7457447,60.7189005 L95.4734043,61.596911 Z M92.4473404,69.605288 C92.293617,69.9241361 92.1202128,70.1990052 91.9281915,70.4309424 C91.7361702,70.6628796 91.5271277,70.8387958 91.3021277,70.9586911 C91.0765957,71.0796335 90.8351064,71.1408901 90.5765957,71.1429843 C90.3180851,71.1450785 90.0414894,71.0770157 89.7468085,70.9387958 C89.4457447,70.7979581 89.2143617,70.6225654 89.0515957,70.4120942 C88.8888298,70.2026702 88.7856383,69.9696859 88.7430851,69.7131414 C88.7,69.4565969 88.7101064,69.1806806 88.7734043,68.8848691 C88.8367021,68.5890576 88.9425532,68.2874869 89.0909574,67.9806806 L89.5446809,67.0429843 L86.8984043,65.8026702 L87.2994681,64.9733508 L93.3228723,67.7963874 L92.4473404,69.605288 Z M49.8452128,87.3665445 C28.9867021,87.3665445 12.0170213,70.4859162 12.0170213,49.7367016 C12.0170213,28.9874869 28.9867021,12.1068586 49.8452128,12.1068586 C70.7042553,12.1068586 87.6739362,28.9874869 87.6739362,49.7367016 C87.6739362,70.4859162 70.7042553,87.3665445 49.8452128,87.3665445 L49.8452128,87.3665445 Z M8.88457447,71.170733 L8.14095745,71.5110471 L5.94361702,66.8597382 L6.68670213,66.5194241 L7.58882979,68.4283246 L12.8952128,65.9995288 L13.2888298,66.8325131 L7.98244681,69.2613089 L8.88457447,71.170733 Z M5.06861702,64.3911518 L7.74361702,63.6141885 L6.78829787,60.4293717 L4.11276596,61.2063351 L3.84574468,60.3173298 L10.2446809,58.457644 L10.5117021,59.3471728 L7.58351064,60.1979581 L8.53882979,63.3827749 L11.4670213,62.531466 L11.731383,63.4115707 L5.33244681,65.2717801 L5.06861702,64.3911518 Z M2.7962766,53.7770157 L3.60851064,53.6675916 L4.06223404,56.9298953 L6.04148936,56.6628796 L5.6143617,53.5927225 L6.40797872,53.4859162 L6.83510638,56.5560733 L9.03882979,56.2592147 L8.56595745,52.8586911 L9.38723404,52.7482199 L9.98670213,57.0581675 L3.37659574,57.949267 L2.7962766,53.7770157 Z M3.04893617,43.6665445 C3.09414894,43.3168063 3.1712766,43.0026702 3.28031915,42.723089 C3.3893617,42.4435079 3.53138298,42.2120942 3.70744681,42.0288482 C3.88297872,41.8450785 4.09361702,41.7126178 4.33829787,41.6309424 C4.58297872,41.549267 4.86755319,41.5288482 5.19148936,41.5696859 C5.52180851,41.6110471 5.79787234,41.7063351 6.01914894,41.8555497 C6.24042553,42.0047644 6.41223404,42.1948168 6.53457447,42.4251832 C6.65691489,42.6555497 6.73510638,42.9209948 6.76861702,43.2209948 C6.80265957,43.5215183 6.79787234,43.8403665 6.75425532,44.1775393 L6.62074468,45.2079058 L9.52819149,45.5717801 L9.41010638,46.4827749 L2.79148936,45.6539791 L3.04893617,43.6665445 Z M4.84042553,35.4644503 L5.63244681,35.6728272 L4.76914894,38.8539791 L6.69946809,39.3613089 L7.51170213,36.3681152 L8.2856383,36.5717801 L7.47340426,39.5649738 L9.62234043,40.1298953 L10.5223404,36.8141885 L11.3234043,37.0246597 L10.1829787,41.227801 L3.73617021,39.5330366 L4.84042553,35.4644503 Z M6.37712766,31.5346073 C6.50159574,31.2440314 6.65053191,30.9801571 6.82340426,30.7435079 C6.9962766,30.5068586 7.19148936,30.3173298 7.40904255,30.1764921 C7.62659574,30.0351309 7.86808511,29.9529319 8.13404255,29.9288482 C8.4,29.905288 8.68882979,29.9581675 9.00159574,30.0880105 C9.45265957,30.275445 9.75904255,30.5634031 9.91968085,30.9524084 C10.0803191,31.3414136 10.1053191,31.7681152 9.99521277,32.2319895 L13.5420213,31.7115707 L13.1026596,32.7372251 L9.70851064,33.1398429 L9.32021277,34.0456021 L12.0553191,35.1812042 L11.6925532,36.0272775 L5.54521277,33.4749215 L6.37712766,31.5346073 Z M8.97393617,26.3246597 L14.3702128,27.3817277 L14.3803191,27.3660209 L11.118617,23.0173298 L11.8994681,21.8131414 L17.5234043,25.3461257 L17.0218085,26.1199476 L12.3191489,23.1660209 L12.3090426,23.1817277 L15.8207447,27.9733508 L15.5010638,28.4660209 L9.61223404,27.3414136 L9.60212766,27.3571204 L14.3047872,30.3110471 L13.8180851,31.0618325 L8.19361702,27.5288482 L8.97393617,26.3246597 Z M15.7218085,17.5482199 L22.5484043,19.9832984 L21.8265957,20.7414136 L20.1664894,20.1246597 L18.0005319,22.3979581 L18.7388298,23.9822513 L18.0297872,24.7267539 L15.1420213,18.157644 L15.7218085,17.5482199 Z M20.206383,13.4529319 L26.2,15.5832984 L26.2148936,15.5723037 L23.0069149,11.3780628 L23.7521277,10.8257068 L27.7648936,16.0723037 L26.8239362,16.7696859 L20.7324468,14.5728272 L20.7175532,14.583822 L23.993617,18.8670681 L23.2484043,19.4194241 L19.2356383,14.1728272 L20.206383,13.4529319 Z M29.618617,7.59638743 L30.0053191,8.30790576 L27.0553191,9.86026178 L27.9973404,11.5948168 L30.7728723,10.1340838 L31.1505319,10.8293717 L28.375,12.2901047 L29.4234043,14.2204712 L32.4984043,12.6021466 L32.8893617,13.3220419 L28.9920213,15.3733508 L25.8462766,9.58225131 L29.618617,7.59638743 Z M32.6930851,6.31837696 L37.7494681,10.1351309 L37.7675532,10.1288482 L36.0005319,5.17492147 L36.8808511,4.87073298 L39.0904255,11.0670681 L37.9792553,11.4513613 L32.8494681,7.54141361 L32.8319149,7.5482199 L34.6361702,12.6068586 L33.7558511,12.9110471 L31.5457447,6.71418848 L32.6930851,6.31837696 Z M43.6691489,3.50528796 L43.8202128,4.29848168 L41.7175532,4.68591623 L42.7952128,10.3476963 L41.8781915,10.5168063 L40.8005319,4.85502618 L38.6978723,5.24298429 L38.5468085,4.44979058 L43.6691489,3.50528796 Z M49.6696809,3.13041885 L49.7111702,3.93617801 L46.3702128,4.10319372 L46.4718085,6.06706806 L49.6148936,5.91 L49.6553191,6.69743455 L46.5117021,6.85450262 L46.6244681,9.04089005 L50.1069149,8.8665445 L50.1489362,9.68172775 L45.7351064,9.9021466 L45.3968085,3.34350785 L49.6696809,3.13041885 Z M57.8744681,3.72675393 L59.2829787,4.07020942 L59.9904255,9.44089005 L60.0085106,9.44507853 L63.1521277,5.0126178 L64.5611702,5.3560733 L62.9579787,11.7309424 L62.0521277,11.5105236 L63.3925532,6.18015707 L63.3744681,6.17544503 L59.8840426,10.9822513 L59.3079787,10.8419372 L58.5079787,4.99010471 L58.4904255,4.98539267 L57.1494681,10.3157592 L56.2712766,10.101623 L57.8744681,3.72675393 Z M70.7468085,7.9178534 L70.4191489,8.65764398 L67.3521277,7.34193717 L66.5537234,9.14455497 L69.4393617,10.3822513 L69.1196809,11.105288 L66.2340426,9.86759162 L65.3457447,11.8743979 L68.5420213,13.2456021 L68.2106383,13.9937696 L64.1590426,12.2560733 L66.8244681,6.23565445 L70.7468085,7.9178534 Z M74.5755319,10.0628796 C74.9367021,10.2869634 75.2643617,10.5639267 75.5590426,10.8927225 C75.8531915,11.2220419 76.0744681,11.5895812 76.2228723,11.9958639 C76.3707447,12.4021466 76.4228723,12.8367016 76.3792553,13.2995288 C76.3351064,13.7618325 76.1558511,14.2393194 75.8404255,14.7309424 C75.5356383,15.2068586 75.1808511,15.562356 74.7776596,15.7979581 C74.3739362,16.0335602 73.9531915,16.1743979 73.5154255,16.2204712 C73.0771277,16.2665445 72.6414894,16.2335602 72.2079787,16.1220419 C71.7744681,16.01 71.3771277,15.8419372 71.0159574,15.6173298 L69.0792553,14.414712 L72.6388298,8.86026178 L74.5755319,10.0628796 Z M79.6601064,13.6246597 L75.4925532,18.7529319 L74.7638298,18.1796335 L78.931383,13.0513613 L79.6601064,13.6246597 Z M81.2010638,15.9283246 C81.6409574,15.9351309 82.0744681,16.0298953 82.5015957,16.2115707 C82.9287234,16.3937696 83.3228723,16.6613089 83.6840426,17.0136649 C83.8452128,17.1702094 83.9920213,17.344555 84.1260638,17.5367016 C84.2601064,17.7283246 84.3718085,17.9293717 84.4617021,18.1387958 C84.5510638,18.3482199 84.6132979,18.5592147 84.6473404,18.7712565 C84.681383,18.9827749 84.6835106,19.1916754 84.6531915,19.3974346 L83.7329787,19.2827749 C83.7760638,19.0115707 83.7441489,18.7209948 83.6361702,18.4105236 C83.5281915,18.1005759 83.3515957,17.8257068 83.106383,17.5864398 C82.8297872,17.3162827 82.531383,17.123089 82.2111702,17.0063351 C81.8909574,16.8895812 81.5664894,16.8403665 81.237766,16.8592147 C80.9090426,16.8780628 80.5882979,16.9592147 80.2760638,17.1021466 C79.9632979,17.2456021 79.6787234,17.444555 79.4223404,17.6990052 C79.1569149,17.962356 78.95,18.2487435 78.8026596,18.557644 C78.6547872,18.8665445 78.5728723,19.1806806 78.556383,19.4995288 C78.5398936,19.8189005 78.5930851,20.1346073 78.7164894,20.4466492 C78.8398936,20.7586911 79.037766,21.0476963 79.3095745,21.3136649 C79.5771277,21.5749215 79.8734043,21.7597382 80.1978723,21.8675916 C80.5228723,21.975445 80.8579787,21.9984817 81.2042553,21.936178 L81.3744681,22.8079058 C80.9345745,22.875445 80.4867021,22.8408901 80.031383,22.7047644 C79.5755319,22.5686387 79.137766,22.2958639 78.718617,21.8869634 C78.3574468,21.5340838 78.0845745,21.1482199 77.9010638,20.7293717 C77.7170213,20.31 77.6244681,19.8843455 77.6228723,19.4513613 C77.6212766,19.018377 77.7095745,18.5906283 77.887766,18.1681152 C78.0659574,17.7456021 78.3367021,17.3539791 78.6994681,16.9942932 C79.0664894,16.6298953 79.4654255,16.3597382 79.8957447,16.1827749 C80.3260638,16.0058115 80.7611702,15.9209948 81.2010638,15.9283246 L81.2010638,15.9283246 Z M88.0882979,22.4152356 L88.5797872,23.0953403 L84.8015957,29.1984817 L84.1898936,28.3518848 L85.1329787,26.8723037 L83.2984043,24.3319895 L81.5739362,24.7304188 L80.9734043,23.8990052 L88.0882979,22.4152356 Z M91.6734043,28.1068586 L86.4595745,30.7026702 L87.8031915,33.318377 L87.0632979,33.6869634 L85.2984043,30.2518848 L91.2521277,27.2880105 L91.6734043,28.1068586 Z M93.7303191,38.2194241 C94.1867021,38.3110471 94.5952128,38.4817277 94.9547872,38.7309424 C95.3143617,38.9801571 95.6191489,39.2979581 95.868617,39.6848691 C96.1180851,40.0717801 96.2914894,40.5110471 96.3888298,41.0026702 C96.4909574,41.518377 96.5047872,41.9932461 96.4308511,42.4262304 C96.356383,42.8592147 96.2164894,43.2340838 96.0106383,43.5513613 L95.2202128,43.0508377 C95.3973404,42.8152356 95.5212766,42.5351309 95.5914894,42.2094764 C95.6611702,41.883822 95.6601064,41.536178 95.5867021,41.1660209 C95.512234,40.7895812 95.3755319,40.4634031 95.1765957,40.1864398 C94.9776596,39.9094764 94.737234,39.6880105 94.4547872,39.5215183 C94.1723404,39.3550262 93.8606383,39.244555 93.5202128,39.1906283 C93.1797872,39.136178 92.8308511,39.1429843 92.4734043,39.2120942 C92.1095745,39.2817277 91.7787234,39.405288 91.4808511,39.5817277 C91.1829787,39.7586911 90.9361702,39.9759686 90.7409574,40.2340838 C90.5457447,40.492199 90.4106383,40.7890576 90.3361702,41.1246597 C90.2617021,41.4602618 90.262766,41.8189005 90.3382979,42.201623 C90.3984043,42.5047644 90.481383,42.7791099 90.587766,43.023089 C90.693617,43.2675916 90.8175532,43.4733508 90.9595745,43.6419372 L92.7819149,43.292199 L92.4989362,41.8628796 L93.2755319,41.7136649 L93.7356383,44.0351309 L90.562766,44.6440314 C90.3106383,44.3393194 90.0952128,43.9963874 89.9170213,43.614712 C89.7388298,43.2330366 89.6031915,42.8058115 89.5095745,42.3319895 C89.4095745,41.8283246 89.4031915,41.349267 89.4888298,40.8948168 C89.5744681,40.4403665 89.7404255,40.0319895 89.9856383,39.6702094 C90.2308511,39.3079058 90.5478723,39.001623 90.9361702,38.7503141 C91.325,38.4995288 91.7723404,38.3251832 92.2776596,38.2283246 C92.7893617,38.1304188 93.2739362,38.1272775 93.7303191,38.2194241 L93.7303191,38.2194241 Z M85.0930851,14.8304188 C75.6781915,5.4639267 63.1601064,0.305287958 49.8452128,0.305287958 C36.5303191,0.305287958 24.012766,5.4639267 14.5978723,14.8304188 C5.18404255,24.1958639 0,36.6471728 0,49.8911518 C0,63.1351309 5.18457447,75.5864398 14.5978723,84.9518848 C24.012766,94.318377 36.5303191,99.4764921 49.8452128,99.4764921 C63.1606383,99.4764921 75.6781915,94.318377 85.0930851,84.9518848 C94.5069149,75.5869634 99.6914894,63.1351309 99.6914894,49.8911518 C99.6914894,36.6471728 94.5069149,24.1958639 85.0930851,14.8304188 L85.0930851,14.8304188 Z" id="Fill-16" fill="#006BA6" mask="url(#mask-2)"></path>
                    </g>
                    <path d="M48.2814362,73.0879581 C48.1734574,73.0989529 48.0718617,73.1146597 47.9739894,73.1335079 C47.5910106,73.239267 46.6043085,73.6356021 47.3415426,74.4298429 C47.5707979,74.5842932 47.9170745,74.7005236 48.3229255,74.7979058 L48.2814362,73.0879581 Z" id="Fill-19" fill="#FFFFFF"></path>
                    <path d="M75.0937766,61.9520419 C69.8214362,62.0714136 64.503883,62.7881675 59.6022872,64.0504712 C64.5054787,62.7928796 69.8315426,62.0756021 75.0937766,61.9520419" id="Fill-21" fill="#FFFFFF"></path>
                    <path d="M51.3331915,70.2891623 L51.3044681,71.456178 C52.1225532,71.516911 53.2730851,71.6137696 53.761383,71.4603665 C53.8842553,71.416911 53.9858511,71.3614136 54.0752128,71.2991099 C54.0996809,71.2813089 54.1230851,71.2624607 54.1454255,71.243089 C54.1954255,71.2027749 54.2337234,71.1577487 54.2709574,71.1111518 C54.3890426,70.9619372 54.4544681,70.7870681 54.4470213,70.6064398 C54.4464894,70.5891623 54.4475532,70.5724084 54.4459574,70.5556545 C54.4385106,70.4943979 54.4214894,70.4331414 54.3970213,70.3734555 C54.3890426,70.3556545 54.3805319,70.3378534 54.3725532,70.3205759 C54.3417021,70.2598429 54.305,70.2012042 54.2544681,70.1446597 C54.2411702,70.1284293 54.223617,70.1153403 54.2076596,70.1001571 C54.1597872,70.0519895 54.1065957,70.0059162 54.0432979,69.9624607 C53.9539362,69.9074869 53.8555319,69.8572251 53.7385106,69.8231937 C53.711383,69.8158639 53.6576596,69.8027749 53.6230851,69.7943979 C53.1932979,69.9546073 52.7698936,70.1190052 52.3693617,70.2891623 L51.3331915,70.2891623 Z" id="Fill-23" fill="#FFFFFF"></path>
                    <path d="M54.1221277,36.3397906 C53.8056383,36.2649215 53.507234,36.1989529 53.257234,36.1356021 C52.851383,36.0329843 52.5019149,35.9492147 52.1694681,35.8722513 L52.1237234,37.747644 L52.4848936,37.747644 C52.9598936,37.2403141 53.5157447,36.7759162 54.1221277,36.3397906" id="Fill-25" fill="#FFFFFF"></path>
                    <path d="M58.6148404,68.2695812 C58.7440957,68.6543979 58.8190957,69.0905236 58.8190957,69.5973298 C58.8190957,72.3303141 56.1760106,73.1015183 54.086117,73.285288 C54.0845213,73.2858115 54.0792021,73.2868586 54.0781383,73.2868586 C53.1095213,73.4486387 52.1600532,73.363822 51.2605851,73.2486387 L51.2100532,75.3334555 C51.2100532,75.3334555 51.1786702,75.3266492 51.1510106,75.3214136 C51.3121809,75.3585864 51.4669681,75.3978534 51.6073936,75.4418325 C53.1382447,75.9240314 54.2228191,77.6711518 54.2095213,79.0549215 C54.1999468,80.0543979 53.3850532,81.7434031 51.1749468,81.9763874 C48.8520745,82.2208901 46.6318617,81.1334555 47.2515426,80.3193194 C47.6967553,79.7350262 48.6137766,80.1622513 49.1307979,80.3449738 C50.4121809,80.7978534 52.0015426,80.0486387 51.8472872,78.7868586 C51.8260106,78.6119895 51.5781383,78.0580628 51.1105851,77.881623 C51.0823936,77.955445 50.6355851,79.7172251 49.7728191,79.7172251 C48.6137766,79.7172251 48.3978191,78.2240314 48.3573936,76.8187958 C48.3573936,76.8187958 48.3680319,76.8229843 48.3722872,76.8250785 C46.6137766,76.0753403 45.0116489,75.1434031 44.8967553,73.9182723 C44.7893085,72.7795288 45.5382447,71.7601571 47.3430319,71.3601571 C47.5440957,71.3156545 47.8584574,71.3004712 48.2377128,71.3036126 L48.2132447,70.2894764 L47.4935638,70.2894764 C38.9042021,67.5496859 27.180266,65.6999476 18.6105851,65.6763874 L18.6105851,35.5779581 L21.7515426,31.7313613 L21.7515426,61.829267 C28.0483511,61.8465445 34.3520745,62.855445 40.6605851,64.4732461 C40.6595213,64.4716754 40.6589894,64.4695812 40.6584574,64.4680105 C34.3573936,62.8533508 28.0605851,61.8465445 21.7712234,61.829267 L21.7712234,31.7313613 C33.6696277,31.9009948 42.1526064,33.9381675 47.4217553,37.7318848 L47.3499468,34.7831937 L47.4430319,34.8041361 C45.4659043,34.3219372 43.7781383,33.8418325 42.4850532,33.1585864 C39.2627128,31.455445 37.9776064,28.7837173 38.0494149,26.0643455 C38.1467553,22.3753403 41.7419681,18.6868586 46.1520745,17.9470681 C50.9345213,17.1449738 57.6329255,18.7564921 60.0260106,22.7753403 C60.6350532,23.798377 60.6430319,26.3339791 59.9866489,27.9182723 C59.9898404,27.9156545 59.9925,27.9130366 59.9956915,27.9104188 C59.9706915,27.9701047 59.9456915,28.016178 59.9212234,28.0711518 C59.9004787,28.1167016 59.880266,28.1617277 59.8595213,28.2041361 C58.8456915,30.2915707 57.7451596,28.6800524 57.3940957,28.3119895 C57.0121809,27.911466 56.7217553,27.3674869 56.3116489,27.0282199 C55.8425,26.6402618 55.3536702,26.4240314 54.7925,26.181623 C54.2313298,25.9397382 53.6690957,25.5146073 53.6020745,24.9151309 C53.5510106,24.455445 53.804734,24.024555 53.9584574,23.5873822 C54.0999468,23.185288 54.1233511,22.6564921 53.8265426,22.3701047 C53.7584574,22.3119895 53.7026064,22.2502094 53.6026064,22.2004712 C53.2169681,22.0083246 47.8206915,20.6543979 44.2701596,22.9774346 C42.736117,23.981623 42.0664362,26.2528272 43.329734,28.1716754 C43.8653723,28.9847644 45.6451596,29.7810995 47.2382447,30.2025654 L47.1706915,27.4256021 L47.1706915,27.4219372 L47.0531383,27.3617277 C45.998883,26.6941885 45.6940957,25.311466 46.3722872,24.2732461 C47.0504787,23.2355497 48.455266,22.9355497 49.5100532,23.603089 L52.9137766,26.2182723 C53.9680319,26.8858115 54.4855851,27.9434031 53.8073936,28.981623 C53.4318617,29.5564921 52.8983511,29.8036126 52.3185638,29.798377 L52.2754787,31.5674869 C52.6026064,31.663822 52.930266,31.7596335 53.2563298,31.8564921 C55.2690957,32.4533508 57.2212234,33.1256021 58.7472872,34.0287435 C63.8621809,32.2350262 70.8286702,31.5763874 78.4350532,31.7313613 L78.4350532,61.9533508 C78.4589894,61.9538743 78.4823936,61.9528272 78.5057979,61.9533508 L78.5057979,31.7313613 L81.6467553,35.5779581 L81.6467553,65.7994241 C74.798883,65.6329319 65.8206915,66.4701047 58.6148404,68.2695812 M49.8451596,12.1067539 C28.9866489,12.1067539 12.0169681,28.9873822 12.0169681,49.7365969 C12.0169681,70.4858115 28.9866489,87.3669634 49.8451596,87.3669634 C70.704734,87.3669634 87.673883,70.4858115 87.673883,49.7365969 C87.673883,28.9873822 70.704734,12.1067539 49.8451596,12.1067539" id="Fill-27" fill="#FFFFFF"></path>
                    <path d="M49.6979787,77.3546597 C50.077766,77.4996859 50.4878723,77.6504712 50.7735106,77.7562304 C50.4304255,77.6279581 50.0692553,77.4954974 49.6979787,77.3546597" id="Fill-29" fill="#FFFFFF"></path>
                    <path d="M50.5010638,75.1888482 C50.3159574,75.1542932 49.4079787,75.0019372 49.1191489,74.9595288 C49.5824468,75.0396335 50.0712766,75.1124084 50.5303191,75.1956545 C50.5218085,75.1935602 50.5079787,75.1898953 50.5010638,75.1888482" id="Fill-31" fill="#FFFFFF"></path>
                    <polygon id="Fill-33" fill="#FFFFFF" points="12.8953191 65.9994241 7.58893617 68.4287435 6.68680851 66.5193194 5.9437234 66.8601571 8.14106383 71.5109424 8.88468085 71.1706283 7.98255319 69.2612042 13.2889362 66.8324084"></polygon>
                    <polygon id="Fill-35" fill="#FFFFFF" points="11.4676596 62.5318848 8.53946809 63.3831937 7.58414894 60.198377 10.5123404 59.3470681 10.2453191 58.4575393 3.84638298 60.3177487 4.11340426 61.2067539 6.78893617 60.429267 7.7437234 63.6140838 5.0687234 64.3915707 5.33308511 65.272199 11.7320213 63.4135602"></polygon>
                    <polygon id="Fill-37" fill="#FFFFFF" points="9.38723404 52.7483246 8.56595745 52.8593194 9.03882979 56.2593194 6.83510638 56.5556545 6.40851064 53.4865445 5.61489362 53.5933508 6.04148936 56.6635079 4.06223404 56.9294764 3.60851064 53.6676963 2.7962766 53.7771204 3.37659574 57.9493717 9.98723404 57.0582723"></polygon>
                    <path d="M5.96069149,44.1428272 L5.83569149,45.1087958 L3.69473404,44.840733 L3.8218617,43.8564398 C3.84952128,43.6417801 3.89260638,43.4443979 3.95058511,43.2648168 C4.00856383,43.0852356 4.08835106,42.9344503 4.18941489,42.8129843 C4.29047872,42.6915183 4.41335106,42.6009424 4.55696809,42.5412565 C4.70111702,42.4815707 4.87292553,42.4637696 5.0718617,42.4889005 C5.27132979,42.5140314 5.43515957,42.571623 5.56228723,42.6627225 C5.68994681,42.7532984 5.78675532,42.871623 5.8537766,43.0171728 C5.92026596,43.1627225 5.96228723,43.3318325 5.97824468,43.5239791 C5.99526596,43.7156021 5.98941489,43.9218848 5.96069149,44.1428272 L5.96069149,44.1428272 Z M9.52824468,45.571623 L6.62079787,45.2077487 L6.75430851,44.1773822 C6.79792553,43.8402094 6.80271277,43.5213613 6.76867021,43.2208377 C6.73462766,42.9203141 6.65643617,42.6548691 6.53462766,42.4250262 C6.41228723,42.1946597 6.24047872,42.0046073 6.01920213,41.8553927 C5.79792553,41.706178 5.5218617,41.6108901 5.19154255,41.5695288 C4.86760638,41.5286911 4.58303191,41.5491099 4.33835106,41.6307853 C4.09367021,41.7124607 3.88303191,41.8449215 3.7075,42.0286911 C3.53196809,42.2124607 3.38941489,42.4438743 3.28037234,42.7229319 C3.17132979,43.0025131 3.09420213,43.3166492 3.04898936,43.6663874 L2.79207447,45.653822 L9.41069149,46.4826178 L9.52824468,45.571623 Z" id="Fill-39" fill="#FFFFFF"></path>
                    <polygon id="Fill-41" fill="#FFFFFF" points="11.3229787 37.0246597 10.5219149 36.8141885 9.62191489 40.1298953 7.47351064 39.5649738 8.28574468 36.5717801 7.51180851 36.3686387 6.69957447 39.3613089 4.76925532 38.8545026 5.63255319 35.6728272 4.84053191 35.4644503 3.7362766 39.5330366 10.1825532 41.227801"></polygon>
                    <path d="M9.20361702,32.1947644 C9.16531915,32.3801047 9.10308511,32.5722513 9.01744681,32.7717277 L8.59989362,33.7460733 L6.63765957,32.9314136 L7.08074468,31.8973822 C7.15893617,31.7151832 7.2493617,31.5481675 7.35202128,31.3958115 C7.45468085,31.2439791 7.56957447,31.1225131 7.69776596,31.0308901 C7.82542553,30.9397906 7.96744681,30.8827225 8.12382979,30.860733 C8.28021277,30.8382199 8.45095745,30.865445 8.63606383,30.9424084 C8.82170213,31.0193717 8.96,31.1209424 9.05308511,31.2465969 C9.1456383,31.3722513 9.20361702,31.5157068 9.22702128,31.6759162 C9.24989362,31.8366492 9.24244681,32.0094241 9.20361702,32.1947644 L9.20361702,32.1947644 Z M12.0557447,35.1811518 L9.3206383,34.0455497 L9.70893617,33.1397906 L13.1030851,32.7371728 L13.5424468,31.7115183 L9.9956383,32.2319372 C10.1062766,31.7680628 10.0807447,31.3413613 9.92010638,30.952356 C9.75946809,30.5633508 9.45308511,30.2753927 9.00202128,30.0879581 C8.68925532,29.9581152 8.39989362,29.9052356 8.13446809,29.9287958 C7.86851064,29.9528796 7.62702128,30.0350785 7.40946809,30.1764398 C7.19191489,30.317801 6.99670213,30.5068063 6.82382979,30.7434555 C6.65095745,30.9806283 6.50202128,31.2439791 6.37755319,31.534555 L5.54617021,33.4743455 L11.6935106,36.0267016 L12.0557447,35.1811518 Z" id="Fill-43" fill="#FFFFFF"></path>
                    <polygon id="Fill-45" fill="#FFFFFF" points="14.3043617 30.3109424 9.60170213 27.3564921 9.61180851 27.3413089 15.5006383 28.4653927 15.8203191 27.9727225 12.308617 23.1810995 12.3187234 23.1653927 17.0219149 26.1198429 17.5235106 25.3454974 11.8995745 21.8125131 11.1187234 23.0167016 14.3804255 27.3653927 14.3703191 27.3810995 8.97404255 26.324555 8.19319149 27.5282199 13.8176596 31.0612042"></polygon>
                    <path d="M16.2031915,18.6026702 L19.3361702,19.8157592 L17.6276596,21.6089529 L16.2031915,18.6026702 Z M18.7388298,23.9822513 L18.0005319,22.3979581 L20.1664894,20.1246597 L21.8265957,20.7414136 L22.5484043,19.9832984 L15.7218085,17.5482199 L15.1414894,18.1571204 L18.0292553,24.7262304 L18.7388298,23.9822513 Z" id="Fill-47" fill="#FFFFFF"></path>
                    <polygon id="Fill-49" fill="#FFFFFF" points="23.9930851 18.8670157 20.7170213 14.5837696 20.7319149 14.5722513 26.8239362 16.7691099 27.7648936 16.0722513 23.7521277 10.8256545 23.0069149 11.3774869 26.2148936 15.5717277 26.2 15.5832461 20.206383 13.4528796 19.2351064 14.1727749 23.2478723 19.4193717"></polygon>
                    <polygon id="Fill-51" fill="#FFFFFF" points="32.8894149 13.3220419 32.4984574 12.6021466 29.4234574 14.2204712 28.3750532 12.2901047 31.1505851 10.8288482 30.7729255 10.1335602 27.9973936 11.5948168 27.0553723 9.86026178 30.0053723 8.30790576 29.6186702 7.59638743 25.8457979 9.58172775 28.9920745 15.3728272"></polygon>
                    <polygon id="Fill-53" fill="#FFFFFF" points="34.6360638 12.6067539 32.8318085 7.54811518 32.8498936 7.54183246 37.9796809 11.4517801 39.0908511 11.0674869 36.8812766 4.87115183 36.0004255 5.17534031 37.7674468 10.1287435 37.7493617 10.1350262 32.6929787 6.31827225 31.5461702 6.71460733 33.7557447 12.9109424"></polygon>
                    <polygon id="Fill-55" fill="#FFFFFF" points="40.8001064 4.85539267 41.877766 10.5171728 42.7947872 10.3480628 41.7176596 4.68628272 43.8197872 4.29884817 43.6692553 3.50513089 38.5469149 4.45015707 38.6979787 5.24282723"></polygon>
                    <polygon id="Fill-57" fill="#FFFFFF" points="50.1493617 9.68219895 50.1073404 8.86649215 46.6248936 9.0408377 46.5121277 6.85445026 49.6552128 6.6973822 49.6147872 5.90994764 46.4717021 6.06701571 46.3701064 4.10314136 49.7110638 3.93612565 49.6695745 3.13036649 45.3967021 3.34397906 45.735 9.9026178"></polygon>
                    <polygon id="Fill-59" fill="#FFFFFF" points="58.4906915 4.98471204 58.5082447 4.98942408 59.3082447 10.8412565 59.8843085 10.9815707 63.375266 6.17528796 63.3933511 6.17947644 62.0523936 11.5098429 62.9582447 11.7307853 64.5614362 5.35591623 63.1529255 5.01246073 60.0087766 9.44492147 59.9906915 9.44020942 59.2832447 4.0695288 57.874734 3.72659686 56.2710106 10.1009424 57.149734 10.3150785"></polygon>
                    <polygon id="Fill-61" fill="#FFFFFF" points="68.211117 13.9936649 68.5425 13.2449738 65.3456915 11.8742932 66.2345213 9.86748691 69.1201596 11.1051832 69.4403723 10.3821466 66.5542021 9.14445026 67.3526064 7.34183246 70.4196277 8.65753927 70.7472872 7.91774869 66.8254787 6.23502618 64.1595213 12.255445"></polygon>
                    <path d="M72.9952128,10.0245026 L73.9835106,10.6381152 C74.3234043,10.8491099 74.6090426,11.0904712 74.8398936,11.3616754 C75.0707447,11.6328796 75.2351064,11.9213613 75.3329787,12.2271204 C75.4303191,12.5328796 75.4537234,12.8527749 75.4031915,13.1868063 C75.3521277,13.5208377 75.2164894,13.8606283 74.9952128,14.2056545 C74.7840426,14.5349738 74.5356383,14.7941361 74.2515957,14.9831414 C73.9670213,15.1721466 73.662766,15.2904712 73.3393617,15.3381152 C73.0154255,15.3857592 72.6787234,15.3663874 72.3287234,15.2805236 C71.9787234,15.1946597 71.6335106,15.0464921 71.293617,14.8354974 L70.3053191,14.2218848 L72.9952128,10.0245026 Z M71.0159574,15.6171728 C71.3771277,15.8417801 71.7744681,16.0098429 72.2079787,16.1218848 C72.6414894,16.2339267 73.0771277,16.2663874 73.5154255,16.2203141 C73.9531915,16.1742408 74.3739362,16.0334031 74.7776596,15.797801 C75.181383,15.562199 75.5356383,15.2067016 75.8404255,14.7307853 C76.1553191,14.2391623 76.3351064,13.7616754 76.3792553,13.2993717 C76.4228723,12.8370681 76.3707447,12.4019895 76.2228723,11.9957068 C76.0744681,11.5894241 75.8531915,11.2218848 75.5590426,10.8925654 C75.2648936,10.5637696 74.9367021,10.2868063 74.5755319,10.0627225 L72.6388298,8.86010471 L69.0792553,14.414555 L71.0159574,15.6171728 Z" id="Fill-63" fill="#FFFFFF"></path>
                    <polygon id="Fill-65" fill="#FFFFFF" points="79.6634043 13.6242408 75.4958511 18.7525131 74.7676596 18.1786911 78.9346809 13.0504188"></polygon>
                    <path d="M77.8884043,18.1675393 C77.7102128,18.5900524 77.6219149,19.017801 77.6235106,19.4507853 C77.6251064,19.8837696 77.7181915,20.3094241 77.9011702,20.7287958 C78.0852128,21.147644 78.3580851,21.5335079 78.7192553,21.8863874 C79.1384043,22.2958115 79.5761702,22.5685864 80.0314894,22.7041885 C80.4878723,22.8403141 80.9357447,22.8743455 81.3751064,22.8073298 L81.2043617,21.9356021 C80.858617,21.9979058 80.5229787,21.9753927 80.1985106,21.8670157 C79.8729787,21.7586387 79.577766,21.5743455 79.3102128,21.313089 C79.0378723,21.0471204 78.8405319,20.7586387 78.7171277,20.4460733 C78.5937234,20.1340314 78.5405319,19.8183246 78.5570213,19.4989529 C78.5735106,19.1801047 78.6548936,18.865445 78.8032979,18.5570681 C78.9506383,18.2481675 79.1575532,17.9623037 79.4229787,17.6984293 C79.6793617,17.4439791 79.9634043,17.2450262 80.2761702,17.1015707 C80.5889362,16.9581152 80.9096809,16.8769634 81.2384043,16.8586387 C81.5671277,16.8397906 81.8910638,16.8890052 82.2118085,17.0057592 C82.5314894,17.1225131 82.8304255,17.3157068 83.1070213,17.5858639 C83.3517021,17.8251309 83.5288298,18.1 83.6368085,18.4099476 C83.7442553,18.7198953 83.7761702,19.0104712 83.7330851,19.282199 L84.6538298,19.3968586 C84.683617,19.1910995 84.6814894,18.982199 84.6479787,18.7706806 C84.6139362,18.5586387 84.5511702,18.3481675 84.4618085,18.1382199 C84.3719149,17.9287958 84.2602128,17.7277487 84.1267021,17.5361257 C83.9926596,17.3439791 83.8453191,17.1696335 83.6841489,17.013089 C83.3235106,16.6602094 82.9293617,16.3931937 82.502234,16.2109948 C82.0751064,16.0293194 81.6415957,15.934555 81.2017021,15.9277487 C80.7612766,15.9204188 80.3267021,16.0052356 79.8958511,16.1816754 C79.4660638,16.3581152 79.0671277,16.6287958 78.6995745,16.9931937 C78.3373404,17.3539267 78.0665957,17.7450262 77.8884043,18.1675393" id="Fill-67" fill="#FFFFFF"></path>
                    <path d="M87.4337766,23.350733 L85.6050532,26.1329319 L84.1582447,24.129267 L87.4337766,23.350733 Z M81.5742021,24.7308377 L83.2992021,24.3324084 L85.1337766,26.8727225 L84.1901596,28.3523037 L84.8023936,29.1989005 L88.5800532,23.0957592 L88.0885638,22.4156545 L80.9742021,23.8994241 L81.5742021,24.7308377 Z" id="Fill-69" fill="#FFFFFF"></path>
                    <polygon id="Fill-71" fill="#FFFFFF" points="87.0634574 33.6864398 87.8033511 33.318377 86.4592021 30.7026702 91.6735638 28.1068586 91.2522872 27.2874869 85.2985638 30.2513613"></polygon>
                    <path d="M89.9853191,39.6705759 C89.7395745,40.032356 89.5746809,40.440733 89.4879787,40.8951832 C89.4018085,41.3496335 89.4092553,41.8286911 89.5087234,42.332356 C89.6023404,42.8056545 89.7385106,43.2334031 89.9161702,43.6150785 C90.0938298,43.9967539 90.3092553,44.3396859 90.5624468,44.6443979 L93.7353191,44.0354974 L93.2752128,41.7140314 L92.498617,41.8632461 L92.7815957,43.2925654 L90.9587234,43.6423037 C90.8167021,43.4742408 90.692766,43.2679581 90.5874468,43.0234555 C90.4815957,42.7794764 90.3980851,42.5051309 90.3374468,42.2019895 C90.2624468,41.819267 90.261383,41.4606283 90.3353191,41.1250262 C90.4097872,40.7894241 90.5448936,40.4925654 90.7406383,40.2344503 C90.9353191,39.9763351 91.1826596,39.7590576 91.4805319,39.5820942 C91.7778723,39.4051309 92.1087234,39.2820942 92.4730851,39.2124607 C92.8305319,39.1438743 93.1794681,39.1365445 93.5198936,39.1909948 C93.8597872,39.2449215 94.1714894,39.3553927 94.4539362,39.5218848 C94.7369149,39.6878534 94.9778723,39.9093194 95.1762766,40.1868063 C95.3752128,40.4637696 95.5119149,40.7899476 95.5858511,41.1663874 C95.6597872,41.5365445 95.661383,41.8841885 95.5906383,42.2098429 C95.5204255,42.5349738 95.3975532,42.8156021 95.2198936,43.0512042 L96.0097872,43.5517277 C96.2161702,43.2349738 96.3565957,42.8601047 96.43,42.4265969 C96.5044681,41.993089 96.4901064,41.5187435 96.3879787,41.0030366 C96.2906383,40.5114136 96.117234,40.0721466 95.8682979,39.6852356 C95.6188298,39.2983246 95.3140426,38.9805236 94.9544681,38.7313089 C94.5938298,38.4820942 94.1858511,38.3119372 93.7294681,38.2197906 C93.2730851,38.127644 92.7890426,38.1307853 92.2773404,38.2292147 C91.7709574,38.3265969 91.3241489,38.5004188 90.9353191,38.7512042 C90.5475532,39.001466 90.2305319,39.3082723 89.9853191,39.6705759" id="Fill-73" fill="#FFFFFF"></path>
                    <path d="M96.1714362,48.4177487 C96.1432447,48.598377 96.0916489,48.7564921 96.0150532,48.8920942 C95.9384574,49.0282199 95.8336702,49.1386911 95.7022872,49.2240314 C95.5703723,49.3093717 95.403883,49.3559686 95.2033511,49.3632984 C95.0022872,49.3706283 94.8326064,49.3371204 94.6948404,49.2617277 C94.5565426,49.1863351 94.4427128,49.0805759 94.3528191,48.9449738 C94.2623936,48.8088482 94.1948404,48.6491623 94.1496277,48.4648691 C94.1049468,48.2810995 94.0778191,48.0805759 94.0703723,47.8643455 L94.0294149,46.807801 L96.1576064,46.7282199 L96.2006915,47.8496859 C96.2086702,48.0475916 96.1990957,48.2371204 96.1714362,48.4177487 L96.1714362,48.4177487 Z M96.9139894,45.7810995 L90.2464362,46.0308377 L90.2820745,46.9486387 L93.2485638,46.837644 L93.2857979,47.8198429 L90.3842021,49.5994241 L90.4267553,50.7119895 L93.4166489,48.7622513 C93.5166489,49.2287435 93.7225,49.6046597 94.035266,49.8905236 C94.3480319,50.1753403 94.7501596,50.3088482 95.2395213,50.2905236 C95.5783511,50.2779581 95.8634574,50.2051832 96.0937766,50.0732461 C96.3246277,49.9407853 96.5081383,49.7648691 96.6437766,49.5465445 C96.7794149,49.3282199 96.8751596,49.0753403 96.9304787,48.7884293 C96.984734,48.5015183 97.0060106,48.2009948 96.9948404,47.8858115 L96.9139894,45.7810995 Z" id="Fill-75" fill="#FFFFFF"></path>
                    <path d="M96.028617,55.2510995 C95.9812766,55.6322513 95.8685106,55.9652356 95.6903191,56.2521466 C95.5121277,56.5390576 95.2881915,56.7751832 95.0185106,56.9610471 C94.747766,57.1458639 94.4451064,57.277801 94.11,57.3558115 C93.7743617,57.4332984 93.4248936,57.4500524 93.0631915,57.4065969 C92.6951064,57.3620942 92.3568085,57.2626178 92.047234,57.1065969 C91.7376596,56.9505759 91.4754255,56.7510995 91.2621277,56.5071204 C91.0493617,56.2636649 90.8924468,55.9804188 90.7935106,55.6563351 C90.6951064,55.3327749 90.6685106,54.9840838 90.7158511,54.6097382 C90.7626596,54.2359162 90.8732979,53.9065969 91.047234,53.6223037 C91.2217021,53.3380105 91.4429787,53.1024084 91.7094681,52.9165445 C91.9759574,52.7312042 92.2791489,52.599267 92.6179787,52.5217801 C92.9573404,52.4448168 93.3105319,52.4275393 93.6780851,52.4725654 C94.0397872,52.5160209 94.3743617,52.6160209 94.6807447,52.7715183 C94.9871277,52.9270157 95.2493617,53.1243979 95.4658511,53.3657592 C95.6834043,53.6071204 95.8424468,53.8877487 95.9445745,54.2092147 C96.047766,54.5291099 96.0754255,54.8767539 96.028617,55.2510995 M96.1919149,52.7662827 C95.9275532,52.4233508 95.5929787,52.1401047 95.1865957,51.9160209 C94.7807447,51.6924607 94.3190426,51.5500524 93.8020213,51.4877487 C93.2908511,51.425445 92.8105319,51.4547644 92.3621277,51.5751832 C91.9142553,51.6950785 91.516383,51.8898429 91.1690426,52.1605236 C90.822234,52.4296335 90.5365957,52.7641885 90.3126596,53.164712 C90.0887234,53.5636649 89.9461702,54.0128796 89.8839362,54.5097382 C89.822234,55.0065969 89.8504255,55.477801 89.9690426,55.9217801 C90.0876596,56.3662827 90.2823404,56.7605236 90.5525532,57.1045026 C90.822766,57.4484817 91.1610638,57.733822 91.566383,57.9610471 C91.9717021,58.1872251 92.4296809,58.3317277 92.941383,58.3929843 C93.4589362,58.455288 93.9424468,58.4249215 94.391383,58.3018848 C94.8408511,58.1788482 95.235,57.9819895 95.5759574,57.7113089 C95.9169149,57.4411518 96.197766,57.1039791 96.4185106,56.7013613 C96.6397872,56.2976963 96.7812766,55.8479581 96.8429787,55.3505759 C96.9046809,54.8531937 96.878617,54.3851309 96.7621277,53.9437696 C96.6456383,53.5018848 96.4562766,53.1097382 96.1919149,52.7662827" id="Fill-77" fill="#FFFFFF"></path>
                    <path d="M90.7364362,59.3787435 C90.4029255,59.3855497 90.0875,59.4541361 89.7917553,59.5850262 C89.4944149,59.7159162 89.2279255,59.913822 88.9922872,60.1787435 C88.7555851,60.4441885 88.5736702,60.7845026 88.4449468,61.1986387 C88.3172872,61.6127749 88.2763298,61.9944503 88.3226064,62.344712 C88.368883,62.6944503 88.4779255,63.005445 88.649734,63.2761257 C88.8220745,63.5478534 89.0444149,63.7771728 89.3183511,63.966178 C89.5922872,64.1541361 89.8906915,64.2975916 90.2156915,64.3944503 L94.2364362,65.5991623 L94.5082447,64.7201047 L90.5412234,63.5326702 C90.324734,63.4677487 90.1178191,63.3766492 89.9210106,63.2593717 C89.7242021,63.1420942 89.5598404,62.9975916 89.4289894,62.8263874 C89.2986702,62.6546597 89.2130319,62.4525654 89.1731383,62.2211518 C89.1327128,61.9886911 89.1577128,61.7279581 89.2470745,61.4389529 C89.3385638,61.1426178 89.4662234,60.9112042 89.6300532,60.7431414 C89.7933511,60.5756021 89.9779255,60.4567539 90.1837766,60.3860733 C90.3896277,60.3143455 90.6071809,60.2845026 90.8364362,60.2954974 C91.0662234,60.3059686 91.2890957,60.3436649 91.5055851,60.4085864 L95.4726064,61.5960209 L95.7444149,60.7180105 L91.7231383,59.513822 C91.3992021,59.4164398 91.0710106,59.3714136 90.7364362,59.3787435" id="Fill-79" fill="#FFFFFF"></path>
                    <path d="M89.618617,68.8396335 C89.6638298,68.6527225 89.7356383,68.4579581 89.8329787,68.2574346 L90.2585106,67.3773298 L92.2069149,68.2909424 L91.7734043,69.1867539 C91.6787234,69.3820419 91.5755319,69.5563874 91.4632979,69.709267 C91.3510638,69.8621466 91.2276596,69.9809948 91.0930851,70.0647644 C90.9585106,70.1490576 90.8132979,70.1977487 90.6574468,70.2097906 C90.5015957,70.2228796 90.3329787,70.1862304 90.1515957,70.1008901 C89.9702128,70.0160733 89.8329787,69.9103141 89.7409574,69.7857068 C89.6484043,69.6595288 89.5941489,69.5171204 89.5765957,69.3590052 C89.5590426,69.2003665 89.5734043,69.0270681 89.618617,68.8396335 L89.618617,68.8396335 Z M86.8973404,65.8024607 L89.543617,67.0427749 L89.0898936,67.9804712 C88.9414894,68.287801 88.8356383,68.5888482 88.7723404,68.8846597 C88.7090426,69.1804712 88.6989362,69.456911 88.7420213,69.7129319 C88.7851064,69.9694764 88.887766,70.2029843 89.0505319,70.4124084 C89.2132979,70.622356 89.4452128,70.7977487 89.7457447,70.9391099 C90.0404255,71.0768063 90.3170213,71.1448691 90.5755319,71.1427749 C90.8340426,71.1412042 91.0760638,71.0794241 91.3010638,70.9590052 C91.5265957,70.8385864 91.7351064,70.6621466 91.9271277,70.430733 C92.1191489,70.1993194 92.2925532,69.9239267 92.4462766,69.6056021 L93.3212766,67.7967016 L87.2978723,64.9731414 L86.8973404,65.8024607 Z" id="Fill-81" fill="#FFFFFF"></path>
                    <path d="M52.37,70.2891623 C52.7705319,70.1184817 53.1939362,69.9546073 53.6231915,69.7943979 C53.2231915,69.6891623 52.3747872,69.5069634 51.357766,69.2943979 L51.3338298,70.2891623 L52.37,70.2891623 Z" id="Fill-83" fill="#94BEDD"></path>
                    <path d="M46.7648936,68.3345026 C45.2595745,68.0502094 41.8734043,66.7978534 40.6606383,64.4732461 C34.3521277,62.855445 28.0484043,61.8465445 21.7515957,61.829267 L21.7515957,31.7313613 L18.6106383,35.5779581 L18.6106383,65.6758639 C27.1803191,65.6994241 38.9042553,67.5486387 47.493617,70.2889529 L48.2132979,70.2889529 L48.1728723,68.6240314 C47.6404255,68.5104188 47.1547872,68.4083246 46.7648936,68.3345026" id="Fill-85" fill="#99C4DB"></path>
                    <path d="M78.505,31.7313089 L78.505,61.9532984 C78.4815957,61.9527749 78.4576596,61.953822 78.4342553,61.9532984 C77.3262766,61.9260733 76.211383,61.9265969 75.0938298,61.9527749 C69.8310638,62.0763351 64.505,62.7936126 59.6023404,64.0506806 C57.8262766,64.5082723 56.1044681,65.0349738 54.4597872,65.6339267 C56.4103191,65.9951832 58.0597872,66.6171728 58.6145745,68.2695288 C65.8204255,66.4705759 74.7980851,65.6328796 81.6454255,65.7993717 L81.6454255,35.5779058 L78.505,31.7313089 Z" id="Fill-87" fill="#99C4DB"></path>
                    <path d="M45.6995213,48.9916754 C46.4080319,48.9916754 47.0803723,49.0157592 47.7590957,49.036178 L47.6968617,49.0325131 L47.5809043,44.249267 C46.4431383,44.2335602 45.469734,44.2393194 44.895266,44.3005759 C42.7223936,44.5319895 42.8149468,47.1906283 42.8255851,47.396911 C43.176117,48.2471728 44.0399468,48.9916754 45.6995213,48.9916754" id="Fill-89" fill="#E5F0F6"></path>
                    <path d="M51.7399468,53.5613089 L51.6223936,58.4079058 C51.8644149,58.4068586 52.0835638,58.4089529 52.2415426,58.4162827 C52.4245213,58.4262304 52.6223936,58.4298953 52.8277128,58.4288482 C53.788883,58.3880105 54.6973936,58.2911518 55.4846277,58.114712 C55.9218617,58.0120942 56.4043085,57.8696859 56.8303723,57.6497906 C56.8372872,57.6461257 56.844734,57.6424607 56.8516489,57.6387958 C57.0053723,57.5581675 57.151117,57.4675916 57.2830319,57.3660209 C57.2856915,57.3639267 57.2883511,57.3618325 57.2910106,57.3592147 C57.6931383,57.0456021 57.969734,56.6251832 57.969734,56.0524084 C57.969734,55.5220419 57.5404787,55.1115707 57.5420745,55.11 C57.5420745,55.11 57.5500532,55.1141885 57.5505851,55.1141885 C56.5601596,54.2262304 54.1117553,53.7906283 51.7814362,53.5644503 C51.7739894,53.5644503 51.7532447,53.562356 51.7399468,53.5613089" id="Fill-91" fill="#E5F0F6"></path>
                    <path d="M52.4853191,37.747644 L52.1241489,37.747644 L52.0784043,39.6235602 C53.4438298,39.647644 54.1964894,39.6685864 54.661383,39.6439791 C55.017766,39.5942408 55.355,39.5324607 55.6459574,39.4455497 C55.6741489,39.4366492 55.6980851,39.4272251 55.7252128,39.4183246 C55.8853191,39.3670157 56.0331915,39.3089005 56.167234,39.2434555 C56.1890426,39.2329843 56.2129787,39.2230366 56.2337234,39.2120419 C56.5310638,39.0560209 56.7491489,38.8581152 56.8714894,38.6141361 C56.8847872,38.5837696 56.8975532,38.5539267 56.9071277,38.5230366 C56.9321277,38.4570681 56.9401064,38.3827225 56.9512766,38.3099476 C56.9518085,38.304712 56.9534043,38.3 56.9539362,38.295288 C56.9964894,37.7727749 56.6890426,37.4230366 56.4938298,37.2544503 C55.9252128,36.7979058 54.9576596,36.5371728 54.1225532,36.3397906 C53.5156383,36.7759162 52.9603191,37.2403141 52.4853191,37.747644" id="Fill-93" fill="#E5F0F6"></path>
                    <path d="M46.1872872,61.9617801 C46.1622872,61.965445 46.138883,61.9701571 46.1144149,61.973822 C45.9686702,61.995288 45.8309043,62.0193717 45.7069681,62.0481675 C45.5968617,62.0743455 45.501117,62.1073298 45.4053723,62.1403141 C45.1181383,62.2502618 44.7665426,62.452356 44.6314362,62.7717277 C44.6016489,62.8560209 44.5713298,62.939267 44.5713298,63.0387435 C44.5713298,63.1544503 44.5942021,63.2586387 44.620266,63.3612565 C44.7287766,63.7282723 45.0016489,63.9973822 45.2176064,64.1602094 C45.2777128,64.2026178 45.3351596,64.2465969 45.4021809,64.2848168 C45.419734,64.2958115 45.4383511,64.3068063 45.4516489,64.3146597 C46.1207979,64.6790576 47.0920745,64.8638743 48.0830319,64.9680628 C48.0814362,64.9460733 48.0484574,63.6109948 48.0059043,61.8507853 C47.3771809,61.8596859 46.7250532,61.8890052 46.1872872,61.9617801" id="Fill-95" fill="#E5F0F6"></path>
                    <path d="M35.3064362,49.0795812 C35.1521809,49.4560209 34.9532447,49.8408377 34.7096277,50.2329843 L32.4553723,53.7418848 L31.0543085,53.7418848 L33.3692021,50.304712 L33.3569681,50.2926702 C33.2351596,50.3649215 33.0686702,50.4209424 32.8575,50.460733 C32.7596277,50.4769634 32.6601596,50.4905759 32.5585638,50.5026178 C32.4569681,50.5146597 32.3617553,50.5209424 32.2723936,50.5209424 C31.8904787,50.5209424 31.5372872,50.4539267 31.2122872,50.3225131 C30.8872872,50.1905759 30.6032447,50.0057592 30.3596277,49.7696335 C30.1160106,49.5335079 29.9250532,49.2507853 29.7867553,48.9225131 C29.6484574,48.5942408 29.5798404,48.2376963 29.5798404,47.8528796 C29.5798404,47.4282723 29.6548404,47.0418848 29.8053723,46.6931937 C29.9559043,46.3445026 30.1644149,46.0460733 30.4330319,45.7979058 C30.701117,45.5497382 31.0181383,45.3570681 31.3835638,45.2209424 C31.7489894,45.0848168 32.1431383,45.0167539 32.5654787,45.0167539 C32.9878191,45.0167539 33.3819681,45.086911 33.7473936,45.2272251 C34.1128191,45.3675393 34.4277128,45.5617801 34.6915426,45.8099476 C34.9559043,46.0586387 35.1628191,46.3549738 35.3128191,46.6994764 C35.4633511,47.0439791 35.5383511,47.4167539 35.5383511,47.8167539 C35.5378191,48.282199 35.4606915,48.7031414 35.3064362,49.0795812 L35.3064362,49.0795812 Z M28.113883,53.7424084 L26.9420745,53.7424084 L26.9420745,46.652356 L25.3059043,47.9984293 L24.6101596,47.1931937 L27.0628191,45.234555 L28.1144149,45.234555 L28.1144149,53.7424084 L28.113883,53.7424084 Z M45.5856915,58.2528796 C46.1825,58.2534031 46.9957979,58.2963351 47.9218617,58.3429319 C47.8580319,55.6979058 47.7995213,53.2659686 47.7995213,53.2534031 C45.1085638,52.986911 42.619734,52.8842932 41.4649468,52.3832461 C38.994734,51.3104712 37.8814362,49.1895288 37.7192021,47.3549738 C37.5122872,45.0183246 38.3234574,40.017801 46.6590957,39.5575916 C46.8692021,39.5460733 47.1516489,39.5507853 47.4660106,39.5612565 L47.4218617,37.7319372 C42.1527128,33.9382199 33.670266,31.9015707 21.7713298,31.7314136 L21.7713298,61.8293194 C28.0606915,61.8465969 34.3575,62.8534031 40.6585638,64.4680628 C40.3814362,63.9356021 40.2181383,63.3465969 40.2181383,62.7005236 C40.2181383,60.4031414 41.9862234,58.2486911 45.5856915,58.2528796 L45.5856915,58.2528796 Z" id="Fill-97" fill="#E5F0F6"></path>
                    <path d="M33.8711702,46.5257068 C33.7126596,46.3618325 33.5232979,46.231466 33.303617,46.1351309 C33.0839362,46.0387958 32.8397872,45.9906283 32.5711702,45.9906283 C32.3025532,45.9906283 32.0584043,46.0367016 31.8387234,46.1288482 C31.6190426,46.2209948 31.4296809,46.3471728 31.2711702,46.5073822 C31.1126596,46.6675916 30.9903191,46.8597382 30.9052128,47.083822 C30.8195745,47.3084293 30.7770213,47.5524084 30.7770213,47.8168063 C30.7770213,48.0733508 30.8195745,48.3094764 30.9052128,48.5257068 C30.9908511,48.7419372 31.1105319,48.9304188 31.2653191,49.0906283 C31.4195745,49.2508377 31.6073404,49.3749215 31.8270213,49.4634031 C32.0467021,49.5518848 32.2908511,49.5953403 32.5594681,49.5953403 C32.8280851,49.5953403 33.0743617,49.5513613 33.2982979,49.4634031 C33.522234,49.375445 33.7131915,49.2513613 33.872234,49.0906283 C34.0307447,48.9304188 34.1530851,48.7419372 34.2381915,48.5257068 C34.3238298,48.3094764 34.366383,48.0691623 34.366383,47.8047644 C34.366383,47.5565969 34.3238298,47.3220419 34.2381915,47.101623 C34.1520213,46.8827749 34.0302128,46.6901047 33.8711702,46.5257068" id="Fill-99" fill="#E5F0F6"></path>
                    <path d="M71.5127128,52.5346073 C71.6632447,52.6749215 71.8425,52.7853927 72.0499468,52.8649738 C72.2573936,52.9450785 72.4871809,52.9853927 72.7398404,52.9853927 C72.9839894,52.9853927 73.2100532,52.9456021 73.4175,52.8649738 C73.6249468,52.7848691 73.8020745,52.6749215 73.9483511,52.5346073 C74.0946277,52.3942932 74.2105851,52.2241361 74.2962234,52.0236126 C74.3818617,51.8241361 74.4244149,51.6037173 74.4244149,51.3628796 C74.4244149,51.1298953 74.3823936,50.9162827 74.2962234,50.7199476 C74.2105851,50.5236126 74.0946277,50.3534555 73.9483511,50.2094764 C73.8020745,50.0654974 73.6249468,49.9529319 73.4175,49.8728272 C73.2100532,49.7927225 72.9839894,49.7524084 72.7398404,49.7524084 C72.4956915,49.7524084 72.2701596,49.7927225 72.0621809,49.8728272 C71.854734,49.9529319 71.6754787,50.0649738 71.5249468,50.2094764 C71.3744149,50.3534555 71.2563298,50.5241361 71.1712234,50.7199476 C71.0855851,50.9162827 71.0430319,51.1298953 71.0430319,51.3628796 C71.0430319,51.6031937 71.0834574,51.8236126 71.1653723,52.0236126 C71.2462234,52.2241361 71.3621809,52.3942932 71.5127128,52.5346073" id="Fill-101" fill="#E5F0F6"></path>
                    <path d="M72.1635638,48.6465445 C72.3390957,48.7187958 72.5289894,48.7549215 72.7337766,48.7549215 C72.9295213,48.7549215 73.1135638,48.7187958 73.2853723,48.6465445 C73.4577128,48.5742932 73.6087766,48.4753403 73.7396277,48.350733 C73.8699468,48.2261257 73.9720745,48.0790052 74.0454787,47.9098953 C74.1194149,47.7407853 74.156117,47.5601571 74.156117,47.3669634 C74.156117,47.1659162 74.1178191,46.9790052 74.0396277,46.8057068 C73.9625,46.6324084 73.8598404,46.4837173 73.7332447,46.3591099 C73.6071809,46.2345026 73.4582447,46.1381675 73.2859043,46.0695812 C73.1140957,46.0009948 72.9300532,45.9669634 72.7343085,45.9669634 C72.5295213,45.9669634 72.3396277,46.0015183 72.1640957,46.0695812 C71.9885638,46.1381675 71.8375,46.2345026 71.7103723,46.3591099 C71.5837766,46.4837173 71.4859043,46.6324084 71.4167553,46.8057068 C71.3470745,46.9784817 71.3119681,47.1659162 71.3119681,47.3669634 C71.3119681,47.5601571 71.3470745,47.7413089 71.4167553,47.9098953 C71.4859043,48.0790052 71.5837766,48.2256021 71.7103723,48.350733 C71.8369681,48.4753403 71.9880319,48.5742932 72.1635638,48.6465445" id="Fill-103" fill="#E5F0F6"></path>
                    <path d="M63.0452128,50.7737696 L66.7202128,45.2339791 L68.1728723,45.2339791 L68.1728723,50.8339791 L69.4180851,50.8339791 L69.4180851,51.8318848 L68.1728723,51.8318848 L68.1728723,53.742356 L67.0255319,53.742356 L67.0255319,51.8318848 L63.0452128,51.8318848 L63.0452128,50.7737696 Z M69.962234,50.6418325 C70.0478723,50.4015183 70.1654255,50.1894764 70.3164894,50.0051832 C70.4670213,49.8208901 70.6420213,49.6669634 70.8414894,49.5428796 C71.0409574,49.4187958 71.2505319,49.324555 71.4702128,49.2601571 L71.4702128,49.2360733 C71.0792553,49.0999476 70.7601064,48.8674869 70.5117021,48.5392147 C70.2632979,48.2109424 70.1393617,47.8104188 70.1393617,47.337644 C70.1393617,46.985288 70.2085106,46.6669634 70.3468085,46.3821466 C70.4851064,46.0978534 70.6723404,45.8533508 70.9085106,45.6491623 C71.1441489,45.4449738 71.4191489,45.2884293 71.7324468,45.1805759 C72.0457447,45.0727225 72.381383,45.0182723 72.7393617,45.0182723 C73.0893617,45.0182723 73.4228723,45.072199 73.7404255,45.1805759 C74.0579787,45.2889529 74.3324468,45.4407853 74.5643617,45.6371204 C74.7962766,45.8334555 74.981383,46.0737696 75.1202128,46.3580628 C75.2585106,46.642356 75.3276596,46.9612042 75.3276596,47.3130366 C75.3276596,47.7779581 75.2037234,48.1826702 74.9553191,48.5266492 C74.7069149,48.8711518 74.387766,49.107801 73.9968085,49.2355497 L73.9968085,49.2596335 C74.2244681,49.3156545 74.4382979,49.4098953 74.637766,49.542356 C74.8367021,49.6742932 75.0101064,49.8329319 75.156383,50.0172251 C75.3026596,50.2015183 75.418617,50.4140838 75.5042553,50.6543979 C75.5898936,50.894712 75.6324468,51.1512565 75.6324468,51.4235079 C75.6324468,51.8240314 75.5547872,52.1810995 75.4010638,52.4931414 C75.2457447,52.8057068 75.0361702,53.0701047 74.7718085,53.2863351 C74.5074468,53.5025654 74.2,53.6690576 73.85,53.785288 C73.5,53.9020419 73.1297872,53.9596335 72.7388298,53.9596335 C72.3484043,53.9596335 71.9755319,53.9020419 71.6218085,53.785288 C71.2675532,53.6690576 70.9579787,53.5025654 70.693617,53.2863351 C70.4292553,53.0701047 70.2196809,52.8057068 70.0648936,52.4931414 C69.9101064,52.1810995 69.8329787,51.824555 69.8329787,51.4235079 C69.8340426,51.142356 69.8771277,50.8821466 69.962234,50.6418325 L69.962234,50.6418325 Z M61.7281915,38.2994241 C61.7281915,42.4575393 57.9218085,44.0915707 55.6920213,44.2858115 C55.6239362,44.2973298 55.5632979,44.3057068 55.5170213,44.3098953 C54.725,44.3800524 53.412766,44.3737696 51.9638298,44.3454974 L51.843617,49.281623 C53.662766,49.4559686 55.4797872,49.7057068 57.4218085,50.0439267 C59.2106383,50.355445 62.5132979,51.4381675 62.5132979,55.7083246 C62.5132979,59.8889529 58.3824468,61.4266492 56.9276596,61.6491623 C56.8946809,61.6543979 56.8585106,61.6570157 56.825,61.6617277 C56.8090426,61.6648691 56.7925532,61.6737696 56.7765957,61.6763874 C55.3760638,61.9224607 53.1829787,61.9355497 51.5367021,61.9109424 L51.4569149,65.1926178 L51.418617,65.1905236 C51.4574468,65.1952356 51.5037234,65.198377 51.5388298,65.2041361 C52.5228723,65.3439267 53.5239362,65.4601571 54.4595745,65.6334555 C56.1037234,65.0345026 57.8255319,64.507801 59.6021277,64.0502094 C64.5042553,62.7879058 69.8212766,62.0711518 75.093617,61.9523037 C76.2111702,61.9266492 77.3265957,61.9256021 78.4345745,61.9528272 L78.4345745,31.7313613 C70.8281915,31.5763874 63.8617021,32.2345026 58.7468085,34.0287435 C60.4962766,35.063822 61.6835106,36.4036126 61.7281915,38.2994241 L61.7281915,38.2994241 Z" id="Fill-105" fill="#E5F0F6"></path>
                    <polygon id="Fill-107" fill="#E5F0F6" points="67.0252128 46.5681152 67.0002128 46.5681152 64.2661702 50.8340838 67.0252128 50.8340838"></polygon>
                    <path d="M56.2336702,39.2119895 C56.5863298,39.0308377 56.7772872,38.8282199 56.8714362,38.6140838 C56.7496277,38.8580628 56.5315426,39.0559686 56.2336702,39.2119895" id="Fill-109" fill="#66A6CA"></path>
                    <path d="M55.0716489,39.5969634 C55.2886702,39.5498429 55.4753723,39.498534 55.6466489,39.4456545 C55.3546277,39.533089 55.0179255,39.5943455 54.6615426,39.6440838 C54.8301596,39.6346597 54.9642021,39.62 55.0716489,39.5969634" id="Fill-111" fill="#66A6CA"></path>
                    <path d="M51.7399468,53.5587435 L51.7399468,53.5613613 C51.7537766,53.5624084 51.7750532,53.5645026 51.7814362,53.5650262 C54.1122872,53.7912042 56.5601596,54.2257592 57.5505851,55.1147644 C57.6000532,55.137801 60.0383511,56.2917277 59.9957979,58.2686911 C59.9713298,59.4487958 58.3431383,61.3608377 56.8255851,61.6624084 C56.8590957,61.6571728 56.894734,61.654555 56.9282447,61.6498429 C58.3830319,61.4262827 62.513883,59.8891099 62.513883,55.7084817 C62.513883,51.4383246 59.2117553,50.3561257 57.4223936,50.0446073 C55.4809043,49.7063874 53.663883,49.4566492 51.8442021,49.2823037 L51.8442021,49.2922513 L47.7590957,49.0362304 C47.0803723,49.0158115 46.4080319,48.9917277 45.6995213,48.9917277 C44.0399468,48.9917277 43.176117,48.2472251 42.8250532,47.3969634 C42.8255851,47.4053403 42.826117,47.4168586 42.826117,47.4168586 C42.8170745,47.385445 41.813883,45.6770681 41.8505851,43.9383246 C41.8840957,42.3273298 42.7665426,39.9613613 47.4686702,39.6294241 L47.4670745,39.5608377 C47.1527128,39.5498429 46.870266,39.5456545 46.6601596,39.5571728 C38.3250532,40.0173822 37.5133511,45.0179058 37.720266,47.354555 C37.8825,49.1891099 38.995266,51.3100524 41.4660106,52.3828272 C42.6207979,52.8843979 45.1096277,52.9864921 47.8005851,53.2529843 L47.8005851,53.2503665 L51.7399468,53.5587435 Z" id="Fill-113" fill="#66A6CA"></path>
                    <path d="M45.6745745,62.0543455 C45.6038298,62.071623 45.508617,62.1009424 45.4054255,62.140733 C45.5011702,62.1082723 45.5969149,62.0747644 45.7070213,62.0485864 C45.6969149,62.0506806 45.6841489,62.0517277 45.6745745,62.0543455" id="Fill-115" fill="#66A6CA"></path>
                    <path d="M49.1190426,74.9587435 C49.1115957,74.9576963 49.0993617,74.9556021 49.0924468,74.954555 C48.8802128,74.9241885 48.5929787,74.8608377 48.4371277,74.8252356 C48.4328723,74.8241885 48.4280851,74.8231414 48.4238298,74.8220942 C48.3642553,74.8084817 48.322766,74.7980105 48.322766,74.7980105 L48.322766,74.7964398 C47.9169149,74.7001047 47.5706383,74.5833508 47.341383,74.4278534 C47.3424468,74.4294241 47.3424468,74.4304712 47.3435106,74.4315183 C46.291383,74.0372775 46.0924468,73.1587435 46.4371277,72.4404188 C46.6834043,71.9278534 47.2865957,71.628377 48.2424468,71.4896335 L48.2376596,71.302199 C47.8584043,71.2990576 47.5440426,71.3142408 47.3429787,71.3587435 C45.5381915,71.7587435 44.7892553,72.7781152 44.8967021,73.9168586 C45.0121277,75.1419895 46.6142553,76.0744503 48.372234,76.8236649 C48.4482979,76.8550785 49.1743617,77.1524607 49.6791489,77.3467016 C49.685,77.3482723 49.691383,77.3508901 49.697234,77.3535079 C50.0685106,77.4943455 50.4302128,77.6273298 50.7732979,77.7550785 C50.9445745,77.8179058 51.0823404,77.8686911 51.1094681,77.880733 C51.5780851,78.0571728 51.8254255,78.611623 51.8467021,78.7859686 C52.0004255,80.0477487 50.4110638,80.7964398 49.1302128,80.3440838 C48.6131915,80.1613613 47.6961702,79.7336126 47.2509574,80.3179058 C46.6312766,81.1320419 48.8514894,82.22 51.1743617,81.9749738 C53.3844681,81.7430366 54.1993617,80.0535079 54.2089362,79.0529843 C54.222234,77.6697382 53.1376596,75.9226178 51.6068085,75.4409424 C51.4669149,75.3969634 51.3121277,75.3576963 51.1504255,75.32 C51.0275532,75.2948691 50.697766,75.2268063 50.5291489,75.193822 C50.0717021,75.1121466 49.5823404,75.0393717 49.1190426,74.9587435" id="Fill-117" fill="#66A6CA"></path>
                    <path d="M53.7704787,71.4589529 C53.8864362,71.4223037 53.9848404,71.3636649 54.075266,71.2987435 C53.9859043,71.3610471 53.8837766,71.4165445 53.7614362,71.4605236 C53.7635638,71.4594764 53.7678191,71.4594764 53.7704787,71.4589529" id="Fill-119" fill="#66A6CA"></path>
                    <path d="M48.2814362,73.0813089 C48.1915426,73.095445 48.0968617,73.1006806 48.0101596,73.1231937 C48.0000532,73.1258115 47.9851596,73.1310471 47.9739894,73.1341885 C48.0718617,73.1148168 48.1734574,73.0996335 48.2814362,73.0886387 L48.2814362,73.0813089 Z" id="Fill-121" fill="#66A6CA"></path>
                    <path d="M54.4597872,65.6333508 C53.5241489,65.4600524 52.5225532,65.343822 51.5390426,65.2040314 C51.5034043,65.1982723 51.4571277,65.1951309 51.4182979,65.1904188 L48.8858511,65.0474869 C48.6209574,65.0275916 48.2869149,64.9898953 48.0842553,64.9684293 L48.0842553,64.9679058 C47.0932979,64.8637173 46.1225532,64.6794241 45.4523404,64.3145026 C45.4869149,64.3343979 45.5108511,64.3459162 45.5108511,64.3459162 C44.667234,64.1244503 43.4209574,62.67 43.4209574,61.522356 C43.4209574,60.0951309 45.0741489,58.9694764 47.1018085,58.683089 C47.3347872,58.6495812 47.6225532,58.6197382 47.9278723,58.5909424 C47.9257447,58.5071728 47.9241489,58.4249738 47.9214894,58.3412042 C46.9959574,58.2946073 46.1821277,58.2516754 45.5853191,58.2511518 C41.986383,58.2474869 40.2182979,60.4019372 40.2182979,62.6993194 C40.2182979,63.3453927 40.3821277,63.9338743 40.6587234,64.4663351 C40.6597872,64.4679058 40.6603191,64.47 40.6608511,64.4715707 C41.873617,66.7967016 45.2597872,68.048534 46.7651064,68.3328272 C47.155,68.4066492 47.6406383,68.5087435 48.1730851,68.622356 L51.3576596,69.2925131 C52.3741489,69.5056021 53.2225532,69.6872775 53.623617,69.7925131 C53.6581915,69.8014136 53.7119149,69.8139791 53.7395745,69.8218325 C53.8560638,69.8553403 53.9544681,69.9050785 54.0438298,69.9610995 C54.0321277,69.9527225 54.0262766,69.943822 54.0145745,69.9364921 C54.6502128,70.1804712 56.0065957,70.4155497 56.0145745,71.7401571 C56.0209574,72.817644 54.2656383,73.252199 54.0869149,73.2836126 C56.1768085,73.1003665 58.8193617,72.3286387 58.8193617,69.5956545 C58.8193617,69.0893717 58.7448936,68.6532461 58.6151064,68.2679058 C58.0603191,66.6171204 56.4103191,65.9951309 54.4597872,65.6333508" id="Fill-123" fill="#66A6CA"></path>
                    <path d="M56.6481915,23.062356 C56.9987234,23.062356 57.282766,23.3419372 57.282766,23.6869634 C57.282766,24.0319895 56.9987234,24.3115707 56.6481915,24.3115707 C56.2981915,24.3115707 56.0141489,24.0319895 56.0141489,23.6869634 C56.0141489,23.3419372 56.2987234,23.062356 56.6481915,23.062356 M52.0402128,35.8419372 L52.17,35.8712565 L52.17,35.8723037 C52.5024468,35.9497906 52.8519149,36.0330366 53.257766,36.1356545 C53.507766,36.1984817 53.8061702,36.2649738 54.1226596,36.3398429 C54.9582979,36.5367016 55.9258511,36.7979581 56.4939362,37.2545026 C56.4061702,37.1791099 56.338617,37.1356545 56.338617,37.1356545 C56.8545745,37.3848691 59.2237234,38.6806806 59.2306383,40.6189005 C59.2412766,43.3000524 56.5928723,44.1351309 55.6923404,44.2864398 C57.9226596,44.092199 61.7290426,42.4581675 61.7290426,38.3000524 C61.6843617,36.4042408 60.4965957,35.0644503 58.7471277,34.0293717 C57.2210638,33.1262304 55.2689362,32.4539791 53.2561702,31.8571204 C52.9306383,31.7602618 52.6029787,31.6644503 52.2753191,31.5681152 L52.2747872,31.5906283 L47.2396809,30.2298953 L47.2391489,30.2031937 C45.6455319,29.7812042 43.8657447,28.9853927 43.3301064,28.1723037 C42.0668085,26.2539791 42.7364894,23.9822513 44.2705319,22.9780628 C47.8205319,20.6550262 53.2173404,22.0089529 53.6029787,22.2010995 C53.7035106,22.2508377 53.7588298,22.3126178 53.8269149,22.370733 C53.801383,22.3461257 53.788617,22.3115707 53.757766,22.2906283 C54.0625532,22.1356545 54.4301064,22.3822513 54.582766,22.6843455 C54.7359574,22.9859162 54.7247872,23.3393194 54.7317021,23.6764921 C54.7391489,24.0136649 54.7801064,24.3764921 55.007234,24.6288482 C55.1726596,24.8115707 55.4109574,24.9089529 55.6396809,25.0021466 C56.5535106,25.3749215 56.8306383,26.6293717 57.4088298,27.4189005 C58.8848936,29.4346073 59.4019149,28.3937696 59.9864894,27.918377 C60.6428723,26.3340838 60.6354255,23.7984817 60.026383,22.775445 C57.632766,18.7565969 50.9343617,17.1456021 46.1524468,17.9471728 C41.7418085,18.6869634 38.1465957,22.375445 38.0492553,26.0644503 C37.9774468,28.7832984 39.2625532,31.4555497 42.4854255,33.1586911 C43.7779787,33.8419372 45.4668085,34.3225654 47.4428723,34.8042408 L51.4848936,35.7168063 C51.6646809,35.7560733 51.8497872,35.7979581 52.0402128,35.8419372" id="Fill-125" fill="#66A6CA"></path>
                    <path d="M54.9054255,58.2380628 C55.0782979,58.2056021 55.277766,58.1626702 55.4841489,58.1145026 C54.6958511,58.291466 53.7878723,58.387801 52.827234,58.4281152 C53.483617,58.4249738 54.2282979,58.3668586 54.9054255,58.2380628" id="Fill-127" fill="#66A6CA"></path>
                    <path d="M57.4086702,27.4183246 C56.8304787,26.6287958 56.553883,25.3743455 55.6400532,25.0015707 C55.4107979,24.908377 55.1719681,24.8109948 55.0070745,24.6282723 C54.7804787,24.3759162 54.7389894,24.013089 54.7320745,23.6759162 C54.7246277,23.3387435 54.7363298,22.9853403 54.5831383,22.6837696 C54.4294149,22.3816754 54.0623936,22.1350785 53.7581383,22.2900524 C53.7884574,22.3109948 53.8012234,22.3450262 53.8272872,22.3701571 C54.1246277,22.6565445 54.1001596,23.1853403 53.9592021,23.5874346 C53.8054787,24.0246073 53.5517553,24.4554974 53.6028191,24.9151832 C53.6693085,25.5146597 54.2315426,25.939267 54.7932447,26.1816754 C55.3544149,26.4240838 55.8432447,26.6403141 56.3118617,27.0282723 C56.7225,27.3675393 57.0129255,27.9115183 57.3948404,28.3120419 C57.7459043,28.6801047 58.8459043,30.291623 59.859734,28.2041885 C59.8804787,28.1617801 59.9012234,28.1167539 59.9219681,28.0712042 C59.9464362,28.0162304 59.9714362,27.9701571 59.9959043,27.9104712 C59.9927128,27.913089 59.9905851,27.9157068 59.9873936,27.9183246 C59.4017553,28.3931937 58.884734,29.434555 57.4086702,27.4183246" id="Fill-129" fill="#006BA6"></path>
                    <path d="M56.6481915,23.062356 C56.9987234,23.062356 57.282766,23.3419372 57.282766,23.6869634 C57.282766,24.0319895 56.9987234,24.3115707 56.6481915,24.3115707 C56.2981915,24.3115707 56.0141489,24.0319895 56.0141489,23.6869634 C56.0141489,23.3419372 56.2981915,23.062356 56.6481915,23.062356" id="Fill-131" fill="#006BA6"></path>
                    <path d="M47.4679787,39.6294241 C42.7658511,39.9613613 41.8834043,42.3268063 41.8498936,43.9383246 C41.8137234,45.6770681 42.8169149,47.385445 42.8254255,47.4168586 C42.8254255,47.4168586 42.8248936,47.4053403 42.8243617,47.3969634 C42.8137234,47.1906806 42.7211702,44.5320419 44.8940426,44.3006283 C45.4685106,44.2393717 46.4419149,44.2336126 47.5796809,44.2493194 L47.6956383,49.0325654 L47.7578723,49.0362304 L51.8435106,49.2922513 L51.8435106,49.2823037 L51.9631915,44.346178 C53.4115957,44.3744503 54.7243617,44.380733 55.516383,44.3105759 C55.5626596,44.3063874 55.6232979,44.2980105 55.691383,44.2864921 C56.5919149,44.1351832 59.2403191,43.3001047 59.2296809,40.6189529 C59.222766,38.6812565 56.853617,37.3849215 56.3376596,37.1357068 C56.3376596,37.1357068 56.4052128,37.1786387 56.4929787,37.254555 C56.6887234,37.4236649 56.9961702,37.7734031 56.9530851,38.2953927 C56.9525532,38.3006283 56.9509574,38.3053403 56.9504255,38.3100524 C56.9392553,38.3828272 56.9312766,38.4571728 56.9057447,38.5231414 C56.8967021,38.5535079 56.8839362,38.5838743 56.8706383,38.6142408 C56.7764894,38.828377 56.5855319,39.0309948 56.2328723,39.2121466 C56.2115957,39.2226178 56.1881915,39.233089 56.166383,39.2435602 C56.0323404,39.3090052 55.8839362,39.3671204 55.7238298,39.4184293 C55.6967021,39.4273298 55.6732979,39.4367539 55.6451064,39.4456545 C55.4738298,39.4990576 55.2871277,39.5498429 55.0701064,39.5969634 C54.9626596,39.6205236 54.828617,39.6351832 54.66,39.6440838 C54.1945745,39.6686911 53.4419149,39.6477487 52.0770213,39.6236649 L52.122766,37.7477487 L52.1685106,35.872356 L52.1685106,35.8713089 L52.0387234,35.8419895 C51.8488298,35.7980105 51.6631915,35.7561257 51.4834043,35.7168586 L47.441383,34.8042932 L47.3482979,34.7833508 L47.4201064,37.7320419 L47.4642553,39.5613613 L47.4679787,39.6294241 Z" id="Fill-133" fill="#006BA6"></path>
                    <path d="M51.5368085,61.9111518 C53.1825532,61.9362827 55.3761702,61.9221466 56.7767021,61.6765969 C56.7926596,61.6739791 56.8091489,61.664555 56.8245745,61.6614136 C58.3426596,61.3608901 59.9703191,59.4483246 59.9953191,58.2682199 C60.0373404,56.290733 57.5990426,55.1373298 57.5501064,55.1142932 C57.5495745,55.1142932 57.5415957,55.1101047 57.5415957,55.1101047 C57.54,55.1111518 57.9692553,55.5221466 57.9692553,56.0525131 C57.9692553,56.6247644 57.6921277,57.0457068 57.29,57.3593194 C57.2878723,57.3614136 57.2852128,57.3629843 57.2825532,57.3656021 C57.1506383,57.4682199 57.0043617,57.5582723 56.8511702,57.6389005 C56.8442553,57.6425654 56.8368085,57.6462304 56.8298936,57.6493717 C56.4032979,57.869267 55.921383,58.012199 55.4841489,58.1148168 C55.277234,58.1635079 55.0782979,58.2059162 54.9054255,58.238377 C54.2282979,58.3671728 53.483617,58.4258115 52.827234,58.4294764 C52.6219149,58.4305236 52.4240426,58.4268586 52.2410638,58.4174346 C52.0830851,58.4095812 51.8639362,58.4074869 51.6219149,58.408534 L51.7394681,53.5619372 L51.7394681,53.5593194 L47.7990426,53.251466 L47.7990426,53.2540838 C47.7995745,53.2661257 47.8575532,55.6985864 47.921383,58.3436126 C47.9235106,58.4273822 47.9251064,58.5090576 47.927234,58.5933508 C47.6224468,58.621623 47.3346809,58.651466 47.1017021,58.6849738 C45.0735106,58.9713613 43.4203191,60.0975393 43.4203191,61.5247644 C43.4203191,62.6724084 44.6665957,64.1263351 45.5102128,64.347801 C45.5102128,64.347801 45.4862766,64.3357592 45.452234,64.316911 C45.4384043,64.3090576 45.4203191,64.2980628 45.402766,64.2870681 C45.3357447,64.2488482 45.2782979,64.2048691 45.2181915,64.1624607 C45.0017021,63.9991099 44.7293617,63.73 44.6208511,63.3629843 C44.5942553,63.2608901 44.5719149,63.1567016 44.5719149,63.0404712 C44.5719149,62.9415183 44.602234,62.8577487 44.6320213,62.7734555 C44.7671277,62.4551309 45.1187234,62.2519895 45.4059574,62.1420419 C45.508617,62.1027749 45.6043617,62.0734555 45.6751064,62.0556545 C45.6846809,62.0530366 45.6974468,62.0525131 45.7075532,62.0504188 C45.8314894,62.021623 45.9692553,61.9975393 46.115,61.9760733 C46.1394681,61.9718848 46.1628723,61.9671728 46.1878723,61.9640314 C46.7256383,61.890733 47.377766,61.8608901 48.0075532,61.8535602 C48.0501064,63.6137696 48.0830851,64.9483246 48.0846809,64.9708377 L48.0846809,64.9713613 C48.2878723,64.9928272 48.6219149,65.03 48.8868085,65.0504188 L51.4187234,65.1933508 L51.4575532,65.1949215 L51.5368085,61.9111518 Z" id="Fill-135" fill="#006BA6"></path>
                    <path d="M52.2744681,31.5894241 L52.275,31.566911 L52.3180851,29.797801 C52.8978723,29.8035602 53.431383,29.5559162 53.8069149,28.9810471 C54.4851064,27.9433508 53.9680851,26.8857592 52.9132979,26.2176963 L49.5095745,23.6025131 C48.4553191,22.9349738 47.0505319,23.2349738 46.3718085,24.2726702 C45.693617,25.3103665 45.9984043,26.693089 47.0526596,27.3611518 L47.1702128,27.4213613 L47.1702128,27.4250262 L47.237766,30.2019895 L47.2382979,30.2286911 L52.2744681,31.5894241 Z" id="Fill-137" fill="#006BA6"></path>
                    <path d="M49.6979787,77.3546597 C49.6921277,77.3520419 49.6857447,77.3494241 49.6798936,77.3473298 C49.1756383,77.1536126 48.4490426,76.8562304 48.3729787,76.8242932 C48.3687234,76.8227225 48.3580851,76.818534 48.3580851,76.818534 C48.3985106,78.2227225 48.6144681,79.7169634 49.7735106,79.7169634 C50.6357447,79.7169634 51.0830851,77.9546597 51.1107447,77.8813613 C51.0830851,77.8687958 50.9458511,77.8190576 50.7740426,77.7557068 C50.4878723,77.6504712 50.077766,77.5002094 49.6979787,77.3546597" id="Fill-139" fill="#006BA6"></path>
                    <path d="M56.0144681,71.7417277 C56.0064894,70.417644 54.6506383,70.1815183 54.0144681,69.9380628 C54.0261702,69.9448691 54.0320213,69.9542932 54.0437234,69.9626702 C54.1070213,70.0061257 54.1612766,70.052199 54.2080851,70.0998429 C54.2240426,70.1155497 54.2415957,70.1286387 54.2548936,70.1443455 C54.3048936,70.2014136 54.3421277,70.2600524 54.3729787,70.3202618 C54.3814894,70.3380628 54.3905319,70.3558639 54.3974468,70.3736649 C54.4219149,70.4333508 54.4394681,70.4940838 54.446383,70.5553403 C54.4485106,70.5731414 54.4474468,70.5893717 54.4479787,70.6066492 C54.4548936,70.787801 54.3894681,70.9621466 54.2719149,71.1113613 C54.2341489,71.1574346 54.1958511,71.2024607 54.146383,71.2432984 C54.1235106,71.2626702 54.1001064,71.2809948 54.0756383,71.2987958 C53.9857447,71.3637173 53.8862766,71.422356 53.7708511,71.4590052 C53.7681915,71.4595288 53.7644681,71.4595288 53.7623404,71.4605759 C53.2740426,71.6139791 52.1235106,71.5165969 51.3048936,71.4563874 L51.333617,70.2893717 L51.3575532,69.2940838 L48.1729787,68.6239267 L48.2134043,70.2893717 L48.2378723,71.3029843 L48.2426596,71.4909424 C47.2868085,71.6291623 46.6830851,71.9286387 46.4373404,72.4417277 C46.0931915,73.1600524 46.2915957,74.0385864 47.3437234,74.4328272 C47.3426596,74.4317801 47.3426596,74.430733 47.3415957,74.4296859 C46.6043617,73.6359686 47.5910638,73.2396335 47.9740426,73.1333508 C47.9852128,73.1302094 48.0001064,73.1254974 48.0102128,73.1228796 C48.0969149,73.1003665 48.1915957,73.0956545 48.2814894,73.0809948 L48.2814894,73.087801 L48.3229787,74.7972251 L48.3229787,74.7987958 C48.3229787,74.7987958 48.3644681,74.8087435 48.4240426,74.8228796 C48.4282979,74.8239267 48.4330851,74.8249738 48.4373404,74.8260209 C48.5931915,74.8610995 48.8809574,74.9244503 49.0926596,74.9553403 C49.0995745,74.9563874 49.1112766,74.9584817 49.1192553,74.9595288 C49.4080851,75.0019372 50.3155319,75.1542932 50.5011702,75.1888482 C50.5080851,75.1904188 50.5224468,75.1935602 50.5298936,75.1951309 C50.6990426,75.2270681 51.0288298,75.2956545 51.1511702,75.3213089 C51.1793617,75.3275916 51.2107447,75.3333508 51.2107447,75.3333508 L51.2607447,73.248534 C52.1612766,73.3642408 53.1102128,73.4490576 54.0782979,73.2867539 C54.0798936,73.2867539 54.0852128,73.2851832 54.0868085,73.2851832 C54.2655319,73.2537696 56.0203191,72.8197382 56.0144681,71.7417277" id="Fill-141" fill="#006BA6"></path>
                    <polygon id="Fill-143" fill="#006BA6" points="24.6096809 47.1931937 25.3059574 47.9979058 26.9421277 46.652356 26.9421277 53.7424084 28.1139362 53.7424084 28.1139362 45.2340314 27.0623404 45.2340314"></polygon>
                    <path d="M34.2376596,48.5266492 C34.1525532,48.7428796 34.0302128,48.9313613 33.8717021,49.0915707 C33.7131915,49.2517801 33.5217021,49.3758639 33.297766,49.4643455 C33.0738298,49.5528272 32.8275532,49.5962827 32.5589362,49.5962827 C32.2903191,49.5962827 32.0461702,49.5523037 31.8264894,49.4643455 C31.6068085,49.3763874 31.4190426,49.2523037 31.2647872,49.0915707 C31.11,48.9313613 30.9903191,48.7428796 30.9046809,48.5266492 C30.8190426,48.3104188 30.7764894,48.0742932 30.7764894,47.8177487 C30.7764894,47.5533508 30.8190426,47.3088482 30.9046809,47.0847644 C30.9903191,46.8606806 31.1121277,46.668534 31.2706383,46.5083246 C31.4291489,46.3481152 31.6185106,46.2219372 31.8381915,46.1297906 C32.0578723,46.037644 32.3020213,45.9915707 32.5706383,45.9915707 C32.8392553,45.9915707 33.0834043,46.0397382 33.3030851,46.1360733 C33.522766,46.2318848 33.7121277,46.3627749 33.8706383,46.5266492 C34.0291489,46.6910471 34.1514894,46.8831937 34.2365957,47.1036126 C34.322234,47.3240314 34.3647872,47.5585864 34.3647872,47.8067539 C34.3658511,48.0701047 34.322766,48.3104188 34.2376596,48.5266492 M34.6908511,45.8109424 C34.4270213,45.5627749 34.1121277,45.368534 33.7467021,45.2282199 C33.3812766,45.0884293 32.9871277,45.0177487 32.5647872,45.0177487 C32.1424468,45.0177487 31.7488298,45.0858115 31.3828723,45.2219372 C31.0174468,45.3580628 30.7004255,45.5502094 30.4323404,45.7989005 C30.1642553,46.0470681 29.9552128,46.3454974 29.8046809,46.6941885 C29.6541489,47.0428796 29.5791489,47.429267 29.5791489,47.8538743 C29.5791489,48.2386911 29.6482979,48.594712 29.7860638,48.9235079 C29.9243617,49.2523037 30.1147872,49.5345026 30.3589362,49.7706283 C30.6025532,50.0067539 30.8865957,50.1910471 31.2115957,50.3235079 C31.5365957,50.4559686 31.8897872,50.5224607 32.2717021,50.5224607 C32.3610638,50.5224607 32.4562766,50.5156545 32.5578723,50.5036126 C32.6594681,50.4915707 32.7589362,50.4784817 32.8568085,50.4617277 C33.0679787,50.4219372 33.2344681,50.3653927 33.3562766,50.2936649 L33.3685106,50.3057068 L31.053617,53.7428796 L32.4546809,53.7428796 L34.7089362,50.2339791 C34.9525532,49.8418325 35.1514894,49.4570157 35.3057447,49.0805759 C35.46,48.7041361 35.5371277,48.2837173 35.5371277,47.8187958 C35.5371277,47.4182723 35.4621277,47.0454974 35.3115957,46.7015183 C35.1621277,46.3559686 34.9552128,46.0591099 34.6908511,45.8109424" id="Fill-145" fill="#006BA6"></path>
                    <path d="M64.2659043,50.8340838 L67.0010106,46.5681152 L67.0249468,46.5681152 L67.0249468,50.8340838 L64.2659043,50.8340838 Z M67.0249468,53.7424607 L68.1722872,53.7424607 L68.1722872,51.831466 L69.4180319,51.831466 L69.4180319,50.8340838 L68.1722872,50.8340838 L68.1722872,45.2340838 L66.7196277,45.2340838 L63.0446277,50.7738743 L63.0446277,51.831466 L67.0249468,51.831466 L67.0249468,53.7424607 Z" id="Fill-147" fill="#006BA6"></path>
                    <path d="M71.1714362,50.7200524 C71.2565426,50.5237173 71.3746277,50.3535602 71.5251596,50.2090576 C71.6751596,50.0656021 71.8544149,49.9525131 72.0623936,49.8729319 C72.2693085,49.7928272 72.4953723,49.7525131 72.7395213,49.7525131 C72.9836702,49.7525131 73.210266,49.7928272 73.4177128,49.8729319 C73.6246277,49.9525131 73.8017553,50.0650785 73.9485638,50.2090576 C74.0948404,50.3535602 74.2107979,50.5242408 74.2964362,50.7200524 C74.3815426,50.9163874 74.4240957,51.13 74.4240957,51.3629843 C74.4240957,51.6032984 74.3820745,51.8231937 74.2964362,52.0237173 C74.2107979,52.2247644 74.0948404,52.3943979 73.9485638,52.534712 C73.8017553,52.6745026 73.6246277,52.7849738 73.4177128,52.8650785 C73.210266,52.9451832 72.9836702,52.9854974 72.7395213,52.9854974 C72.4879255,52.9854974 72.2576064,52.9457068 72.0496277,52.8650785 C71.8427128,52.7844503 71.6634574,52.6745026 71.5129255,52.534712 C71.3618617,52.3943979 71.2464362,52.2242408 71.1645213,52.0237173 C71.0836702,51.8237173 71.0427128,51.6032984 71.0427128,51.3629843 C71.0432447,51.13 71.0857979,50.9163874 71.1714362,50.7200524 M71.4155851,47.9106283 C71.3459043,47.7415183 71.3113298,47.5608901 71.3113298,47.3676963 C71.3113298,47.1666492 71.3459043,46.9792147 71.4155851,46.8064398 C71.484734,46.6331414 71.5826064,46.4844503 71.709734,46.3598429 C71.8363298,46.2352356 71.9868617,46.1389005 72.1629255,46.0703141 C72.3384574,46.0017277 72.528883,45.9676963 72.7336702,45.9676963 C72.9294149,45.9676963 73.1129255,46.0022513 73.285266,46.0703141 C73.4570745,46.1389005 73.6060106,46.2352356 73.7320745,46.3598429 C73.8592021,46.4844503 73.9613298,46.6331414 74.0389894,46.8064398 C74.1166489,46.9786911 74.1549468,47.1666492 74.1549468,47.3676963 C74.1549468,47.5608901 74.1187766,47.7420419 74.0443085,47.9106283 C73.9714362,48.0797382 73.8687766,48.2263351 73.7379255,48.351466 C73.6076064,48.4760733 73.4565426,48.5745026 73.284734,48.6472775 C73.1123936,48.7195288 72.928883,48.7556545 72.7331383,48.7556545 C72.5283511,48.7556545 72.3379255,48.7195288 72.1623936,48.6472775 C71.9863298,48.5750262 71.8357979,48.4760733 71.7092021,48.351466 C71.5831383,48.2263351 71.485266,48.0797382 71.4155851,47.9106283 M70.6948404,53.2854974 C70.9592021,53.5017277 71.2687766,53.6687435 71.6230319,53.7849738 C71.9767553,53.9006806 72.3496277,53.9593194 72.7395213,53.9593194 C73.1310106,53.9593194 73.5012234,53.9006806 73.8512234,53.7849738 C74.2006915,53.6687435 74.5081383,53.5017277 74.7730319,53.2854974 C75.0373936,53.069267 75.2469681,52.8048691 75.4017553,52.4928272 C75.5560106,52.1807853 75.6336702,51.8237173 75.6336702,51.4231937 C75.6336702,51.1504188 75.591117,50.8943979 75.5049468,50.6540838 C75.4193085,50.4137696 75.303883,50.2017277 75.1576064,50.0163874 C75.0113298,49.8326178 74.8379255,49.6739791 74.6389894,49.5420419 C74.4395213,49.4095812 74.2251596,49.3158639 73.9975,49.2587958 L73.9975,49.2352356 C74.3889894,49.1064398 74.7076064,48.8708377 74.9560106,48.5263351 C75.2049468,48.1818325 75.3283511,47.7771204 75.3283511,47.3127225 C75.3283511,46.9603665 75.259734,46.6415183 75.1214362,46.3572251 C74.9831383,46.0734555 74.7969681,45.8331414 74.5655851,45.6368063 C74.3331383,45.4404712 74.0592021,45.2881152 73.7416489,45.1797382 C73.4235638,45.0724084 73.0900532,45.0179581 72.7400532,45.0179581 C72.3820745,45.0179581 72.0464362,45.0718848 71.7336702,45.1797382 C71.4203723,45.2881152 71.1448404,45.4446597 70.909734,45.6483246 C70.6730319,45.8530366 70.4863298,46.0975393 70.3480319,46.3818325 C70.2092021,46.6666492 70.1405851,46.9849738 70.1405851,47.3373298 C70.1405851,47.8101047 70.2645213,48.2106283 70.5129255,48.538377 C70.7607979,48.8671728 71.0804787,49.0996335 71.4709043,49.2357592 L71.4709043,49.2593194 C71.2512234,49.3237173 71.0421809,49.4179581 70.8427128,49.5420419 C70.6432447,49.6666492 70.4682447,49.8205759 70.3177128,50.0048691 C70.1666489,50.1891623 70.0490957,50.4017277 69.9634574,50.6415183 C69.8778191,50.8818325 69.834734,51.1425654 69.834734,51.4226702 C69.834734,51.8226702 69.9123936,52.1797382 70.0671809,52.4923037 C70.2209043,52.8048691 70.4299468,53.069267 70.6948404,53.2854974" id="Fill-149" fill="#006BA6"></path>
                </g>
            </g>
        </g>
    </g>
</svg>