<?xml version="1.0" encoding="UTF-8"?>
<svg width="35px" height="35px" viewBox="0 0 35 35" version="1.1" xmlns="http://www.w3.org/2000/svg" xmlns:xlink="http://www.w3.org/1999/xlink">
    <!-- Generator: Sketch 52.6 (67491) - http://www.bohemiancoding.com/sketch -->
    <title>Round Button</title>
    <desc>Created with Sketch.</desc>
    <defs>
        <path d="M30,8 L29.0473214,16.2276786 L27.0464286,14.2267857 L23.2723214,18 L20,14.7276786 L23.7732143,10.9544643 L21.7723214,8.95267857 L30,8 Z M10.9547281,23.7726583 L14.7282793,20 L18,23.2717207 L14.2273417,27.0452719 L16.2284133,29.0463434 L8,30 L8.95365658,21.7715867 L10.9547281,23.7726583 Z M20,23.2781753 L23.2781753,20 L27.0402504,23.7620751 L29.0447227,21.7576029 L30,30 L21.7576029,29.0456172 L23.7620751,27.0402504 L20,23.2781753 Z M8,8 L16.2276786,8.95267857 L14.2267857,10.9544643 L18,14.7276786 L14.7276786,18 L10.9544643,14.2267857 L8.95357143,16.2276786 L8,8 Z" id="path-1"></path>
    </defs>
    <g id="Round-Button" stroke="none" stroke-width="1" fill="none" fill-rule="evenodd">
        <g id="color/@white" transform="translate(-3.000000, -3.000000)" fill="#FFFFFF">
            <rect id="Rectangle" x="0" y="0" width="41" height="41"></rect>
        </g>
        <g id="Icon/Expand/On" transform="translate(-1.000000, -1.000000)">
            <mask id="mask-2" fill="white">
                <use xlink:href="#path-1"></use>
            </mask>
            <use id="Combined-Shape" fill="#FFFFFF" fill-rule="evenodd" xlink:href="#path-1"></use>
            <g id="color/@blue" mask="url(#mask-2)" fill="#006BA6" fill-rule="evenodd">
                <g transform="translate(-1.000000, -1.000000)" id="Rectangle">
                    <rect x="0" y="0" width="39" height="39"></rect>
                </g>
            </g>
        </g>
    </g>
</svg>