<?xml version="1.0" encoding="UTF-8"?>
<svg width="25px" height="29px" viewBox="0 0 25 29" version="1.1" xmlns="http://www.w3.org/2000/svg" xmlns:xlink="http://www.w3.org/1999/xlink">
    <!-- Generator: Sketch 53.2 (72643) - https://sketchapp.com -->
    <title>speakerOff</title>
    <desc>Created with Sketch.</desc>
    <g id="Page-1" stroke="none" stroke-width="1" fill="none" fill-rule="evenodd">
        <g id="speakerOff" transform="translate(1.000000, 1.536979)">
            <path d="M12.155,3.00105003 C11.93,2.99005003 11.704,3.06605003 11.547,3.20205003 L5.897,8.77405003 L1.119,8.77405003 C0.501,8.77405003 0,9.27505003 0,9.89405003 L0,14.60605 C0,15.22605 0.501,15.72705 1.119,15.72705 L5.899,15.72705 L11.547,21.29805 C11.704,21.43605 11.93,21.51205 12.155,21.49905 C12.391,21.49705 12.748,21.25905 12.748,21.25905 L12.748,3.23905003 C12.748,3.23905003 12.391,3.00505003 12.155,3.00105003" id="speaker" fill-opacity="0.6" fill="#006BA6"></path>
            <path d="M28,12.9630209 L-5,12.9630209" id="Line" stroke="#A5A5A5" stroke-width="2" stroke-linecap="round" stroke-linejoin="round" transform="translate(11.500000, 12.963021) rotate(130.000000) translate(-11.500000, -12.963021) "></path>
        </g>
    </g>
</svg>