<?xml version="1.0" encoding="UTF-8"?>
<svg width="35px" height="35px" viewBox="0 0 35 35" version="1.1" xmlns="http://www.w3.org/2000/svg" xmlns:xlink="http://www.w3.org/1999/xlink">
    <!-- Generator: Sketch 52.6 (67491) - http://www.bohemiancoding.com/sketch -->
    <title>camera</title>
    <desc>Created with Sketch.</desc>
    <defs>
        <path d="M15.8434858,12.0048155 L15.8434858,12.0021313 C13.5496858,12.0021313 11.2567704,11.995868 8.96473963,12.0048155 C7.66878243,12.0092893 7.02566919,12.5998264 7.01593846,13.8846919 C6.99205392,16.9698008 6.99647698,20.0558045 7.01947691,23.1409134 C7.02832303,24.3345141 7.65462863,24.9456305 8.84089389,24.9841049 C9.73523705,25.012737 10.6304648,24.9939472 11.5256926,24.9939472 C15.2446032,24.9939472 18.9635139,25.0002105 22.6824245,24.9894734 C24.0491507,24.9858944 24.586995,24.4463582 24.5878796,23.1391239 C24.5887643,20.054015 24.5878796,16.9680113 24.5878796,13.8829024 C24.5887643,12.5497202 24.0659583,12.0119735 22.7213474,12.006605 C20.4293166,11.9985522 18.1364012,12.0048155 15.8434858,12.0048155 M29.9849,18.1034531 C29.9849,16.5975835 29.964554,15.0917139 29.9937462,13.5867391 C30.0079,12.8745156 29.6169013,12.6356165 29.0330571,12.6919859 C28.7119428,12.7233023 28.3589824,12.9022529 28.1086371,13.1187832 C27.2647168,13.848007 26.4429119,14.6067577 25.6520684,15.3941405 C25.4503768,15.59546 25.2982234,15.9435189 25.2893773,16.2289452 C25.251339,17.5147055 25.2637235,18.8022553 25.2814158,20.0889103 C25.2849542,20.3197567 25.3212233,20.6150252 25.4618767,20.768028 C26.294297,21.6681497 27.1240635,22.5807979 28.0422912,23.3869705 C28.3200595,23.6312381 28.9039037,23.6768705 29.30021,23.591869 C29.8097468,23.4827091 30.0158615,23.0398063 29.9990538,22.457322 C29.9583617,21.0069271 29.9849,19.5547427 29.9849,18.1034531" id="path-1"></path>
    </defs>
    <g id="Symbols" stroke="none" stroke-width="1" fill="none" fill-rule="evenodd">
        <g id="leftBar" transform="translate(-15.000000, -30.000000)">
            <g id="Round-Button" transform="translate(15.000000, 30.000000)">
                <g id="color/@white" transform="translate(-3.000000, -3.000000)" fill="#FFFFFF" fill-rule="evenodd">
                    <rect id="Rectangle" x="0" y="0" width="41" height="41"></rect>
                </g>
                <g id="Icon/Camera/on" transform="translate(-1.000000, -1.000000)">
                    <mask id="mask-2" fill="white">
                        <use xlink:href="#path-1"></use>
                    </mask>
                    <use id="Fill-1" fill="#FFFFFF" fill-rule="evenodd" xlink:href="#path-1"></use>
                    <g id="color/@blue" mask="url(#mask-2)" fill="#006BA6" fill-rule="evenodd">
                        <g transform="translate(-1.000000, -1.000000)" id="Rectangle">
                            <rect x="0" y="0" width="39" height="39"></rect>
                        </g>
                    </g>
                </g>
            </g>
        </g>
    </g>
</svg>