<?xml version="1.0" encoding="UTF-8"?>
<svg width="65px" height="878px" viewBox="0 0 65 878" version="1.1" xmlns="http://www.w3.org/2000/svg" xmlns:xlink="http://www.w3.org/1999/xlink">
    <!-- Generator: Sketch 52.6 (67491) - http://www.bohemiancoding.com/sketch -->
    <title>leftBar</title>
    <desc>Created with Sketch.</desc>
    <defs>
        <circle id="path-1" cx="17.5" cy="17.5" r="17.5"></circle>
        <path d="M30,8 L29.0473214,16.2276786 L27.0464286,14.2267857 L23.2723214,18 L20,14.7276786 L23.7732143,10.9544643 L21.7723214,8.95267857 L30,8 Z M10.9547281,23.7726583 L14.7282793,20 L18,23.2717207 L14.2273417,27.0452719 L16.2284133,29.0463434 L8,30 L8.95365658,21.7715867 L10.9547281,23.7726583 Z M20,23.2781753 L23.2781753,20 L27.0402504,23.7620751 L29.0447227,21.7576029 L30,30 L21.7576029,29.0456172 L23.7620751,27.0402504 L20,23.2781753 Z M8,8 L16.2276786,8.95267857 L14.2267857,10.9544643 L18,14.7276786 L14.7276786,18 L10.9544643,14.2267857 L8.95357143,16.2276786 L8,8 Z" id="path-3"></path>
        <circle id="path-5" cx="17.5" cy="17.5" r="17.5"></circle>
        <path d="M22.90797,23.44719 C22.69237,24.38989 23.27647,25.34249 24.24667,25.56359 C24.70757,25.66919 25.17727,25.58669 25.57767,25.33589 C25.97917,25.08179 26.25747,24.68909 26.36087,24.22489 C26.55777,23.35259 26.07377,22.46709 25.22787,22.16459 C25.16297,22.14259 25.09257,22.12389 25.02437,22.10629 C24.07397,21.89619 23.12027,22.49569 22.90797,23.44719 Z M26.48847,26.78129 C26.45657,26.79889 26.42027,26.80989 26.38727,26.83079 L26.54237,28.48299 L24.59867,28.85699 L24.12237,27.26309 C24.03767,27.24989 23.95407,27.24769 23.86827,27.23009 C23.72967,27.19819 23.59327,27.15969 23.46127,27.11239 C23.02897,26.95729 22.64947,26.72189 22.32387,26.43149 L20.80587,27.08709 L19.84997,25.35239 L21.20957,24.41629 C21.13477,23.97959 21.13807,23.52639 21.23927,23.07319 C21.28987,22.85209 21.36357,22.63979 21.45157,22.43959 L20.36367,21.20209 L21.71337,19.75449 L23.03887,20.76759 C23.61857,20.46289 24.28407,20.32539 24.97047,20.39029 L25.81967,18.95919 L27.61157,19.79739 L27.06157,21.36489 C27.54337,21.83569 27.87227,22.43519 28.01747,23.09299 L29.64327,23.45599 L29.39687,25.42169 L27.74027,25.38099 C27.46087,25.94749 27.03737,26.43369 26.48847,26.78129 Z M14.36152,18.3125 C15.13812,18.5897 15.97742,18.549 16.72432,18.1926 C17.47012,17.8395 18.03222,17.2169 18.31052,16.4392 C18.58772,15.6637 18.54702,14.8255 18.19172,14.0775 C17.83862,13.3328 17.21602,12.7696 16.44052,12.4924 C15.66392,12.2152 14.82352,12.2559 14.07882,12.6079 C13.33082,12.9632 12.76762,13.5858 12.49042,14.3635 C12.21212,15.139 12.25502,15.9794 12.60812,16.723 C12.96342,17.4699 13.58602,18.0353 14.36152,18.3125 Z M20.03642,18.4753 C19.72732,18.9417 19.35332,19.3586 18.91992,19.7106 L19.61292,21.6532 L17.56692,22.6201 L16.50542,20.8524 C15.95652,20.9657 15.39772,20.9943 14.84002,20.936 L13.96002,22.8005 L11.82602,22.0404 L12.32542,20.0373 C11.85902,19.7304 11.44542,19.3542 11.09122,18.9208 L9.14972,19.6149 L8.17842,17.5689 L9.94832,16.5052 C9.83722,15.9574 9.80862,15.3975 9.86472,14.8431 L8.00022,13.9598 L8.76032,11.828 L10.76452,12.3274 C11.07252,11.861 11.44872,11.4463 11.88102,11.0921 L11.18472,9.1517 L13.23402,8.1804 L14.29442,9.9481 C14.84442,9.837 15.40102,9.8073 15.95872,9.8667 L16.84202,8 L18.97162,8.7601 L18.47332,10.7632 C18.94082,11.0723 19.35552,11.4485 19.70972,11.8819 L21.65232,11.1878 L22.62032,13.2294 L20.85152,14.2953 C20.96592,14.8431 20.99232,15.403 20.93732,15.9618 L22.80072,16.8407 L22.03952,18.9725 L20.03642,18.4753 Z" id="path-7"></path>
        <circle id="path-9" cx="17.5" cy="17.5" r="17.5"></circle>
        <path d="M28.5056647,22.4861539 L28.5056647,12.7561475 C28.5056647,12.3060959 28.1044932,11.9376503 27.6141051,11.9376503 L10.1227858,11.9376503 C9.63239769,11.9376503 9.23122621,12.3060959 9.23122621,12.7561475 L9.23122621,22.4861539 C9.23122621,22.9362055 9.63239769,23.30526 10.1227858,23.30526 L27.6141051,23.30526 C28.1044932,23.30526 28.5056647,22.9362055 28.5056647,22.4861539 Z M8.10663976,10 L29.8131393,10 C30.4223232,10 30.9197791,10.4924465 30.9197791,11.0940333 L30.9197791,24.442029 C30.9197791,25.0436159 30.4223232,25.5360623 29.8131393,25.5360623 L21.7680544,25.5360623 L22.2309278,27.0410305 L23.4326694,27.0410305 L23.4326694,27.9897625 L14.4871096,27.9897625 L14.4871096,27.0410305 L15.6895163,27.0410305 L16.3831613,25.5360623 L8.10663976,25.5360623 C7.4981209,25.5360623 7,25.0436159 7,24.442029 L7,11.0940333 C7,10.4924465 7.4981209,10 8.10663976,10 Z M25,16.3895871 L20.7444577,20.7791741 L20.7444577,18.3748101 C20.7444577,18.3748101 18.9497261,18.2477558 18.2535229,18.2249689 C16.7580248,18.1766331 15.8931262,19.9332965 17.1362506,20.936611 C17.5713776,21.2873912 18.9544121,22 18.9544121,22 C18.9544121,22 15.7023397,21.5290706 14.6727623,21.1099296 C12.0700332,20.0506836 12.5105157,16.5774064 15.9527051,15.2039774 C17.3082931,14.6626157 20.7444577,14.65502 20.7444577,14.65502 L20.7444577,12 L25,16.3895871 Z" id="path-11"></path>
        <circle id="path-13" cx="17.5" cy="17.5" r="17.5"></circle>
        <path d="M25.097,20 C25.097,23.331 22.962,25.674 19.682,26.112 L19.682,29.944 C19.682,30.497 19.235,30.944 18.682,30.944 C18.129,30.944 17.682,30.497 17.682,29.944 L17.682,26.134 C14.79,25.78 12,23.659 12,20 C12,19.447 12.448,19 13,19 C13.553,19 14,19.447 14,20 C14,22.753 16.285,24.193 18.543,24.193 C20.744,24.193 23.097,23.092 23.097,20 C23.097,19.447 23.544,19 24.097,19 C24.65,19 25.097,19.447 25.097,20 Z M18.691,22.949 C16.661,22.949 15,21.288 15,19.257 L15,10.692 C15,8.661 16.661,7 18.691,7 C20.722,7 22.383,8.661 22.383,10.692 L22.383,19.257 C22.383,21.288 20.722,22.949 18.691,22.949 Z" id="path-15"></path>
        <circle id="path-17" cx="17.5" cy="17.5" r="17.5"></circle>
        <path d="M12.3186,24.2198 L8.0006,24.2198 C7.4476,24.2198 7.0006,23.7718 7.0006,23.2198 L7.0006,14.1718 C7.0006,13.6198 7.4476,13.1718 8.0006,13.1718 L12.3186,13.1718 C12.8706,13.1718 13.3186,13.6198 13.3186,14.1718 L13.3186,23.2198 C13.3186,23.7718 12.8706,24.2198 12.3186,24.2198 Z M18.5686,10.2969 C19.2576,9.6619 20.4356,10.1119 20.4356,11.0089 L20.4356,26.1899 C20.4356,27.0869 19.2576,27.5359 18.5686,26.9009 L14.1936,23.8809 L14.1936,13.3179 L18.5686,10.2969 Z M23.0363,15.0235 C24.9983,16.9855 25.0063,20.1675 23.0663,22.1425 C22.9483,22.2755 22.7813,22.3635 22.5903,22.3635 C22.2343,22.3635 21.9453,22.0745 21.9453,21.7185 C21.9453,21.5395 22.0193,21.3775 22.1393,21.2605 C23.6003,19.7885 23.5983,17.3995 22.1293,15.9305 L22.1313,15.9285 C22.0133,15.8125 21.9393,15.6525 21.9393,15.4745 C21.9393,15.1215 22.2263,14.8355 22.5793,14.8355 C22.7583,14.8355 23.0363,15.0235 23.0363,15.0235 Z M25.5344,12.5254 C28.8844,15.8764 28.8844,21.3244 25.5364,24.6734 C25.3914,24.8204 25.1914,24.9114 24.9694,24.9114 C24.5274,24.9114 24.1694,24.5534 24.1694,24.1124 C24.1694,23.8904 24.2594,23.6914 24.4034,23.5464 L24.4004,23.5434 L24.4004,23.5424 C27.1254,20.8184 27.1254,16.3844 24.3994,13.6594 L24.4034,13.6564 C24.2614,13.5114 24.1724,13.3134 24.1724,13.0944 C24.1724,12.6534 24.5294,12.2954 24.9714,12.2954 C25.1904,12.2954 25.3884,12.3834 25.5334,12.5264 L25.5344,12.5254 Z M27.8381,26.9571 C27.8351,26.9611 27.8321,26.9641 27.8291,26.9681 C27.8281,26.9681 27.8281,26.9691 27.8271,26.9691 L27.8271,26.9701 L27.8261,26.9691 C27.6821,27.1101 27.4851,27.1991 27.2681,27.1991 C26.8261,27.1991 26.4681,26.8411 26.4681,26.3991 C26.4681,26.1821 26.5571,25.9841 26.6981,25.8411 L26.6921,25.8351 L26.6931,25.8351 C30.6821,21.8471 30.6821,15.3561 26.6921,11.3661 L26.6951,11.3631 C26.5521,11.2191 26.4631,11.0191 26.4631,10.8001 C26.4631,10.3581 26.8201,10.0001 27.2621,10.0001 C27.4831,10.0001 27.6821,10.0891 27.8261,10.2331 L27.8271,10.2321 C32.4381,14.8441 32.4411,22.3431 27.8381,26.9571 Z" id="path-19"></path>
        <circle id="path-21" cx="17.5" cy="17.5" r="17.5"></circle>
        <path d="M15.8434858,12.0048155 L15.8434858,12.0021313 C13.5496858,12.0021313 11.2567704,11.995868 8.96473963,12.0048155 C7.66878243,12.0092893 7.02566919,12.5998264 7.01593846,13.8846919 C6.99205392,16.9698008 6.99647698,20.0558045 7.01947691,23.1409134 C7.02832303,24.3345141 7.65462863,24.9456305 8.84089389,24.9841049 C9.73523705,25.012737 10.6304648,24.9939472 11.5256926,24.9939472 C15.2446032,24.9939472 18.9635139,25.0002105 22.6824245,24.9894734 C24.0491507,24.9858944 24.586995,24.4463582 24.5878796,23.1391239 C24.5887643,20.054015 24.5878796,16.9680113 24.5878796,13.8829024 C24.5887643,12.5497202 24.0659583,12.0119735 22.7213474,12.006605 C20.4293166,11.9985522 18.1364012,12.0048155 15.8434858,12.0048155 M29.9849,18.1034531 C29.9849,16.5975835 29.964554,15.0917139 29.9937462,13.5867391 C30.0079,12.8745156 29.6169013,12.6356165 29.0330571,12.6919859 C28.7119428,12.7233023 28.3589824,12.9022529 28.1086371,13.1187832 C27.2647168,13.848007 26.4429119,14.6067577 25.6520684,15.3941405 C25.4503768,15.59546 25.2982234,15.9435189 25.2893773,16.2289452 C25.251339,17.5147055 25.2637235,18.8022553 25.2814158,20.0889103 C25.2849542,20.3197567 25.3212233,20.6150252 25.4618767,20.768028 C26.294297,21.6681497 27.1240635,22.5807979 28.0422912,23.3869705 C28.3200595,23.6312381 28.9039037,23.6768705 29.30021,23.591869 C29.8097468,23.4827091 30.0158615,23.0398063 29.9990538,22.457322 C29.9583617,21.0069271 29.9849,19.5547427 29.9849,18.1034531" id="path-23"></path>
    </defs>
    <g id="leftBar" stroke="none" stroke-width="1" fill="none" fill-rule="evenodd">
        <rect id="Rectangle" fill-opacity="0.95" fill="#323232" x="0" y="0" width="65" height="878"></rect>
        <g id="Round-Button" transform="translate(15.000000, 328.000000)">
            <mask id="mask-2" fill="white">
                <use xlink:href="#path-1"></use>
            </mask>
            <use id="Oval" fill="#9D291F" fill-rule="evenodd" xlink:href="#path-1"></use>
            <g id="color/@white" mask="url(#mask-2)" fill="#FFFFFF" fill-rule="evenodd">
                <g transform="translate(-3.000000, -3.000000)" id="Rectangle">
                    <rect x="0" y="0" width="41" height="41"></rect>
                </g>
            </g>
            <g id="Icon/Expand/On" mask="url(#mask-2)">
                <g transform="translate(-1.000000, -1.000000)">
                    <mask id="mask-4" fill="white">
                        <use xlink:href="#path-3"></use>
                    </mask>
                    <use id="Combined-Shape" stroke="none" fill="#FFFFFF" fill-rule="evenodd" xlink:href="#path-3"></use>
                    <g id="color/@blue" stroke="none" fill="none" mask="url(#mask-4)" fill-rule="evenodd">
                        <g transform="translate(-1.000000, -1.000000)" fill="#006BA6" id="Rectangle">
                            <rect x="0" y="0" width="39" height="39"></rect>
                        </g>
                    </g>
                </g>
            </g>
        </g>
        <g id="Round-Button" transform="translate(15.000000, 403.000000)">
            <mask id="mask-6" fill="white">
                <use xlink:href="#path-5"></use>
            </mask>
            <use id="Oval" fill="#9D291F" fill-rule="evenodd" xlink:href="#path-5"></use>
            <g id="color/@white" mask="url(#mask-6)" fill="#FFFFFF" fill-rule="evenodd">
                <g transform="translate(-3.000000, -3.000000)" id="Rectangle">
                    <rect x="0" y="0" width="41" height="41"></rect>
                </g>
            </g>
            <g id="Icon/Settings" mask="url(#mask-6)">
                <g transform="translate(-1.000000, -1.000000)">
                    <mask id="mask-8" fill="white">
                        <use xlink:href="#path-7"></use>
                    </mask>
                    <use id="Combined-Shape" stroke="none" fill="#231F20" fill-rule="evenodd" xlink:href="#path-7"></use>
                    <g id="color/@blue" stroke="none" fill="none" mask="url(#mask-8)" fill-rule="evenodd">
                        <g transform="translate(-1.000000, -1.000000)" fill="#006BA6" id="Rectangle">
                            <rect x="0" y="0" width="39" height="39"></rect>
                        </g>
                    </g>
                </g>
            </g>
        </g>
        <g id="Round-Button" transform="translate(15.000000, 257.000000)">
            <mask id="mask-10" fill="white">
                <use xlink:href="#path-9"></use>
            </mask>
            <use id="Oval" fill="#9D291F" fill-rule="evenodd" xlink:href="#path-9"></use>
            <g id="color/@white" mask="url(#mask-10)" fill="#FFFFFF" fill-rule="evenodd">
                <g transform="translate(-3.000000, -3.000000)" id="Rectangle">
                    <rect x="0" y="0" width="41" height="41"></rect>
                </g>
            </g>
            <g id="Icon/Share/on" mask="url(#mask-10)">
                <g transform="translate(-1.000000, -1.000000)">
                    <mask id="mask-12" fill="white">
                        <use xlink:href="#path-11"></use>
                    </mask>
                    <use id="Combined-Shape" stroke="none" fill="#FFFFFF" fill-rule="evenodd" xlink:href="#path-11"></use>
                    <g id="color/@blue" stroke="none" fill="none" mask="url(#mask-12)" fill-rule="evenodd">
                        <g transform="translate(-1.000000, -1.000000)" fill="#006BA6" id="Rectangle">
                            <rect x="0" y="0" width="39" height="39"></rect>
                        </g>
                    </g>
                </g>
            </g>
        </g>
        <g id="Round-Button" transform="translate(15.000000, 180.000000)">
            <mask id="mask-14" fill="white">
                <use xlink:href="#path-13"></use>
            </mask>
            <use id="Oval" fill="#9D291F" fill-rule="evenodd" xlink:href="#path-13"></use>
            <g id="color/@white" mask="url(#mask-14)" fill="#FFFFFF" fill-rule="evenodd">
                <g transform="translate(-3.000000, -3.000000)" id="Rectangle">
                    <rect x="0" y="0" width="41" height="41"></rect>
                </g>
            </g>
            <g id="Icon/Microphone/On" mask="url(#mask-14)">
                <g transform="translate(-1.000000, -1.000000)">
                    <mask id="mask-16" fill="white">
                        <use xlink:href="#path-15"></use>
                    </mask>
                    <use id="Combined-Shape" stroke="none" fill="#FFFFFF" fill-rule="evenodd" xlink:href="#path-15"></use>
                    <g id="color/@blue" stroke="none" fill="none" mask="url(#mask-16)" fill-rule="evenodd">
                        <g transform="translate(-1.000000, -1.000000)" fill="#006BA6" id="Rectangle">
                            <rect x="0" y="0" width="39" height="39"></rect>
                        </g>
                    </g>
                </g>
            </g>
        </g>
        <g id="Round-Button" transform="translate(15.000000, 105.000000)">
            <mask id="mask-18" fill="white">
                <use xlink:href="#path-17"></use>
            </mask>
            <use id="Oval" fill="#9D291F" fill-rule="evenodd" xlink:href="#path-17"></use>
            <g id="color/@white" mask="url(#mask-18)" fill="#FFFFFF" fill-rule="evenodd">
                <g transform="translate(-3.000000, -3.000000)" id="Rectangle">
                    <rect x="0" y="0" width="41" height="41"></rect>
                </g>
            </g>
            <g id="Icon/Speaker/On" mask="url(#mask-18)">
                <g transform="translate(-1.000000, -1.000000)">
                    <mask id="mask-20" fill="white">
                        <use xlink:href="#path-19"></use>
                    </mask>
                    <use id="Combined-Shape" stroke="none" fill="#FFFFFF" fill-rule="evenodd" xlink:href="#path-19"></use>
                    <g id="color/@blue" stroke="none" fill="none" mask="url(#mask-20)" fill-rule="evenodd">
                        <g transform="translate(-1.000000, -1.000000)" fill="#006BA6" id="Rectangle">
                            <rect x="0" y="0" width="39" height="39"></rect>
                        </g>
                    </g>
                </g>
            </g>
        </g>
        <g id="Round-Button" transform="translate(15.000000, 30.000000)">
            <mask id="mask-22" fill="white">
                <use xlink:href="#path-21"></use>
            </mask>
            <use id="Oval" fill="#9D291F" fill-rule="evenodd" xlink:href="#path-21"></use>
            <g id="color/@white" mask="url(#mask-22)" fill="#FFFFFF" fill-rule="evenodd">
                <g transform="translate(-3.000000, -3.000000)" id="Rectangle">
                    <rect x="0" y="0" width="41" height="41"></rect>
                </g>
            </g>
            <g id="Icon/Camera/on" mask="url(#mask-22)">
                <g transform="translate(-1.000000, -1.000000)">
                    <mask id="mask-24" fill="white">
                        <use xlink:href="#path-23"></use>
                    </mask>
                    <use id="Fill-1" stroke="none" fill="#FFFFFF" fill-rule="evenodd" xlink:href="#path-23"></use>
                    <g id="color/@blue" stroke="none" fill="none" mask="url(#mask-24)" fill-rule="evenodd">
                        <g transform="translate(-1.000000, -1.000000)" fill="#006BA6" id="Rectangle">
                            <rect x="0" y="0" width="39" height="39"></rect>
                        </g>
                    </g>
                </g>
            </g>
        </g>
    </g>
</svg>