<?xml version="1.0" encoding="UTF-8"?>
<svg width="35px" height="35px" viewBox="0 0 35 35" version="1.1" xmlns="http://www.w3.org/2000/svg" xmlns:xlink="http://www.w3.org/1999/xlink">
    <!-- Generator: Sketch 52.6 (67491) - http://www.bohemiancoding.com/sketch -->
    <title>Round Button</title>
    <desc>Created with Sketch.</desc>
    <defs>
        <path d="M25.097,20 C25.097,23.331 22.962,25.674 19.682,26.112 L19.682,29.944 C19.682,30.497 19.235,30.944 18.682,30.944 C18.129,30.944 17.682,30.497 17.682,29.944 L17.682,26.134 C14.79,25.78 12,23.659 12,20 C12,19.447 12.448,19 13,19 C13.553,19 14,19.447 14,20 C14,22.753 16.285,24.193 18.543,24.193 C20.744,24.193 23.097,23.092 23.097,20 C23.097,19.447 23.544,19 24.097,19 C24.65,19 25.097,19.447 25.097,20 Z M18.691,22.949 C16.661,22.949 15,21.288 15,19.257 L15,10.692 C15,8.661 16.661,7 18.691,7 C20.722,7 22.383,8.661 22.383,10.692 L22.383,19.257 C22.383,21.288 20.722,22.949 18.691,22.949 Z" id="path-1"></path>
    </defs>
    <g id="Round-Button" stroke="none" stroke-width="1" fill="none" fill-rule="evenodd">
        <g id="color/@white" transform="translate(-3.000000, -3.000000)" fill="#FFFFFF">
            <rect id="Rectangle" x="0" y="0" width="41" height="41"></rect>
        </g>
        <g id="Icon/Microphone/On" transform="translate(-1.000000, -1.000000)">
            <mask id="mask-2" fill="white">
                <use xlink:href="#path-1"></use>
            </mask>
            <use id="Combined-Shape" fill="#FFFFFF" fill-rule="evenodd" xlink:href="#path-1"></use>
            <g id="color/@blue" mask="url(#mask-2)" fill="#006BA6" fill-rule="evenodd">
                <g transform="translate(-1.000000, -1.000000)" id="Rectangle">
                    <rect x="0" y="0" width="39" height="39"></rect>
                </g>
            </g>
        </g>
    </g>
</svg>