<?xml version="1.0" encoding="UTF-8"?>
<svg width="35px" height="35px" viewBox="0 0 35 35" version="1.1" xmlns="http://www.w3.org/2000/svg" xmlns:xlink="http://www.w3.org/1999/xlink">
    <!-- Generator: Sketch 52.6 (67491) - http://www.bohemiancoding.com/sketch -->
    <title>Round Button</title>
    <desc>Created with Sketch.</desc>
    <defs>
        <path d="M28.5056647,22.4861539 L28.5056647,12.7561475 C28.5056647,12.3060959 28.1044932,11.9376503 27.6141051,11.9376503 L10.1227858,11.9376503 C9.63239769,11.9376503 9.23122621,12.3060959 9.23122621,12.7561475 L9.23122621,22.4861539 C9.23122621,22.9362055 9.63239769,23.30526 10.1227858,23.30526 L27.6141051,23.30526 C28.1044932,23.30526 28.5056647,22.9362055 28.5056647,22.4861539 Z M8.10663976,10 L29.8131393,10 C30.4223232,10 30.9197791,10.4924465 30.9197791,11.0940333 L30.9197791,24.442029 C30.9197791,25.0436159 30.4223232,25.5360623 29.8131393,25.5360623 L21.7680544,25.5360623 L22.2309278,27.0410305 L23.4326694,27.0410305 L23.4326694,27.9897625 L14.4871096,27.9897625 L14.4871096,27.0410305 L15.6895163,27.0410305 L16.3831613,25.5360623 L8.10663976,25.5360623 C7.4981209,25.5360623 7,25.0436159 7,24.442029 L7,11.0940333 C7,10.4924465 7.4981209,10 8.10663976,10 Z M25,16.3895871 L20.7444577,20.7791741 L20.7444577,18.3748101 C20.7444577,18.3748101 18.9497261,18.2477558 18.2535229,18.2249689 C16.7580248,18.1766331 15.8931262,19.9332965 17.1362506,20.936611 C17.5713776,21.2873912 18.9544121,22 18.9544121,22 C18.9544121,22 15.7023397,21.5290706 14.6727623,21.1099296 C12.0700332,20.0506836 12.5105157,16.5774064 15.9527051,15.2039774 C17.3082931,14.6626157 20.7444577,14.65502 20.7444577,14.65502 L20.7444577,12 L25,16.3895871 Z" id="path-1"></path>
    </defs>
    <g id="Round-Button" stroke="none" stroke-width="1" fill="none" fill-rule="evenodd">
        <g id="color/@white" transform="translate(-3.000000, -3.000000)" fill="#FFFFFF">
            <rect id="Rectangle" x="0" y="0" width="41" height="41"></rect>
        </g>
        <g id="Icon/Share/on" transform="translate(-1.000000, -1.000000)">
            <mask id="mask-2" fill="white">
                <use xlink:href="#path-1"></use>
            </mask>
            <use id="Combined-Shape" fill="#FFFFFF" fill-rule="evenodd" xlink:href="#path-1"></use>
            <g id="color/@blue" mask="url(#mask-2)" fill="#006BA6" fill-rule="evenodd">
                <g transform="translate(-1.000000, -1.000000)" id="Rectangle">
                    <rect x="0" y="0" width="39" height="39"></rect>
                </g>
            </g>
        </g>
    </g>
</svg>