<?xml version="1.0" encoding="UTF-8"?>
<svg width="80px" height="80px" viewBox="0 0 80 80" version="1.1" xmlns="http://www.w3.org/2000/svg" xmlns:xlink="http://www.w3.org/1999/xlink">
    <!-- Generator: Sketch 61.2 (89653) - https://sketch.com -->
    <title>Nexus 4</title>
    <desc>Created with Sketch.</desc>
    <defs>
        <polygon id="path-1" points="0.0007 0.2454 78.9137 0.2454 78.9137 80 0.0007 80"></polygon>
    </defs>
    <g id="Nexus-4" stroke="none" stroke-width="1" fill="none" fill-rule="evenodd">
        <g id="Group-152" transform="translate(0.000000, -1.000000)">
            <polygon id="Fill-1" fill="#006BA6" points="12.8259 15.7151 13.9539 18.1321 15.3059 16.6911"></polygon>
            <g id="Group-151" transform="translate(0.000000, 0.754500)">
                <path d="M6.8362,24.8844 C6.6902,24.8224 6.5542,24.8004 6.4312,24.8184 C6.3072,24.8364 6.1952,24.8824 6.0932,24.9554 C5.9922,25.0294 5.9012,25.1264 5.8192,25.2484 C5.7382,25.3704 5.6672,25.5054 5.6052,25.6524 L5.2542,26.4844 L6.8072,27.1384 L7.1382,26.3554 C7.2052,26.1954 7.2542,26.0404 7.2852,25.8914 C7.3152,25.7424 7.3222,25.6034 7.3032,25.4744 C7.2852,25.3444 7.2392,25.2304 7.1662,25.1294 C7.0922,25.0274 6.9822,24.9464 6.8362,24.8844" id="Fill-2" fill="#006BA6"></path>
                <path d="M56.4343,11.9308 C56.7033,12.1008 56.9763,12.2208 57.2543,12.2888 C57.5313,12.3578 57.7973,12.3728 58.0543,12.3348 C58.3103,12.2968 58.5503,12.2018 58.7763,12.0498 C59.0013,11.8978 59.1973,11.6888 59.3643,11.4248 C59.5393,11.1468 59.6473,10.8738 59.6873,10.6048 C59.7273,10.3368 59.7093,10.0788 59.6323,9.8328 C59.5543,9.5878 59.4253,9.3558 59.2423,9.1378 C59.0593,8.9188 58.8323,8.7248 58.5633,8.5558 L57.7813,8.0618 L55.6523,11.4378 L56.4343,11.9308 Z" id="Fill-4" fill="#006BA6"></path>
                <path d="M4.4035,34.3097 C4.3025,34.2367 4.1735,34.1897 4.0155,34.1697 C3.8575,34.1497 3.7215,34.1637 3.6075,34.2117 C3.4935,34.2607 3.3965,34.3337 3.3165,34.4307 C3.2365,34.5287 3.1735,34.6487 3.1275,34.7937 C3.0815,34.9387 3.0475,35.0977 3.0255,35.2697 L2.9245,36.0617 L4.6195,36.2767 L4.7185,35.4997 C4.7415,35.3227 4.7465,35.1567 4.7335,35.0017 C4.7205,34.8477 4.6875,34.7117 4.6345,34.5947 C4.5815,34.4777 4.5045,34.3827 4.4035,34.3097" id="Fill-6" fill="#006BA6"></path>
                <polygon id="Fill-8" fill="#006BA6" points="69.2112 18.7789 66.6182 19.4049 67.7632 21.0159"></polygon>
                <path d="M74.4319,37.6437 L74.4649,38.4937 C74.4709,38.6667 74.4929,38.8287 74.5279,38.9767 C74.5629,39.1237 74.6169,39.2527 74.6879,39.3627 C74.7589,39.4717 74.8499,39.5567 74.9589,39.6177 C75.0679,39.6777 75.2019,39.7047 75.3609,39.6987 C75.5199,39.6927 75.6519,39.6557 75.7559,39.5867 C75.8609,39.5187 75.9429,39.4297 76.0039,39.3197 C76.0639,39.2107 76.1059,39.0827 76.1279,38.9387 C76.1499,38.7927 76.1579,38.6417 76.1509,38.4817 L76.1169,37.5807 L74.4319,37.6437 Z" id="Fill-10" fill="#006BA6"></path>
                <path d="M75.5691,42.9171 C75.3981,42.7241 75.1901,42.5641 74.9481,42.4391 C74.7051,42.3141 74.4411,42.2341 74.1541,42.1991 C73.8621,42.1631 73.5831,42.1771 73.3151,42.2381 C73.0471,42.3011 72.8071,42.4061 72.5961,42.5561 C72.3841,42.7051 72.2101,42.8951 72.0711,43.1231 C71.9331,43.3521 71.8461,43.6161 71.8091,43.9181 C71.7721,44.2191 71.7921,44.5001 71.8711,44.7601 C71.9491,45.0201 72.0721,45.2481 72.2421,45.4431 C72.4101,45.6401 72.6171,45.8001 72.8621,45.9261 C73.1081,46.0511 73.3761,46.1321 73.6671,46.1671 C73.9541,46.2021 74.2291,46.1881 74.4951,46.1261 C74.7611,46.0631 75.0011,45.9571 75.2151,45.8091 C75.4281,45.6591 75.6061,45.4701 75.7471,45.2381 C75.8881,45.0081 75.9771,44.7391 76.0151,44.4341 C76.0521,44.1331 76.0291,43.8531 75.9481,43.5951 C75.8671,43.3371 75.7401,43.1111 75.5691,42.9171" id="Fill-12" fill="#006BA6"></path>
                <path d="M71.362,56.3761 C71.506,56.4441 71.639,56.4741 71.762,56.4641 C71.886,56.4531 72.001,56.4151 72.107,56.3481 C72.214,56.2791 72.312,56.1851 72.401,56.0621 C72.489,55.9391 72.571,55.7981 72.646,55.6421 L72.989,54.9211 L71.446,54.1861 L71.11,54.8941 C71.033,55.0551 70.976,55.2111 70.94,55.3621 C70.904,55.5131 70.893,55.6521 70.906,55.7791 C70.92,55.9071 70.964,56.0221 71.037,56.1221 C71.11,56.2231 71.218,56.3081 71.362,56.3761" id="Fill-14" fill="#006BA6"></path>
                <g id="Group-18">
                    <mask id="mask-2" fill="white">
                        <use xlink:href="#path-1"></use>
                    </mask>
                    <g id="Clip-17"></g>
                    <path d="M76.5017,39.8454 C76.3937,40.0214 76.2487,40.1624 76.0657,40.2694 C75.8837,40.3754 75.6577,40.4334 75.3897,40.4444 C75.0027,40.4584 74.6847,40.3514 74.4377,40.1214 C74.1897,39.8924 74.0257,39.5904 73.9477,39.2144 L71.5807,40.7824 L71.5467,39.8874 L73.8437,38.4564 L73.8137,37.6674 L71.4657,37.7564 L71.4377,37.0184 L76.7157,36.8174 L76.7797,38.5094 C76.7897,38.7624 76.7727,39.0044 76.7287,39.2354 C76.6847,39.4664 76.6087,39.6704 76.5017,39.8454 L76.5017,39.8454 Z M76.6587,44.5124 C76.6097,44.9124 76.4977,45.2744 76.3227,45.5984 C76.1477,45.9234 75.9247,46.1934 75.6557,46.4114 C75.3857,46.6294 75.0737,46.7874 74.7177,46.8864 C74.3627,46.9854 73.9797,47.0104 73.5697,46.9594 C73.1657,46.9104 72.8027,46.7944 72.4817,46.6114 C72.1607,46.4294 71.8937,46.2004 71.6787,45.9234 C71.4647,45.6464 71.3117,45.3294 71.2167,44.9714 C71.1237,44.6144 71.1007,44.2364 71.1497,43.8374 C71.1987,43.4364 71.3127,43.0754 71.4897,42.7544 C71.6667,42.4324 71.8927,42.1644 72.1677,41.9474 C72.4417,41.7294 72.7567,41.5734 73.1117,41.4764 C73.4667,41.3804 73.8467,41.3564 74.2517,41.4054 C74.6607,41.4564 75.0267,41.5714 75.3477,41.7514 C75.6687,41.9294 75.9337,42.1584 76.1427,42.4344 C76.3517,42.7114 76.5017,43.0264 76.5937,43.3814 C76.6867,43.7364 76.7077,44.1124 76.6587,44.5124 L76.6587,44.5124 Z M75.5747,49.5374 L72.4347,48.5814 C72.2627,48.5294 72.0867,48.4994 71.9047,48.4904 C71.7227,48.4814 71.5507,48.5064 71.3877,48.5634 C71.2247,48.6204 71.0787,48.7164 70.9497,48.8504 C70.8197,48.9854 70.7187,49.1724 70.6467,49.4104 C70.5757,49.6434 70.5567,49.8524 70.5877,50.0394 C70.6197,50.2254 70.6877,50.3874 70.7907,50.5254 C70.8937,50.6644 71.0237,50.7804 71.1797,50.8744 C71.3357,50.9694 71.4997,51.0424 71.6707,51.0944 L74.8107,52.0494 L74.5967,52.7564 L71.4127,51.7874 C71.1557,51.7094 70.9197,51.5944 70.7037,51.4424 C70.4867,51.2914 70.3107,51.1064 70.1737,50.8874 C70.0377,50.6704 69.9517,50.4204 69.9147,50.1384 C69.8777,49.8574 69.9107,49.5504 70.0117,49.2174 C70.1127,48.8844 70.2577,48.6104 70.4447,48.3964 C70.6317,48.1834 70.8427,48.0244 71.0777,47.9194 C71.3127,47.8134 71.5617,47.7594 71.8257,47.7534 C72.0897,47.7484 72.3507,47.7844 72.6067,47.8624 L75.7907,48.8314 L75.5747,49.5374 Z M73.1797,55.9774 C73.0577,56.2334 72.9207,56.4554 72.7687,56.6414 C72.6167,56.8284 72.4507,56.9694 72.2727,57.0664 C72.0947,57.1634 71.9027,57.2124 71.6987,57.2144 C71.4937,57.2164 71.2747,57.1614 71.0417,57.0504 C70.8037,56.9364 70.6207,56.7954 70.4917,56.6264 C70.3627,56.4584 70.2807,56.2704 70.2477,56.0634 C70.2127,55.8574 70.2207,55.6364 70.2717,55.3974 C70.3207,55.1604 70.4047,54.9174 70.5227,54.6714 L70.8817,53.9164 L68.7867,52.9194 L69.1047,52.2524 L73.8727,54.5224 L73.1797,55.9774 Z M39.4567,70.2614 C22.9447,70.2614 9.5127,56.6854 9.5127,39.9984 C9.5127,23.3124 22.9447,9.7364 39.4567,9.7364 C55.9677,9.7364 69.4007,23.3124 69.4007,39.9984 C69.4007,56.6854 55.9677,70.2614 39.4567,70.2614 L39.4567,70.2614 Z M7.0327,57.2364 L6.4437,57.5104 L4.7047,53.7694 L5.2937,53.4954 L6.0067,55.0314 L10.2077,53.0774 L10.5197,53.7474 L6.3187,55.7004 L7.0327,57.2364 Z M4.0127,51.7844 L6.1297,51.1594 L5.3737,48.5974 L3.2557,49.2224 L3.0437,48.5084 L8.1097,47.0124 L8.3207,47.7274 L6.0027,48.4124 L6.7587,50.9724 L9.0767,50.2884 L9.2867,50.9964 L4.2207,52.4924 L4.0127,51.7844 Z M2.2137,43.2484 L2.8557,43.1604 L3.2157,45.7834 L4.7827,45.5684 L4.4437,43.0994 L5.0727,43.0144 L5.4107,45.4824 L7.1547,45.2444 L6.7807,42.5104 L7.4307,42.4214 L7.9057,45.8874 L2.6727,46.6034 L2.2137,43.2484 Z M2.4137,35.1164 C2.4497,34.8354 2.5107,34.5834 2.5967,34.3584 C2.6827,34.1334 2.7947,33.9474 2.9347,33.8004 C3.0737,33.6524 3.2407,33.5454 3.4347,33.4804 C3.6277,33.4144 3.8537,33.3984 4.1097,33.4304 C4.3707,33.4644 4.5897,33.5404 4.7647,33.6604 C4.9397,33.7804 5.0757,33.9334 5.1727,34.1184 C5.2697,34.3034 5.3317,34.5174 5.3577,34.7594 C5.3847,35.0004 5.3807,35.2574 5.3467,35.5284 L5.2407,36.3564 L7.5427,36.6494 L7.4487,37.3824 L2.2097,36.7154 L2.4137,35.1164 Z M3.8317,28.5204 L4.4587,28.6884 L3.7747,31.2464 L5.3027,31.6554 L5.9457,29.2474 L6.5587,29.4114 L5.9157,31.8184 L7.6167,32.2724 L8.3297,29.6064 L8.9637,29.7754 L8.0607,33.1564 L2.9577,31.7924 L3.8317,28.5204 Z M5.0477,25.3604 C5.1467,25.1264 5.2647,24.9144 5.4007,24.7244 C5.5387,24.5334 5.6927,24.3814 5.8647,24.2684 C6.0367,24.1544 6.2287,24.0884 6.4387,24.0694 C6.6487,24.0504 6.8777,24.0924 7.1257,24.1974 C7.4827,24.3474 7.7247,24.5794 7.8527,24.8924 C7.9797,25.2054 7.9997,25.5484 7.9117,25.9214 L10.7197,25.5024 L10.3717,26.3274 L7.6857,26.6514 L7.3777,27.3804 L9.5427,28.2934 L9.2557,28.9734 L4.3897,26.9214 L5.0477,25.3604 Z M7.1037,21.1704 L11.3757,22.0204 L11.3827,22.0084 L8.8017,18.5114 L9.4187,17.5424 L13.8717,20.3834 L13.4747,21.0064 L9.7517,18.6304 L9.7437,18.6424 L12.5227,22.4964 L12.2707,22.8924 L7.6087,21.9884 L7.6007,22.0004 L11.3237,24.3764 L10.9387,24.9804 L6.4857,22.1384 L7.1037,21.1704 Z M12.4447,14.1124 L17.8487,16.0714 L17.2777,16.6804 L15.9637,16.1844 L14.2487,18.0124 L14.8337,19.2864 L14.2727,19.8854 L11.9857,14.6024 L12.4447,14.1124 Z M15.9947,10.8194 L20.7397,12.5324 L20.7517,12.5234 L18.2117,9.1504 L18.8017,8.7064 L21.9787,12.9254 L21.2327,13.4864 L16.4117,11.7194 L16.3997,11.7284 L18.9927,15.1734 L18.4027,15.6174 L15.2267,11.3984 L15.9947,10.8194 Z M23.4457,6.1094 L23.7517,6.6814 L21.4167,7.9294 L22.1627,9.3244 L24.3587,8.1504 L24.6577,8.7094 L22.4607,9.8844 L23.2907,11.4364 L25.7247,10.1354 L26.0347,10.7134 L22.9497,12.3634 L20.4597,7.7064 L23.4457,6.1094 Z M25.8787,5.0814 L29.8817,8.1504 L29.8967,8.1454 L28.4977,4.1614 L29.1937,3.9174 L30.9427,8.9004 L30.0637,9.2094 L26.0027,6.0654 L25.9887,6.0704 L27.4177,10.1384 L26.7207,10.3834 L24.9707,5.3994 L25.8787,5.0814 Z M34.5677,2.8194 L34.6877,3.4564 L33.0227,3.7684 L33.8757,8.3224 L33.1497,8.4574 L32.2967,3.9044 L30.6327,4.2164 L30.5127,3.5784 L34.5677,2.8194 Z M39.3177,2.5174 L39.3507,3.1654 L36.7057,3.3004 L36.7857,4.8794 L39.2737,4.7534 L39.3057,5.3864 L36.8177,5.5124 L36.9067,7.2704 L39.6637,7.1304 L39.6967,7.7864 L36.2027,7.9634 L35.9357,2.6884 L39.3177,2.5174 Z M45.8127,2.9974 L46.9267,3.2734 L47.4867,7.5924 L47.5017,7.5954 L49.9897,4.0314 L51.1057,4.3074 L49.8357,9.4344 L49.1197,9.2574 L50.1807,4.9704 L50.1657,4.9664 L47.4027,8.8324 L46.9467,8.7194 L46.3137,4.0124 L46.2997,4.0094 L45.2387,8.2964 L44.5437,8.1234 L45.8127,2.9974 Z M56.0017,6.3674 L55.7427,6.9624 L53.3147,5.9044 L52.6827,7.3544 L54.9667,8.3494 L54.7137,8.9304 L52.4297,7.9354 L51.7267,9.5494 L54.2567,10.6524 L53.9937,11.2544 L50.7867,9.8564 L52.8967,5.0144 L56.0017,6.3674 Z M59.0327,8.0924 C59.3177,8.2724 59.5777,8.4954 59.8107,8.7604 C60.0437,9.0254 60.2187,9.3204 60.3367,9.6474 C60.4537,9.9734 60.4947,10.3234 60.4597,10.6954 C60.4247,11.0674 60.2837,11.4514 60.0337,11.8464 C59.7927,12.2294 59.5117,12.5154 59.1927,12.7044 C58.8727,12.8944 58.5397,13.0074 58.1927,13.0444 C57.8467,13.0814 57.5017,13.0554 57.1587,12.9654 C56.8147,12.8754 56.5007,12.7404 56.2147,12.5594 L54.6817,11.5924 L57.4997,7.1254 L59.0327,8.0924 Z M63.0577,10.9574 L59.7587,15.0814 L59.1817,14.6204 L62.4807,10.4964 L63.0577,10.9574 Z M64.2767,12.8094 C64.6257,12.8154 64.9687,12.8914 65.3067,13.0374 C65.6447,13.1844 65.9567,13.3994 66.2427,13.6824 C66.3697,13.8084 66.4867,13.9494 66.5927,14.1034 C66.6987,14.2574 66.7867,14.4194 66.8577,14.5874 C66.9287,14.7564 66.9787,14.9254 67.0047,15.0954 C67.0317,15.2664 67.0337,15.4344 67.0097,15.5994 L66.2817,15.5074 C66.3147,15.2894 66.2907,15.0554 66.2047,14.8054 C66.1197,14.5564 65.9797,14.3354 65.7857,14.1434 C65.5657,13.9264 65.3307,13.7704 65.0767,13.6764 C64.8227,13.5824 64.5657,13.5434 64.3057,13.5584 C64.0457,13.5734 63.7927,13.6384 63.5447,13.7534 C63.2967,13.8694 63.0717,14.0294 62.8687,14.2334 C62.6587,14.4454 62.4957,14.6764 62.3787,14.9244 C62.2617,15.1724 62.1967,15.4254 62.1837,15.6814 C62.1707,15.9384 62.2127,16.1924 62.3107,16.4434 C62.4077,16.6944 62.5647,16.9274 62.7797,17.1404 C62.9917,17.3504 63.2267,17.4994 63.4827,17.5864 C63.7397,17.6734 64.0057,17.6914 64.2797,17.6414 L64.4147,18.3424 C64.0657,18.3964 63.7117,18.3684 63.3517,18.2594 C62.9907,18.1504 62.6437,17.9304 62.3127,17.6014 C62.0257,17.3184 61.8107,17.0074 61.6647,16.6704 C61.5197,16.3334 61.4457,15.9914 61.4446894,15.6424 C61.4437,15.2944 61.5137,14.9504 61.6547,14.6114 C61.7947,14.2714 62.0097,13.9564 62.2967,13.6674 C62.5867,13.3734 62.9027,13.1564 63.2437,13.0144 C63.5847,12.8724 63.9287,12.8034 64.2767,12.8094 L64.2767,12.8094 Z M69.7287,18.0264 L70.1177,18.5734 L67.1267,23.4814 L66.6427,22.8014 L67.3897,21.6114 L65.9377,19.5684 L64.5717,19.8884 L64.0967,19.2204 L69.7287,18.0264 Z M72.5667,22.6034 L68.4397,24.6914 L69.5027,26.7954 L68.9177,27.0914 L67.5207,24.3284 L72.2327,21.9454 L72.5667,22.6034 Z M74.1947,30.7364 C74.5567,30.8104 74.8797,30.9474 75.1647,31.1474 C75.4487,31.3484 75.6897,31.6034 75.8877,31.9154 C76.0847,32.2264 76.2227,32.5794 76.2997,32.9744 C76.3797,33.3894 76.3917,33.7714 76.3327,34.1194 C76.2737,34.4684 76.1627,34.7694 76.0007,35.0244 L75.3747,34.6214 C75.5147,34.4324 75.6127,34.2074 75.6687,33.9454 C75.7237,33.6834 75.7227,33.4044 75.6647,33.1064 C75.6057,32.8034 75.4977,32.5414 75.3397,32.3184 C75.1827,32.0954 74.9917,31.9174 74.7687,31.7834 C74.5447,31.6494 74.2977,31.5604 74.0287,31.5174 C73.7587,31.4734 73.4827,31.4794 73.1997,31.5344 C72.9117,31.5914 72.6497,31.6904 72.4147,31.8324 C72.1787,31.9744 71.9827,32.1494 71.8287,32.3564 C71.6737,32.5644 71.5667,32.8034 71.5077,33.0734 C71.4497,33.3434 71.4497,33.6314 71.5097,33.9394 C71.5577,34.1824 71.6237,34.4034 71.7077,34.5994 C71.7917,34.7964 71.8897,34.9614 72.0017,35.0974 L73.4437,34.8164 L73.2207,33.6664 L73.8347,33.5464 L74.1987,35.4134 L71.6877,35.9034 C71.4877,35.6584 71.3177,35.3824 71.1767,35.0754 C71.0357,34.7684 70.9277,34.4254 70.8537,34.0434 C70.7747,33.6384 70.7697,33.2534 70.8377,32.8874 C70.9057,32.5224 71.0367,32.1944 71.2307,31.9034 C71.4247,31.6124 71.6757,31.3654 71.9827,31.1634 C72.2907,30.9614 72.6457,30.8214 73.0447,30.7434 C73.4497,30.6644 73.8337,30.6624 74.1947,30.7364 L74.1947,30.7364 Z M67.3577,11.9274 C59.9057,4.3944 49.9967,0.2454 39.4567,0.2454 C28.9167,0.2454 19.0077,4.3944 11.5557,11.9274 C4.1037,19.4584 0.0007,29.4714 0.0007,40.1234 C0.0007,50.7734 4.1047,60.7874 11.5557,68.3194 C19.0077,75.8514 28.9167,80.0004 39.4567,80.0004 C49.9967,80.0004 59.9057,75.8514 67.3577,68.3194 C74.8097,60.7884 78.9137,50.7734 78.9137,40.1234 C78.9137,29.4714 74.8097,19.4584 67.3577,11.9274 L67.3577,11.9274 Z" id="Fill-16" fill="#006BA6" mask="url(#mask-2)"></path>
                </g>
                <path d="M38.2185,58.7785 C38.1335,58.7875 38.0525,58.7995 37.9755,58.8145 C37.6725,58.8995 36.8905,59.2185 37.4745,59.8565 C37.6565,59.9815 37.9295,60.0755 38.2515,60.1535 L38.2185,58.7785 Z" id="Fill-19" fill="#FFFFFF"></path>
                <path d="M59.4426,49.8224 C55.2696,49.9184 51.0596,50.4944 47.1796,51.5094 C51.0616,50.4994 55.2776,49.9224 59.4426,49.8224" id="Fill-21" fill="#FFFFFF"></path>
                <path d="M40.634,56.5275 L40.612,57.4655 C41.259,57.5145 42.17,57.5925 42.557,57.4695 C42.654,57.4345 42.734,57.3895 42.805,57.3395 C42.824,57.3255 42.843,57.3105 42.861,57.2955 C42.9,57.2615 42.93,57.2255 42.96,57.1885 C43.053,57.0685 43.105,56.9275 43.099,56.7825 C43.098,56.7685 43.1,56.7555 43.098,56.7415 C43.092,56.6925 43.079,56.6435 43.059,56.5945 C43.053,56.5805 43.047,56.5665 43.04,56.5525 C43.016,56.5045 42.987,56.4565 42.947,56.4115 C42.936,56.3985 42.922,56.3875 42.91,56.3755 C42.872,56.3365 42.829,56.2985 42.78,56.2645 C42.709,56.2195 42.631,56.1795 42.538,56.1525 C42.517,56.1465 42.474,56.1365 42.446,56.1295 C42.107,56.2585 41.772,56.3905 41.455,56.5275 L40.634,56.5275 Z" id="Fill-23" fill="#FFFFFF"></path>
                <path d="M42.842,29.2247 C42.592,29.1647 42.355,29.1117 42.157,29.0607 C41.836,28.9777 41.56,28.9107 41.297,28.8487 L41.26,30.3567 L41.546,30.3567 C41.922,29.9487 42.362,29.5757 42.842,29.2247" id="Fill-25" fill="#FFFFFF"></path>
                <path d="M46.3982,54.9035 C46.5012,55.2135 46.5602,55.5635 46.5602,55.9705 C46.5602,58.1695 44.4682,58.7895 42.8142,58.9365 C42.8122,58.9375 42.8082,58.9375 42.8072,58.9375 C42.0402,59.0675 41.2892,59.0005 40.5772,58.9075 L40.5372,60.5845 C40.5372,60.5845 40.5112,60.5785 40.4902,60.5745 C40.6172,60.6045 40.7402,60.6355 40.8512,60.6715 C42.0632,61.0585 42.9212,62.4645 42.9112,63.5765 C42.9032,64.3815 42.2582,65.7395 40.5092,65.9255 C38.6702,66.1235 36.9132,65.2485 37.4032,64.5935 C37.7552,64.1245 38.4812,64.4665 38.8912,64.6145 C39.9052,64.9785 41.1632,64.3765 41.0412,63.3615 C41.0242,63.2205 40.8282,62.7755 40.4582,62.6325 C40.4362,62.6925 40.0822,64.1095 39.3992,64.1095 C38.4812,64.1095 38.3112,62.9085 38.2782,61.7785 C38.2782,61.7785 38.2872,61.7825 38.2912,61.7835 C36.8982,61.1805 35.6302,60.4305 35.5392,59.4455 C35.4542,58.5305 36.0472,57.7105 37.4762,57.3885 C37.6352,57.3525 37.8842,57.3415 38.1842,57.3425 L38.1652,56.5275 L37.5952,56.5275 C30.7952,54.3245 21.5152,52.8375 14.7312,52.8175 L14.7312,28.6125 L17.2182,25.5185 L17.2182,49.7235 C22.2022,49.7375 27.1922,50.5495 32.1862,51.8495 C32.1852,51.8485 32.1852,51.8465 32.1842,51.8455 C27.1962,50.5475 22.2122,49.7375 17.2332,49.7235 L17.2332,25.5185 C26.6522,25.6545 33.3672,27.2935 37.5382,30.3445 L37.4812,27.9735 L37.5552,27.9895 C35.9902,27.6025 34.6542,27.2165 33.6302,26.6665 C31.0802,25.2975 30.0622,23.1485 30.1192,20.9615 C30.1962,17.9945 33.0422,15.0285 36.5332,14.4335 C40.3182,13.7885 45.6212,15.0845 47.5152,18.3165 C47.9972,19.1385 48.0032,21.1775 47.4842,22.4525 C47.4862,22.4505 47.4892,22.4475 47.4912,22.4455 C47.4712,22.4935 47.4522,22.5305 47.4322,22.5755 C47.4162,22.6115 47.4002,22.6485 47.3832,22.6825 C46.5812,24.3615 45.7102,23.0655 45.4322,22.7685 C45.1292,22.4465 44.8992,22.0095 44.5752,21.7365 C44.2042,21.4245 43.8162,21.2505 43.3732,21.0555 C42.9282,20.8615 42.4832,20.5195 42.4302,20.0375 C42.3902,19.6675 42.5902,19.3205 42.7122,18.9695 C42.8242,18.6465 42.8432,18.2205 42.6082,17.9905 C42.5542,17.9435 42.5102,17.8935 42.4312,17.8535 C42.1252,17.6995 37.8542,16.6105 35.0432,18.4785 C33.8292,19.2865 33.2992,21.1125 34.2992,22.6555 C34.7232,23.3095 36.1312,23.9505 37.3932,24.2895 L37.3392,22.0555 L37.3392,22.0525 L37.2462,22.0045 C36.4122,21.4675 36.1702,20.3555 36.7072,19.5205 C37.2442,18.6865 38.3562,18.4455 39.1912,18.9825 L41.8852,21.0855 C42.7202,21.6215 43.1292,22.4725 42.5932,23.3075 C42.2952,23.7695 41.8732,23.9685 41.4142,23.9645 L41.3802,25.3865 C41.6392,25.4645 41.8982,25.5415 42.1562,25.6195 C43.7502,26.0995 45.2952,26.6395 46.5032,27.3665 C50.5522,25.9245 56.0662,25.3945 62.0872,25.5185 L62.0872,49.8235 C62.1062,49.8235 62.1252,49.8225 62.1432,49.8235 L62.1432,25.5185 L64.6302,28.6125 L64.6302,52.9165 C59.2092,52.7825 52.1022,53.4565 46.3982,54.9035 M39.4562,9.7365 C22.9452,9.7365 9.5122,23.3125 9.5122,39.9985 C9.5122,56.6855 22.9452,70.2605 39.4562,70.2605 C55.9682,70.2605 69.4002,56.6855 69.4002,39.9985 C69.4002,23.3125 55.9682,9.7365 39.4562,9.7365" id="Fill-27" fill="#FFFFFF"></path>
                <path d="M39.3396,62.2091 C39.6406,62.3481 39.9656,62.4921 40.1916,62.5931 C39.9196,62.4711 39.6336,62.3441 39.3396,62.2091" id="Fill-29" fill="#FFFFFF"></path>
                <path d="M39.9758,60.5021 C39.8288,60.4691 39.1098,60.3231 38.8818,60.2831 C39.2478,60.3591 39.6358,60.4301 39.9988,60.5091 C39.9918,60.5061 39.9808,60.5031 39.9758,60.5021" id="Fill-31" fill="#FFFFFF"></path>
                <polygon id="Fill-33" fill="#FFFFFF" points="10.2077 53.0773 6.0067 55.0313 5.2927 53.4953 4.7047 53.7693 6.4437 57.5103 7.0327 57.2363 6.3187 55.7003 10.5197 53.7473"></polygon>
                <polygon id="Fill-35" fill="#FFFFFF" points="9.0774 50.2892 6.7594 50.9742 6.0034 48.4122 8.3214 47.7272 8.1104 47.0122 3.0444 48.5082 3.2564 49.2232 5.3734 48.5982 6.1294 51.1592 4.0124 51.7842 4.2214 52.4922 9.2864 50.9972"></polygon>
                <polygon id="Fill-37" fill="#FFFFFF" points="7.4309 42.421 6.7809 42.51 7.1549 45.244 5.4099 45.483 5.0729 43.015 4.4449 43.101 4.7829 45.569 3.2159 45.783 2.8559 43.16 2.2139 43.248 2.6729 46.604 7.9059 45.887"></polygon>
                <path d="M4.7185,35.5001 L4.6195,36.2771 L2.9245,36.0621 L3.0255,35.2701 C3.0475,35.0971 3.0815,34.9381 3.1275,34.7941 C3.1735,34.6491 3.2365,34.5281 3.3165,34.4311 C3.3965,34.3331 3.4935,34.2601 3.6075,34.2121 C3.7215,34.1641 3.8575,34.1501 4.0145,34.1701 C4.1725,34.1901 4.3025,34.2361 4.4035,34.3101 C4.5045,34.3831 4.5805,34.4781 4.6335,34.5951 C4.6865,34.7121 4.7195,34.8481 4.7325,35.0021 C4.7455,35.1561 4.7405,35.3221 4.7185,35.5001 L4.7185,35.5001 Z M7.5425,36.6491 L5.2405,36.3561 L5.3465,35.5281 C5.3815,35.2571 5.3855,35.0001 5.3585,34.7591 C5.3305,34.5171 5.2695,34.3031 5.1725,34.1191 C5.0755,33.9331 4.9395,33.7801 4.7645,33.6611 C4.5895,33.5411 4.3705,33.4641 4.1095,33.4311 C3.8535,33.3981 3.6275,33.4141 3.4345,33.4801 C3.2405,33.5451 3.0735,33.6521 2.9345,33.8001 C2.7955,33.9481 2.6825,34.1341 2.5965,34.3581 C2.5105,34.5831 2.4495,34.8351 2.4135,35.1171 L2.2105,36.7151 L7.4495,37.3821 L7.5425,36.6491 Z" id="Fill-39" fill="#FFFFFF"></path>
                <polygon id="Fill-41" fill="#FFFFFF" points="8.9631 29.7755 8.3291 29.6065 7.6161 32.2725 5.9161 31.8185 6.5591 29.4115 5.9461 29.2485 5.3031 31.6545 3.7751 31.2475 4.4591 28.6885 3.8321 28.5205 2.9571 31.7925 8.0601 33.1555"></polygon>
                <path d="M7.2854,25.8913 C7.2554,26.0403 7.2054,26.1953 7.1384,26.3553 L6.8074,27.1393 L5.2544,26.4843 L5.6054,25.6523 C5.6664,25.5053 5.7384,25.3713 5.8194,25.2483 C5.9014,25.1263 5.9924,25.0293 6.0934,24.9553 C6.1944,24.8823 6.3064,24.8363 6.4314,24.8183 C6.5544,24.8003 6.6894,24.8223 6.8364,24.8843 C6.9834,24.9463 7.0924,25.0283 7.1664,25.1293 C7.2394,25.2303 7.2854,25.3453 7.3044,25.4743 C7.3224,25.6033 7.3164,25.7423 7.2854,25.8913 L7.2854,25.8913 Z M9.5434,28.2933 L7.3784,27.3803 L7.6854,26.6513 L10.3724,26.3283 L10.7204,25.5023 L7.9124,25.9213 C8.0004,25.5483 7.9794,25.2053 7.8524,24.8923 C7.7254,24.5793 7.4834,24.3483 7.1254,24.1973 C6.8784,24.0923 6.6494,24.0503 6.4394,24.0693 C6.2284,24.0883 6.0374,24.1543 5.8654,24.2683 C5.6934,24.3823 5.5384,24.5343 5.4014,24.7243 C5.2644,24.9153 5.1464,25.1263 5.0484,25.3603 L4.3904,26.9203 L9.2564,28.9733 L9.5434,28.2933 Z" id="Fill-43" fill="#FFFFFF"></path>
                <polygon id="Fill-45" fill="#FFFFFF" points="11.323 24.3766 7.6 22.0006 7.609 21.9886 12.27 22.8926 12.523 22.4966 9.743 18.6426 9.751 18.6296 13.474 21.0056 13.871 20.3826 9.419 17.5426 8.802 18.5106 11.383 22.0076 11.375 22.0206 7.104 21.1706 6.486 22.1386 10.938 24.9796"></polygon>
                <path d="M12.8259,14.9606 L15.3059,15.9366 L13.9539,17.3776 L12.8259,14.9606 Z M14.8329,19.2866 L14.2489,18.0126 L15.9639,16.1846 L17.2779,16.6806 L17.8489,16.0706 L12.4449,14.1126 L11.9859,14.6026 L14.2719,19.8846 L14.8329,19.2866 Z" id="Fill-47" fill="#FFFFFF"></path>
                <polygon id="Fill-49" fill="#FFFFFF" points="18.9924 15.173 16.3994 11.729 16.4104 11.719 21.2334 13.486 21.9784 12.925 18.8014 8.706 18.2114 9.15 20.7514 12.523 20.7394 12.532 15.9944 10.819 15.2264 11.398 18.4024 15.617"></polygon>
                <polygon id="Fill-51" fill="#FFFFFF" points="26.0344 10.7135 25.7244 10.1345 23.2904 11.4365 22.4614 9.8835 24.6584 8.7085 24.3594 8.1495 22.1624 9.3245 21.4164 7.9295 23.7514 6.6815 23.4454 6.1095 20.4584 7.7055 22.9494 12.3625"></polygon>
                <polygon id="Fill-53" fill="#FFFFFF" points="27.4172 10.1383 25.9892 6.0703 26.0032 6.0653 30.0642 9.2093 30.9432 8.9003 29.1942 3.9173 28.4972 4.1623 29.8962 8.1453 29.8812 8.1503 25.8792 5.0813 24.9712 5.4003 26.7202 10.3833"></polygon>
                <polygon id="Fill-55" fill="#FFFFFF" points="32.2966 3.9049 33.1496 8.4579 33.8756 8.3219 33.0226 3.7689 34.6866 3.4569 34.5676 2.8189 30.5126 3.5789 30.6326 4.2169"></polygon>
                <polygon id="Fill-57" fill="#FFFFFF" points="39.6975 7.7868 39.6635 7.1308 36.9075 7.2708 36.8185 5.5128 39.3055 5.3858 39.2745 4.7528 36.7855 4.8788 36.7055 3.2998 39.3505 3.1658 39.3175 2.5168 35.9355 2.6888 36.2025 7.9638"></polygon>
                <polygon id="Fill-59" fill="#FFFFFF" points="46.3 4.0089 46.314 4.0129 46.947 8.7189 47.404 8.8319 50.166 4.9669 50.18 4.9699 49.119 9.2569 49.837 9.4339 51.106 4.3069 49.99 4.0309 47.502 7.5959 47.487 7.5919 46.927 3.2729 45.812 2.9969 44.543 8.1229 45.238 8.2959"></polygon>
                <polygon id="Fill-61" fill="#FFFFFF" points="53.9944 11.254 54.2574 10.652 51.7264 9.549 52.4304 7.936 54.7144 8.931 54.9674 8.349 52.6824 7.354 53.3154 5.904 55.7434 6.962 56.0014 6.368 52.8974 5.014 50.7874 9.856"></polygon>
                <path d="M57.7815,8.0617 L58.5635,8.5557 C58.8325,8.7257 59.0585,8.9187 59.2415,9.1377 C59.4245,9.3557 59.5545,9.5877 59.6325,9.8327 C59.7095,10.0797 59.7275,10.3367 59.6875,10.6047 C59.6475,10.8737 59.5395,11.1467 59.3645,11.4247 C59.1975,11.6887 59.0015,11.8977 58.7765,12.0497 C58.5505,12.2017 58.3095,12.2967 58.0535,12.3347 C57.7975,12.3737 57.5315,12.3577 57.2545,12.2887 C56.9765,12.2197 56.7035,12.1007 56.4345,11.9307 L55.6525,11.4377 L57.7815,8.0617 Z M56.2145,12.5597 C56.5005,12.7407 56.8155,12.8747 57.1585,12.9657 C57.5015,13.0557 57.8465,13.0817 58.1935,13.0447 C58.5395,13.0077 58.8725,12.8947 59.1925,12.7047 C59.5115,12.5157 59.7925,12.2297 60.0335,11.8467 C60.2825,11.4517 60.4255,11.0677 60.4605,10.6957 C60.4945,10.3237 60.4535,9.9737 60.3365,9.6467 C60.2195,9.3207 60.0435,9.0247 59.8105,8.7597 C59.5775,8.4957 59.3185,8.2727 59.0325,8.0927 L57.4995,7.1257 L54.6815,11.5927 L56.2145,12.5597 Z" id="Fill-63" fill="#FFFFFF"></path>
                <polygon id="Fill-65" fill="#FFFFFF" points="63.0598 10.9567 59.7608 15.0807 58.9798 14.4567 62.2788 10.3317"></polygon>
                <path d="M61.6545,14.6105 C61.5135,14.9505 61.4435,15.2945 61.4454583,15.6425 C61.4465,15.9905 61.5195,16.3335 61.6655,16.6705 C61.8105,17.0065 62.0265,17.3175 62.3125,17.6015 C62.6445,17.9305 62.9905,18.1505 63.3515,18.2585 C63.7125,18.3685 64.0675,18.3955 64.4145,18.3415 L64.2795,17.6405 C64.0065,17.6915 63.7395,17.6735 63.4835,17.5855 C63.2265,17.4985 62.9915,17.3505 62.7795,17.1405 C62.5645,16.9265 62.4085,16.6945 62.3105,16.4435 C62.2135,16.1925 62.1715,15.9385 62.1835,15.6815 C62.1965,15.4245 62.2615,15.1725 62.3795,14.9235 C62.4955,14.6755 62.6595,14.4455 62.8695,14.2335 C63.0725,14.0285 63.2975,13.8685 63.5455,13.7535 C63.7925,13.6375 64.0465,13.5725 64.3065,13.5575 C64.5665,13.5425 64.8235,13.5825 65.0765,13.6765 C65.3305,13.7705 65.5665,13.9255 65.7855,14.1425 C65.9795,14.3355 66.1195,14.5565 66.2045,14.8055 C66.2905,15.0545 66.3155,15.2885 66.2815,15.5065 L67.0095,15.5995 C67.0335,15.4335 67.0325,15.2655 67.0055,15.0955 C66.9785,14.9245 66.9295,14.7565 66.8585,14.5875 C66.7875,14.4185 66.6985,14.2565 66.5925,14.1025 C66.4865,13.9485 66.3705,13.8075 66.2425,13.6825 C65.9575,13.3985 65.6455,13.1835 65.3065,13.0375 C64.9685,12.8905 64.6255,12.8145 64.2775,12.8095 C63.9295,12.8035 63.5845,12.8715 63.2445,13.0135 C62.9035,13.1555 62.5875,13.3735 62.2975,13.6665 C62.0095,13.9565 61.7955,14.2705 61.6545,14.6105" id="Fill-67" fill="#FFFFFF"></path>
                <path d="M69.2112,18.7789 L67.7632,21.0159 L66.6182,19.4049 L69.2112,18.7789 Z M64.5722,19.8889 L65.9382,19.5689 L67.3902,21.6119 L66.6432,22.8009 L67.1282,23.4819 L70.1182,18.5739 L69.7292,18.0269 L64.0982,19.2199 L64.5722,19.8889 Z" id="Fill-69" fill="#FFFFFF"></path>
                <polygon id="Fill-71" fill="#FFFFFF" points="68.9177 27.091 69.5027 26.795 68.4397 24.692 72.5667 22.604 72.2327 21.945 67.5207 24.328"></polygon>
                <path d="M71.2302,31.9035 C71.0362,32.1945 70.9052,32.5235 70.8372,32.8885 C70.7692,33.2545 70.7742,33.6395 70.8532,34.0445 C70.9272,34.4245 71.0352,34.7685 71.1762,35.0755 C71.3162,35.3825 71.4872,35.6585 71.6872,35.9035 L74.1992,35.4135 L73.8342,33.5475 L73.2202,33.6675 L73.4432,34.8165 L72.0012,35.0975 C71.8892,34.9625 71.7912,34.7965 71.7072,34.6005 C71.6232,34.4035 71.5572,34.1835 71.5092,33.9395 C71.4492,33.6315 71.4492,33.3425 71.5072,33.0735 C71.5662,32.8035 71.6732,32.5645 71.8282,32.3575 C71.9822,32.1495 72.1782,31.9745 72.4142,31.8325 C72.6492,31.6905 72.9112,31.5915 73.1992,31.5355 C73.4822,31.4805 73.7582,31.4745 74.0282,31.5175 C74.2972,31.5615 74.5442,31.6505 74.7682,31.7835 C74.9912,31.9175 75.1822,32.0955 75.3392,32.3185 C75.4972,32.5415 75.6052,32.8035 75.6642,33.1065 C75.7222,33.4045 75.7232,33.6835 75.6672,33.9455 C75.6122,34.2075 75.5142,34.4325 75.3742,34.6225 L76.0002,35.0255 C76.1622,34.7705 76.2732,34.4685 76.3322,34.1195 C76.3912,33.7715 76.3792,33.3895 76.2992,32.9755 C76.2222,32.5795 76.0842,32.2265 75.8872,31.9155 C75.6892,31.6045 75.4482,31.3485 75.1642,31.1485 C74.8782,30.9475 74.5562,30.8115 74.1942,30.7365 C73.8332,30.6625 73.4492,30.6655 73.0442,30.7445 C72.6442,30.8225 72.2902,30.9625 71.9822,31.1645 C71.6752,31.3655 71.4242,31.6125 71.2302,31.9035" id="Fill-73" fill="#FFFFFF"></path>
                <path d="M76.1272,38.9381 C76.1052,39.0831 76.0642,39.2101 76.0032,39.3191 C75.9422,39.4291 75.8602,39.5181 75.7552,39.5861 C75.6512,39.6551 75.5202,39.6921 75.3612,39.6981 C75.2022,39.7041 75.0672,39.6771 74.9582,39.6171 C74.8492,39.5561 74.7582,39.4711 74.6882,39.3621 C74.6162,39.2521 74.5632,39.1241 74.5272,38.9761 C74.4922,38.8281 74.4702,38.6671 74.4642,38.4931 L74.4312,37.6431 L76.1162,37.5791 L76.1502,38.4811 C76.1572,38.6401 76.1492,38.7921 76.1272,38.9381 L76.1272,38.9381 Z M76.7152,36.8171 L71.4372,37.0191 L71.4652,37.7561 L73.8142,37.6671 L73.8432,38.4571 L71.5462,39.8881 L71.5802,40.7831 L73.9472,39.2151 C74.0252,39.5901 74.1892,39.8931 74.4372,40.1221 C74.6842,40.3521 75.0022,40.4591 75.3892,40.4441 C75.6572,40.4341 75.8832,40.3751 76.0652,40.2701 C76.2482,40.1631 76.3942,40.0211 76.5012,39.8461 C76.6082,39.6701 76.6852,39.4671 76.7282,39.2361 C76.7712,39.0051 76.7882,38.7641 76.7792,38.5101 L76.7152,36.8171 Z" id="Fill-75" fill="#FFFFFF"></path>
                <path d="M76.0144,44.4337 C75.9764,44.7397 75.8874,45.0077 75.7464,45.2387 C75.6054,45.4697 75.4284,45.6597 75.2144,45.8087 C75.0004,45.9567 74.7614,46.0637 74.4954,46.1257 C74.2294,46.1887 73.9534,46.2027 73.6664,46.1667 C73.3754,46.1307 73.1074,46.0507 72.8624,45.9257 C72.6174,45.7997 72.4104,45.6397 72.2414,45.4437 C72.0724,45.2467 71.9484,45.0197 71.8704,44.7597 C71.7924,44.4987 71.7714,44.2187 71.8084,43.9177 C71.8454,43.6177 71.9324,43.3517 72.0714,43.1227 C72.2094,42.8947 72.3844,42.7047 72.5954,42.5557 C72.8064,42.4067 73.0464,42.3007 73.3144,42.2387 C73.5824,42.1767 73.8624,42.1627 74.1534,42.1997 C74.4404,42.2347 74.7044,42.3147 74.9474,42.4397 C75.1894,42.5647 75.3974,42.7237 75.5694,42.9167 C75.7404,43.1117 75.8674,43.3367 75.9484,43.5957 C76.0294,43.8527 76.0514,44.1327 76.0144,44.4337 M76.1434,42.4357 C75.9334,42.1597 75.6694,41.9317 75.3474,41.7507 C75.0264,41.5717 74.6604,41.4567 74.2514,41.4067 C73.8474,41.3567 73.4674,41.3807 73.1124,41.4777 C72.7574,41.5747 72.4424,41.7307 72.1674,41.9477 C71.8934,42.1637 71.6664,42.4337 71.4894,42.7547 C71.3124,43.0767 71.1994,43.4377 71.1504,43.8367 C71.1014,44.2377 71.1234,44.6157 71.2174,44.9727 C71.3114,45.3297 71.4654,45.6477 71.6794,45.9237 C71.8934,46.2017 72.1604,46.4297 72.4824,46.6127 C72.8034,46.7947 73.1654,46.9107 73.5704,46.9597 C73.9804,47.0107 74.3634,46.9867 74.7184,46.8867 C75.0734,46.7877 75.3864,46.6287 75.6564,46.4127 C75.9264,46.1947 76.1484,45.9237 76.3234,45.5997 C76.4984,45.2757 76.6104,44.9127 76.6594,44.5137 C76.7074,44.1137 76.6864,43.7367 76.5954,43.3817 C76.5024,43.0267 76.3524,42.7117 76.1434,42.4357" id="Fill-77" fill="#FFFFFF"></path>
                <path d="M71.8254,47.7531 C71.5614,47.7581 71.3114,47.8141 71.0764,47.9191 C70.8424,48.0241 70.6314,48.1841 70.4444,48.3971 C70.2574,48.6101 70.1134,48.8831 70.0114,49.2161 C69.9104,49.5501 69.8774,49.8571 69.9144,50.1381 C69.9504,50.4191 70.0364,50.6691 70.1734,50.8881 C70.3094,51.1061 70.4864,51.2901 70.7024,51.4421 C70.9194,51.5941 71.1564,51.7081 71.4124,51.7871 L74.5964,52.7551 L74.8104,52.0491 L71.6704,51.0941 C71.4984,51.0411 71.3354,50.9681 71.1794,50.8741 C71.0234,50.7791 70.8934,50.6631 70.7904,50.5251 C70.6864,50.3881 70.6184,50.2261 70.5874,50.0391 C70.5554,49.8531 70.5754,49.6431 70.6464,49.4091 C70.7194,49.1721 70.8194,48.9851 70.9494,48.8511 C71.0784,48.7161 71.2244,48.6201 71.3874,48.5631 C71.5504,48.5061 71.7224,48.4821 71.9044,48.4901 C72.0864,48.4981 72.2624,48.5281 72.4344,48.5811 L75.5744,49.5361 L75.7894,48.8301 L72.6064,47.8611 C72.3494,47.7831 72.0894,47.7471 71.8254,47.7531" id="Fill-79" fill="#FFFFFF"></path>
                <path d="M70.9402,55.3615 C70.9762,55.2115 71.0332,55.0545 71.1102,54.8925 L71.4462,54.1855 L72.9892,54.9205 L72.6462,55.6405 C72.5712,55.7985 72.4892,55.9375 72.4002,56.0605 C72.3122,56.1835 72.2142,56.2795 72.1072,56.3465 C72.0012,56.4155 71.8862,56.4535 71.7622,56.4645 C71.6392,56.4735 71.5052,56.4445 71.3622,56.3765 C71.2182,56.3075 71.1102,56.2225 71.0372,56.1225 C70.9632,56.0205 70.9202,55.9065 70.9072,55.7795 C70.8932,55.6515 70.9042,55.5125 70.9402,55.3615 L70.9402,55.3615 Z M68.7862,52.9195 L70.8802,53.9165 L70.5222,54.6715 C70.4042,54.9185 70.3202,55.1605 70.2702,55.3975 C70.2202,55.6355 70.2122,55.8575 70.2462,56.0635 C70.2802,56.2705 70.3612,56.4585 70.4902,56.6265 C70.6192,56.7955 70.8032,56.9365 71.0412,57.0495 C71.2742,57.1615 71.4932,57.2155 71.6972,57.2145136 C71.9022,57.2125 72.0942,57.1635 72.2722,57.0665 C72.4502,56.9685 72.6152,56.8275 72.7682,56.6415 C72.9192,56.4555 73.0572,56.2335 73.1782,55.9775 L73.8712,54.5225 L69.1032,52.2525 L68.7862,52.9195 Z" id="Fill-81" fill="#FFFFFF"></path>
                <path d="M41.4553,56.5275 C41.7723,56.3895 42.1073,56.2585 42.4473,56.1295 C42.1303,56.0455 41.4583,55.8985 40.6533,55.7265 L40.6343,56.5275 L41.4553,56.5275 Z" id="Fill-83" fill="#94BEDD"></path>
                <path d="M37.0183,54.9552 C35.8263,54.7262 33.1463,53.7202 32.1863,51.8502 C27.1923,50.5492 22.2023,49.7372 17.2183,49.7242 L17.2183,25.5182 L14.7313,28.6122 L14.7313,52.8172 C21.5153,52.8362 30.7953,54.3232 37.5953,56.5272 L38.1643,56.5272 L38.1323,55.1882 C37.7113,55.0972 37.3273,55.0152 37.0183,54.9552" id="Fill-85" fill="#99C4DB"></path>
                <path d="M62.1428,25.5187 L62.1428,49.8237 C62.1238,49.8227 62.1058,49.8237 62.0868,49.8237 C61.2098,49.8017 60.3278,49.8017 59.4428,49.8227 C55.2768,49.9227 51.0608,50.4987 47.1798,51.5097 C45.7738,51.8777 44.4108,52.3017 43.1088,52.7837 C44.6528,53.0747 45.9588,53.5747 46.3978,54.9037 C52.1018,53.4557 59.2088,52.7827 64.6288,52.9157 L64.6288,28.6127 L62.1428,25.5187 Z" id="Fill-87" fill="#99C4DB"></path>
                <path d="M36.1745,39.3996 C36.7355,39.3996 37.2675,39.4196 37.8045,39.4356 L37.7555,39.4326 L37.6635,35.5856 C36.7635,35.5726 35.9925,35.5776 35.5385,35.6276 C33.8185,35.8136 33.8915,37.9516 33.8995,38.1166 C34.1775,38.8006 34.8615,39.3996 36.1745,39.3996" id="Fill-89" fill="#E5F0F6"></path>
                <path d="M40.9563,43.0744 L40.8633,46.9714 C41.0553,46.9714 41.2283,46.9724 41.3533,46.9794 C41.4983,46.9864 41.6543,46.9904 41.8173,46.9894 C42.5783,46.9564 43.2973,46.8784 43.9203,46.7364 C44.2663,46.6534 44.6483,46.5394 44.9853,46.3624 C44.9913,46.3594 44.9973,46.3564 45.0023,46.3534 C45.1243,46.2894 45.2393,46.2164 45.3443,46.1344 C45.3463,46.1334 45.3483,46.1314 45.3503,46.1294 C45.6683,45.8774 45.8873,45.5384 45.8873,45.0784 C45.8873,44.6514 45.5473,44.3214 45.5493,44.3204 C45.5493,44.3204 45.5553,44.3234 45.5563,44.3234 C44.7713,43.6094 42.8333,43.2594 40.9893,43.0774 C40.9833,43.0774 40.9663,43.0754 40.9563,43.0744" id="Fill-91" fill="#E5F0F6"></path>
                <path d="M41.5461,30.3571 L41.2601,30.3571 L41.2241,31.8661 C42.3051,31.8851 42.9001,31.9021 43.2691,31.8821 C43.5501,31.8421 43.8171,31.7931 44.0481,31.7221 C44.0701,31.7151 44.0891,31.7081 44.1101,31.7011 C44.2371,31.6591 44.3551,31.6121 44.4611,31.5601 C44.4781,31.5511 44.4971,31.5441 44.5131,31.5351 C44.7491,31.4091 44.9211,31.2501 45.0181,31.0541 C45.0291,31.0291 45.0391,31.0051 45.0461,30.9811 C45.0671,30.9271 45.0721,30.8681 45.0821,30.8091 C45.0821,30.8051 45.0831,30.8011 45.0841,30.7971 C45.1171,30.3771 44.8741,30.0961 44.7191,29.9611 C44.2691,29.5931 43.5041,29.3831 42.8421,29.2251 C42.3621,29.5751 41.9221,29.9491 41.5461,30.3571" id="Fill-93" fill="#E5F0F6"></path>
                <path d="M36.5608,49.8302 C36.5408,49.8332 36.5228,49.8372 36.5028,49.8402 C36.3878,49.8572 36.2788,49.8772 36.1808,49.8992 C36.0938,49.9212 36.0178,49.9472 35.9418,49.9742 C35.7148,50.0622 35.4358,50.2262 35.3298,50.4812 C35.3058,50.5502 35.2818,50.6162 35.2818,50.6962 C35.2818,50.7892 35.2998,50.8732 35.3208,50.9562 C35.4068,51.2512 35.6228,51.4672 35.7928,51.5992 C35.8408,51.6322 35.8868,51.6682 35.9388,51.6982 C35.9538,51.7072 35.9678,51.7162 35.9788,51.7232 C36.5078,52.0162 37.2768,52.1642 38.0608,52.2482 C38.0608,52.2302 38.0338,51.1562 37.9998,49.7412 C37.5028,49.7482 36.9868,49.7712 36.5608,49.8302" id="Fill-95" fill="#E5F0F6"></path>
                <path d="M27.948,39.4704 C27.826,39.7734 27.668,40.0824 27.475,40.3984 L25.691,43.2204 L24.582,43.2204 L26.414,40.4554 L26.405,40.4464 C26.308,40.5044 26.177,40.5494 26.01,40.5814 C25.932,40.5944 25.853,40.6054 25.773,40.6154 C25.692,40.6244 25.617,40.6294 25.546,40.6294 C25.244,40.6294 24.964,40.5754 24.707,40.4704 C24.449,40.3644 24.225,40.2154 24.032,40.0254 C23.839,39.8354 23.688,39.6084 23.578,39.3444 C23.469,39.0804 23.415,38.7934 23.415,38.4844 C23.415,38.1424 23.474,37.8314 23.594,37.5514 C23.713,37.2704 23.878,37.0314 24.09,36.8314 C24.302,36.6314 24.553,36.4764 24.843,36.3674 C25.132,36.2574 25.444,36.2024 25.778,36.2024 C26.113,36.2024 26.425,36.2594 26.714,36.3724 C27.003,36.4854 27.252,36.6414 27.461,36.8414 C27.67,37.0404 27.834,37.2794 27.953,37.5564 C28.072,37.8334 28.132,38.1334 28.132,38.4544 C28.131,38.8294 28.07,39.1674 27.948,39.4704 L27.948,39.4704 Z M22.254,43.2204 L21.327,43.2204 L21.327,37.5184 L20.031,38.6004 L19.481,37.9534 L21.422,36.3784 L22.255,36.3784 L22.255,43.2204 L22.254,43.2204 Z M36.085,46.8474 C36.557,46.8474 37.201,46.8834 37.934,46.9204 C37.884,44.7934 37.837,42.8374 37.837,42.8274 C35.707,42.6124 33.737,42.5304 32.823,42.1274 C30.867,41.2644 29.986,39.5584 29.858,38.0834 C29.694,36.2044 30.336,32.1824 36.934,31.8124 C37.101,31.8034 37.324,31.8074 37.573,31.8154 L37.538,30.3444 C33.367,27.2934 26.653,25.6554 17.234,25.5184 L17.234,49.7234 C22.212,49.7374 27.197,50.5474 32.184,51.8454 C31.965,51.4184 31.836,50.9444 31.836,50.4244 C31.836,48.5774 33.236,46.8444 36.085,46.8474 L36.085,46.8474 Z" id="Fill-97" fill="#E5F0F6"></path>
                <path d="M26.8118,37.4166 C26.6868,37.2846 26.5368,37.1796 26.3628,37.1026 C26.1888,37.0246 25.9958,36.9856 25.7828,36.9856 C25.5698,36.9856 25.3768,37.0226 25.2028,37.0976 C25.0288,37.1716 24.8788,37.2726 24.7538,37.4016 C24.6278,37.5306 24.5318,37.6856 24.4638,37.8656 C24.3958,38.0456 24.3628,38.2426 24.3628,38.4546 C24.3628,38.6616 24.3958,38.8506 24.4638,39.0246 C24.5318,39.1986 24.6268,39.3506 24.7488,39.4796 C24.8718,39.6076 25.0198,39.7076 25.1938,39.7786 C25.3678,39.8506 25.5608,39.8846 25.7738,39.8846 C25.9858,39.8846 26.1808,39.8496 26.3578,39.7786 C26.5358,39.7086 26.6868,39.6086 26.8128,39.4796 C26.9378,39.3506 27.0348,39.1986 27.1028,39.0246 C27.1698,38.8506 27.2038,38.6576 27.2038,38.4446 C27.2038,38.2456 27.1698,38.0566 27.1028,37.8796 C27.0338,37.7036 26.9378,37.5486 26.8118,37.4166" id="Fill-99" fill="#E5F0F6"></path>
                <path d="M56.6081,42.2492 C56.7271,42.3612 56.8691,42.4502 57.0331,42.5152 C57.1971,42.5792 57.3791,42.6112 57.5791,42.6112 C57.7731,42.6112 57.9511,42.5792 58.1161,42.5152 C58.2801,42.4502 58.4201,42.3612 58.5361,42.2492 C58.6511,42.1372 58.7431,41.9992 58.8111,41.8382 C58.8791,41.6782 58.9131,41.5002 58.9131,41.3072 C58.9131,41.1192 58.8791,40.9472 58.8111,40.7902 C58.7431,40.6312 58.6511,40.4952 58.5361,40.3792 C58.4201,40.2632 58.2801,40.1722 58.1161,40.1082 C57.9511,40.0432 57.7731,40.0112 57.5791,40.0112 C57.3861,40.0112 57.2081,40.0432 57.0431,40.1082 C56.8791,40.1722 56.7371,40.2632 56.6181,40.3792 C56.4991,40.4952 56.4051,40.6322 56.3371,40.7902 C56.2701,40.9472 56.2361,41.1192 56.2361,41.3072 C56.2361,41.5002 56.2681,41.6772 56.3331,41.8382 C56.3971,41.9992 56.4891,42.1372 56.6081,42.2492" id="Fill-101" fill="#E5F0F6"></path>
                <path d="M57.1233,39.1222 C57.2623,39.1802 57.4133,39.2092 57.5753,39.2092 C57.7293,39.2092 57.8753,39.1802 58.0113,39.1222 C58.1473,39.0642 58.2673,38.9842 58.3703,38.8842 C58.4743,38.7842 58.5553,38.6652 58.6133,38.5292 C58.6713,38.3932 58.7003,38.2482 58.7003,38.0932 C58.7003,37.9312 58.6693,37.7812 58.6083,37.6422 C58.5473,37.5022 58.4663,37.3832 58.3663,37.2822 C58.2663,37.1822 58.1473,37.1042 58.0123,37.0492 C57.8753,36.9942 57.7303,36.9672 57.5753,36.9672 C57.4133,36.9672 57.2633,36.9952 57.1233,37.0492 C56.9843,37.1042 56.8653,37.1822 56.7653,37.2822 C56.6643,37.3832 56.5863,37.5022 56.5323,37.6422 C56.4773,37.7802 56.4493,37.9312 56.4493,38.0932 C56.4493,38.2482 56.4773,38.3942 56.5323,38.5292 C56.5863,38.6652 56.6643,38.7832 56.7653,38.8842 C56.8643,38.9842 56.9843,39.0642 57.1233,39.1222" id="Fill-103" fill="#E5F0F6"></path>
                <path d="M49.9055,40.8327 L52.8145,36.3777 L53.9645,36.3777 L53.9645,40.8817 L54.9495,40.8817 L54.9495,41.6837 L53.9645,41.6837 L53.9645,43.2197 L53.0555,43.2197 L53.0555,41.6837 L49.9055,41.6837 L49.9055,40.8327 Z M55.3805,40.7267 C55.4485,40.5337 55.5415,40.3627 55.6605,40.2147 C55.7805,40.0667 55.9185,39.9427 56.0765,39.8427 C56.2345,39.7437 56.4005,39.6667 56.5745,39.6157 L56.5745,39.5967 C56.2645,39.4867 56.0125,39.2997 55.8155,39.0357 C55.6185,38.7717 55.5205,38.4497 55.5205,38.0697 C55.5205,37.7867 55.5755,37.5297 55.6855,37.3007 C55.7945,37.0727 55.9425,36.8757 56.1295,36.7117 C56.3165,36.5477 56.5335,36.4217 56.7815,36.3347 C57.0305,36.2487 57.2955,36.2047 57.5785,36.2047 C57.8565,36.2047 58.1195,36.2477 58.3715,36.3347 C58.6225,36.4217 58.8405,36.5437 59.0235,36.7017 C59.2075,36.8597 59.3535,37.0527 59.4635,37.2817 C59.5725,37.5107 59.6275,37.7667 59.6275,38.0497 C59.6275,38.4237 59.5295,38.7497 59.3335,39.0257 C59.1365,39.3027 58.8845,39.4927 58.5745,39.5957 L58.5745,39.6157 C58.7545,39.6607 58.9235,39.7357 59.0815,39.8427 C59.2385,39.9487 59.3765,40.0767 59.4925,40.2247 C59.6085,40.3727 59.6995,40.5437 59.7675,40.7367 C59.8355,40.9307 59.8685,41.1367 59.8685,41.3557 C59.8685,41.6777 59.8075,41.9637 59.6855,42.2157 C59.5625,42.4667 59.3975,42.6797 59.1875,42.8537 C58.9785,43.0277 58.7355,43.1617 58.4585,43.2547 C58.1805,43.3477 57.8875,43.3947 57.5785,43.3947 C57.2695,43.3947 56.9745,43.3477 56.6945,43.2547 C56.4135,43.1617 56.1685,43.0277 55.9595,42.8537 C55.7505,42.6797 55.5845,42.4667 55.4615,42.2157 C55.3395,41.9647 55.2785,41.6777 55.2785,41.3557 C55.2795,41.1287 55.3135,40.9197 55.3805,40.7267 L55.3805,40.7267 Z M48.8625,30.8007 C48.8625,34.1447 45.8495,35.4587 44.0845,35.6157 C44.0305,35.6247 43.9825,35.6307 43.9465,35.6347 C43.3195,35.6907 42.2805,35.6857 41.1335,35.6637 L41.0385,39.6327 C42.4785,39.7727 43.9165,39.9737 45.4535,40.2457 C46.8695,40.4967 49.4845,41.3667 49.4845,44.8007 C49.4845,48.1637 46.2145,49.3997 45.0625,49.5797 C45.0365,49.5827 45.0085,49.5847 44.9815,49.5887 C44.9685,49.5917 44.9555,49.5987 44.9435,49.6007 C43.8345,49.7987 42.0985,49.8097 40.7955,49.7897 L40.7325,52.4287 L40.7015,52.4267 C40.7325,52.4307 40.7695,52.4337 40.7975,52.4377 C41.5755,52.5497 42.3685,52.6437 43.1095,52.7837 C44.4105,52.3017 45.7735,51.8777 47.1795,51.5097 C51.0605,50.4947 55.2695,49.9177 59.4425,49.8227 C60.3275,49.8017 61.2105,49.8007 62.0875,49.8227 L62.0875,25.5187 C56.0665,25.3947 50.5515,25.9237 46.5025,27.3667 C47.8875,28.1987 48.8275,29.2757 48.8625,30.8007 L48.8625,30.8007 Z" id="Fill-105" fill="#E5F0F6"></path>
                <polygon id="Fill-107" fill="#E5F0F6" points="53.0554 37.4503 53.0364 37.4503 50.8714 40.8813 53.0554 40.8813"></polygon>
                <path d="M44.5134,31.5538 C44.7924,31.4028 44.9444,31.2328 45.0184,31.0538 C44.9214,31.2578 44.7494,31.4238 44.5134,31.5538" id="Fill-109" fill="#66A6CA"></path>
                <path d="M43.5935,31.8668 C43.7655,31.8218 43.9135,31.7728 44.0495,31.7218 C43.8175,31.8058 43.5515,31.8648 43.2695,31.9118 C43.4025,31.9028 43.5085,31.8888 43.5935,31.8668" id="Fill-111" fill="#66A6CA"></path>
                <path d="M40.9563,43.0724 L40.9563,43.0744 C40.9673,43.0754 40.9843,43.0774 40.9893,43.0774 C42.8343,43.2594 44.7713,43.6094 45.5563,44.3234 C45.5953,44.3424 47.5253,45.2704 47.4923,46.8604 C47.4723,47.8094 46.1833,49.3474 44.9813,49.5894 C45.0083,49.5854 45.0373,49.5834 45.0633,49.5794 C46.2143,49.3994 49.4843,48.1634 49.4843,44.8014 C49.4843,41.3674 46.8713,40.4964 45.4543,40.2464 C43.9173,39.9744 42.4793,39.7734 41.0393,39.6334 L41.0393,39.6414 L37.8053,39.4354 C37.2683,39.4194 36.7353,39.3994 36.1743,39.3994 C34.8613,39.3994 34.1773,38.8014 33.8993,38.1164 C33.8993,38.1234 33.9003,38.1334 33.9003,38.1334 C33.8933,38.1074 33.0993,36.7344 33.1283,35.3354 C33.1543,34.0404 33.8533,32.1374 37.5753,31.8704 L37.5743,31.8154 C37.3253,31.8065398 37.1013,31.8024 36.9353,31.8124 C30.3373,32.1824 29.6943,36.2034 29.8583,38.0834 C29.9873,39.5584 30.8683,41.2634 32.8233,42.1274 C33.7373,42.5304 35.7073,42.6124 37.8383,42.8264 L37.8383,42.8244 L40.9563,43.0724 Z" id="Fill-113" fill="#66A6CA"></path>
                <path d="M36.1951,49.9054 C36.1281,49.9224 36.0391,49.9504 35.9421,49.9884 C36.0321,49.9574 36.1221,49.9254 36.2251,49.9004 C36.2161,49.9024 36.2041,49.9034 36.1951,49.9054" id="Fill-115" fill="#66A6CA"></path>
                <path d="M38.8816,60.2824 C38.8756,60.2814 38.8656,60.2804 38.8606,60.2794 C38.6926,60.2554 38.4646,60.2044 38.3416,60.1754 C38.3386,60.1744 38.3346,60.1734 38.3316,60.1734 C38.2846,60.1614 38.2516,60.1534 38.2516,60.1534 L38.2516,60.1524 C37.9296,60.0744 37.6556,59.9804 37.4746,59.8554 C37.4756,59.8564 37.4756,59.8574 37.4766,59.8584 C36.6436,59.5414 36.4856,58.8354 36.7586,58.2584 C36.9536,57.8444 37.4316,57.6044 38.1876,57.4924 L38.1836,57.3424 C37.8836,57.3394 37.6346,57.3514 37.4756,57.3874 C36.0476,57.7094 35.4546,58.5284 35.5396,59.4444 C35.6306,60.4294 36.8996,61.1794 38.2906,61.7824 C38.3506,61.8074 38.9256,62.0474 39.3246,62.2034 C39.3296,62.2044 39.3346,62.2074 39.3396,62.2084 C39.6326,62.3214 39.9196,62.4284 40.1916,62.5314 C40.3266,62.5824 40.4356,62.6234 40.4576,62.6324 C40.8276,62.7744 41.0246,63.2204 41.0406,63.3604 C41.1626,64.3754 39.9046,64.9774 38.8906,64.6134 C38.4816,64.4674 37.7556,64.1224 37.4026,64.5934 C36.9126,65.2474 38.6696,66.1224 40.5086,65.9264 C42.2576,65.7384 42.9026,64.3804 42.9106,63.5754 C42.9216,62.4634 42.0626,61.0574 40.8506,60.6704 C40.7396,60.6354 40.6176,60.6034 40.4896,60.5734 C40.3926,60.5534 40.1316,60.4984 39.9976,60.4714 C39.6356,60.4054 39.2486,60.3474 38.8816,60.2824" id="Fill-117" fill="#66A6CA"></path>
                <path d="M42.5647,57.4923 C42.6737,57.4573 42.7667,57.4013 42.8517,57.3393 C42.7677,57.3983 42.6707,57.4523 42.5567,57.4943 C42.5587,57.4933 42.5627,57.4933 42.5647,57.4923" id="Fill-119" fill="#66A6CA"></path>
                <path d="M38.2644,58.7726 C38.1794,58.7866 38.0904,58.7916 38.0094,58.8126 C37.9994,58.8156 37.9854,58.8206 37.9754,58.8236 C38.0674,58.8046 38.1624,58.7906 38.2644,58.7796 L38.2644,58.7726 Z" id="Fill-121" fill="#66A6CA"></path>
                <path d="M43.1091,52.7833 C42.3691,52.6433 41.5761,52.5503 40.7971,52.4373 C40.7691,52.4333 40.7331,52.4303 40.7021,52.4273 L38.6971,52.3113 C38.4871,52.2963 38.2231,52.2653 38.0621,52.2483 C37.2781,52.1643 36.5091,52.0153 35.9791,51.7223 C36.0061,51.7383 36.0251,51.7483 36.0251,51.7483 C35.3581,51.5693 34.3711,50.3993 34.3711,49.4763 C34.3711,48.3293 35.6801,47.4243 37.2851,47.1933 C37.4691,47.1673 37.6971,47.1423 37.9391,47.1193 C37.9371,47.0523 37.9361,46.9863 37.9341,46.9193 C37.2011,46.8813 36.5571,46.8462961 36.0851,46.8462961 C33.2351,46.8433 31.8361,48.5763 31.8361,50.4233 C31.8361,50.9433 31.9651,51.4163 32.1841,51.8453 C32.1851,51.8462961 32.1861,51.8473 32.1861,51.8483 C33.1461,53.7183 35.8261,54.7253 37.0181,54.9543 C37.3271,55.0133 37.7111,55.0963 38.1321,55.1863 L40.6531,55.7253 C41.4581,55.8963 42.1301,56.0433 42.4471,56.1283 C42.4751,56.1353 42.5171,56.1453 42.5391,56.1513 C42.6311,56.1793 42.7091,56.2193 42.7801,56.2623 C42.7711,56.2573 42.7661,56.2503 42.7561,56.2433 C43.2601,56.4393 44.3341,56.6293 44.3391,57.6943 C44.3451,58.5603 42.9551,58.9103 42.8141,58.9353 C44.4681,58.7883 46.5601,58.1673 46.5601,55.9703 C46.5601,55.5613 46.5011,55.2113 46.3991,54.9013 C45.9591,53.5743 44.6531,53.0743 43.1091,52.7833" id="Fill-123" fill="#66A6CA"></path>
                <path d="M44.8415,18.547 C45.1195,18.547 45.3435,18.772 45.3435,19.049 C45.3435,19.327 45.1195,19.551 44.8415,19.551 C44.5645,19.551 44.3395,19.327 44.3395,19.049 C44.3395,18.772 44.5645,18.547 44.8415,18.547 M41.1945,28.824 L41.2965,28.848 L41.2965,28.849 C41.5595,28.911 41.8365,28.978 42.1575,29.061 C42.3555,29.111 42.5915,29.165 42.8425,29.225 C43.5045,29.383 44.2695,29.593 44.7195,29.961 C44.6505,29.9 44.5965,29.865 44.5965,29.865 C45.0045,30.065 46.8805,31.108 46.8855,32.666 C46.8945,34.822 44.7985,35.494 44.0855,35.615 C45.8505,35.459 48.8625,34.145 48.8625,30.801 C48.8275,29.276 47.8875,28.199 46.5035,27.367 C45.2955,26.64 43.7495,26.1 42.1565,25.62 C41.8985,25.542 41.6395,25.465 41.3805,25.387 L41.3795,25.405 L37.3935,24.311 L37.3935,24.29 C36.1325,23.95 34.7235,23.31 34.2995,22.656 C33.2995,21.114 33.8295,19.287 35.0435,18.479 C37.8535,16.611 42.1255,17.7 42.4315,17.854 C42.5105,17.894 42.5545,17.944 42.6085,17.991 C42.5885,17.971 42.5775,17.943 42.5535,17.926 C42.7945,17.802 43.0855,18 43.2065,18.243 C43.3275,18.485 43.3185,18.77 43.3245,19.041 C43.3305,19.312 43.3625,19.604 43.5425,19.807 C43.6735,19.954 43.8625,20.032 44.0435,20.107 C44.7665,20.407 44.9855,21.416 45.4435,22.05 C46.6125,23.672 47.0215,22.835 47.4845,22.452 C48.0035,21.178 47.9975,19.139 47.5155,18.316 C45.6205,15.084 40.3185,13.789 36.5325,14.433 C33.0415,15.028 30.1955,17.994 30.1195,20.961 C30.0625,23.148 31.0795,25.297 33.6305,26.667 C34.6535,27.216 35.9905,27.603 37.5545,27.99 L40.7545,28.724 C40.8965,28.755 41.0435,28.789 41.1945,28.824" id="Fill-125" fill="#66A6CA"></path>
                <path d="M43.4617,46.8546 C43.5987,46.8236 43.7567,46.7826 43.9197,46.7366 C43.2967,46.9056 42.5777,46.9976 41.8167,47.0366 C42.3367,47.0336 42.9257,46.9776 43.4617,46.8546" id="Fill-127" fill="#66A6CA"></path>
                <path d="M45.4436,22.0499 C44.9856,21.4149 44.7666,20.4059 44.0436,20.1069 C43.8616,20.0309 43.6726,19.9529 43.5426,19.8059 C43.3626,19.6029 43.3306,19.3119 43.3246,19.0399 C43.3186,18.7689 43.3276,18.4849 43.2066,18.2419 C43.0856,17.9999 42.7946,17.8009 42.5536,17.9259 C42.5776,17.9429 42.5876,17.9699 42.6086,17.9899 C42.8436,18.2209 42.8246,18.6459 42.7126,18.9689 C42.5906,19.3209 42.3906,19.6669 42.4306,20.0369 C42.4836,20.5189 42.9286,20.8609 43.3736,21.0559 C43.8176,21.2509 44.2046,21.4249 44.5756,21.7369 C44.9006,22.0089 45.1306,22.4469 45.4326,22.7689 C45.7106,23.0649 46.5816,24.3609 47.3836,22.6819 C47.4006,22.6479 47.4166,22.6119 47.4326,22.5749 C47.4526,22.5309 47.4726,22.4939 47.4916,22.4459 C47.4896,22.4479 47.4866,22.4499 47.4846,22.4519 C47.0216,22.8339 46.6116,23.6719 45.4436,22.0499" id="Fill-129" fill="#006BA6"></path>
                <path d="M44.8415,18.0495 C45.3935,18.0495 45.8415,18.4975 45.8415,19.0495 C45.8415,19.6015 45.3935,20.0495 44.8415,20.0495 C44.2895,20.0495 43.8415,19.6015 43.8415,19.0495 C43.8415,18.4975 44.2895,18.0495 44.8415,18.0495" id="Fill-131" fill="#006BA6"></path>
                <path d="M37.5749,31.8703 C33.8529,32.1373 33.1539,34.0393 33.1279,35.3353 C33.0989,36.7343 33.8929,38.1073 33.8999,38.1333 C33.8999,38.1333 33.8989,38.1233 33.8989,38.1173 C33.8899,37.9513 33.8169,35.8133 35.5369,35.6273 C35.9919,35.5783 36.7629,35.5733 37.6629,35.5853 L37.7549,39.4323 L37.8039,39.4353 L41.0379,39.6413 L41.0379,39.6333 L41.1329,35.6633 C42.2799,35.6863 43.3179,35.6913 43.9459,35.6353 C43.9819,35.6313 44.0309,35.6243 44.0839,35.6153 C44.7969,35.4943 46.8929,34.8223 46.8849228,32.6663 C46.8789,31.1073 45.0039,30.0653 44.5959,29.8653 C44.5959,29.8653 44.6489,29.8993 44.7189,29.9603 C44.8739,30.0963 45.1169,30.3773 45.0829,30.7973 C45.0829,30.8023 45.0809,30.8053 45.0809,30.8093 C45.0719,30.8683 45.0659,30.9273 45.0459,30.9803 C45.0379,31.0053 45.0279,31.0293 45.0179,31.0543 C44.9429,31.2263 44.7919,31.3893 44.5119,31.5353 C44.4959,31.5433 44.4769,31.5513 44.4599,31.5603 C44.3539,31.6123 44.2369,31.6593 44.1099,31.7013 C44.0889,31.7073 44.0699,31.7153 44.0479,31.7223 C43.9119,31.7653 43.7639,31.8063 43.5929,31.8443 C43.5079,31.8633 43.4009,31.8753 43.2669,31.8823 C42.8989,31.9023 42.3039,31.8853 41.2229,31.8663 L41.2599,30.3573 L41.2959,28.8493 L41.2959,28.8483 L41.1929,28.8243 C41.0429,28.7893 40.8959,28.7553 40.7529,28.7243 L37.5539,27.9903 L37.4799,27.9733 L37.5369,30.3443 L37.5719,31.8153 L37.5749,31.8703 Z" id="Fill-133" fill="#006BA6"></path>
                <path d="M40.7952,49.7892 C42.0982,49.8102 43.8352,49.7992 44.9432,49.6012 C44.9562,49.5992 44.9692,49.5922 44.9822,49.5892 C46.1832,49.3482 47.4712,47.8092 47.4912,46.8592 C47.5242,45.2692 45.5942,44.3422 45.5552,44.3232 C45.5552,44.3232 45.5482,44.3202 45.5482,44.3202 C45.5472,44.3202 45.8872,44.6512 45.8872,45.0782 C45.8872,45.5382 45.6682,45.8772 45.3502,46.1292 C45.3482,46.1312 45.3452,46.1322 45.3432,46.1342 C45.2392,46.2162 45.1242,46.2892 45.0022,46.3532 C44.9972,46.3562 44.9912,46.3592 44.9852,46.3622 C44.6482,46.5392 44.2662,46.6532 43.9202,46.7362 C43.7562,46.7752 43.5992,46.8102 43.4622,46.8362 C42.9262,46.9392 42.3372,46.9862 41.8162,46.9892 C41.6542,46.9902 41.4982,46.9872 41.3532,46.9792 C41.2282,46.9742 41.0542,46.9722 40.8622,46.9732 L40.9562,43.0752 L40.9562,43.0722 L37.8372,42.8252 L37.8372,42.8272 C37.8372,42.8372 37.8832,44.7932 37.9332,46.9202 C37.9352,46.9872 37.9362,47.0542 37.9382,47.1212 C37.6972,47.1432 37.4692,47.1682 37.2842,47.1942 C35.6792,47.4252 34.3702,48.3312 34.3702,49.4782 C34.3702,50.4012 35.3572,51.5712 36.0242,51.7492 C36.0242,51.7492 36.0062,51.7392 35.9792,51.7242 C35.9682,51.7182 35.9542,51.7092 35.9402,51.7002 C35.8872,51.6692 35.8412,51.6342 35.7942,51.6002 C35.6222,51.4692 35.4072,51.2522 35.3212,50.9572 C35.3002,50.8752 35.2822,50.7912 35.2822,50.6982 C35.2822,50.6182 35.3062,50.5512 35.3302,50.4832 C35.4372,50.2262 35.7152,50.0632 35.9422,49.9762 C36.0242,49.9442 36.0992,49.9202 36.1552,49.9062 C36.1632,49.9042 36.1732,49.9032 36.1812,49.9012 C36.2792,49.8782 36.3882,49.8582 36.5032,49.8422 C36.5232,49.8392 36.5412,49.8352 36.5612,49.8322 C36.9872,49.7722 37.5032,49.7492 38.0022,49.7432 C38.0352,51.1582 38.0612,52.2312 38.0632,52.2502 C38.2232,52.2682 38.4882,52.2982 38.6972,52.3142 L40.7022,52.4292 L40.7332,52.4312 L40.7952,49.7892 Z" id="Fill-135" fill="#006BA6"></path>
                <path d="M41.3791,25.4044 L41.3791,25.3864 L41.4141,23.9644 C41.8731,23.9684 42.2951,23.7694 42.5921,23.3064 C43.1291,22.4724 42.7201,21.6214 41.8851,21.0844 L39.1911,18.9814 C38.3561,18.4444 37.2441,18.6854 36.7071,19.5204 C36.1701,20.3554 36.4111,21.4664 37.2461,22.0044 L37.3391,22.0524 L37.3391,22.0554 L37.3921,24.2884 L37.3931,24.3104 L41.3791,25.4044 Z" id="Fill-137" fill="#006BA6"></path>
                <path d="M39.3396,62.2091 C39.3356,62.2071 39.3306,62.2051 39.3256,62.2041 C38.9266,62.0481 38.3516,61.8091 38.2906,61.7831 C38.2876,61.7821 38.2786,61.7781 38.2786,61.7781 C38.3116,62.9071 38.4826,64.1091 39.3996,64.1091 C40.0826,64.1091 40.4366,62.6921 40.4586,62.6331 C40.4366,62.6231 40.3276,62.5831 40.1926,62.5311 C39.9656,62.4471 39.6406,62.3261 39.3396,62.2091" id="Fill-139" fill="#006BA6"></path>
                <path d="M44.3396135,57.6954 C44.3336,56.6304 43.2596,56.4404 42.7566,56.2444 C42.7656,56.2504 42.7706,56.2584 42.7796,56.2644 C42.8296,56.2994 42.8726,56.3374 42.9106,56.3754 C42.9226,56.3874 42.9366,56.3984 42.9476,56.4114 C42.9866,56.4564 43.0166,56.5044 43.0406,56.5524 C43.0476,56.5664 43.0546,56.5804 43.0596,56.5944 C43.0796,56.6434 43.0926,56.6924 43.0986,56.7414 C43.1006,56.7554 43.0996,56.7684 43.0996,56.7824 C43.1056,56.9274 43.0536,57.0684 42.9606,57.1884 C42.9306,57.2254 42.9006,57.2614 42.8606,57.2954 C42.8436,57.3104 42.8246,57.3254 42.8056,57.3394 C42.7346,57.3914 42.6546,57.4384 42.5636,57.4674 C42.5626,57.4684 42.5586,57.4684 42.5566,57.4694 C42.1706,57.5924 41.2596,57.5144 40.6116,57.4664 L40.6346,56.5274 L40.6536,55.7264 L38.1326,55.1884 L38.1646,56.5274 L38.1836,57.3424 L38.1876,57.4934 C37.4316,57.6044 36.9536,57.8454 36.7586,58.2584 C36.4866,58.8364 36.6436,59.5424 37.4766,59.8594 C37.4756,59.8584 37.4756,59.8574 37.4746,59.8564 C36.8906,59.2184 37.6726,58.9004 37.9756,58.8144 C37.9846,58.8124 37.9956,58.8074 38.0036,58.8054 C38.0726,58.7884 38.1476,58.7844 38.2186,58.7724 L38.2186,58.7784 L38.2516,60.1524 L38.2516,60.1544 C38.2516,60.1544 38.2846,60.1624 38.3316,60.1734 C38.3346,60.1744 38.3386,60.1744 38.3416,60.1754 C38.4646,60.2044 38.6936,60.2554 38.8606,60.2794 C38.8656,60.2804 38.8756,60.2824 38.8816,60.2834 C39.1106,60.3174 39.8286,60.4394 39.9756,60.4674 C39.9816,60.4684 39.9926,60.4704 39.9986,60.4724 C40.1316,60.4984 40.3936,60.5534 40.4906,60.5744 C40.5126,60.5794 40.5376,60.5844 40.5376,60.5844 L40.5776,58.9074 C41.2896,59.0004 42.0406,59.0684 42.8076,58.9374 C42.8086,58.9374 42.8126,58.9364 42.8136,58.9364 C42.9556,58.9114 44.3446,58.5614 44.3396135,57.6954" id="Fill-141" fill="#006BA6"></path>
                <polygon id="Fill-143" fill="#006BA6" points="19.4802 37.9533 20.0312 38.6003 21.3272 37.5183 21.3272 43.2203 22.2542 43.2203 22.2542 36.3773 21.4222 36.3773"></polygon>
                <path d="M27.1018,39.0255 C27.0348,39.1995 26.9378,39.3515 26.8118,39.4805 C26.6868,39.6085 26.5358,39.7085 26.3578,39.7795 C26.1808,39.8505 25.9858,39.8855 25.7728,39.8855 C25.5598,39.8855 25.3668,39.8505 25.1928,39.7795 C25.0188,39.7095 24.8708,39.6085 24.7488,39.4805 C24.6258,39.3515 24.5318,39.1995 24.4638,39.0255 C24.3958,38.8515 24.3618,38.6615 24.3618,38.4555 C24.3618,38.2425 24.3958,38.0465 24.4638,37.8655 C24.5318,37.6855 24.6278,37.5315 24.7528,37.4025 C24.8788,37.2735 25.0288,37.1715 25.2028,37.0985 C25.3758,37.0245 25.5698,36.9865 25.7828,36.9865 C25.9948,36.9865 26.1878,37.0255 26.3618,37.1035 C26.5358,37.1805 26.6858,37.2855 26.8108,37.4175 C26.9368,37.5495 27.0338,37.7045 27.1008,37.8815 C27.1688,38.0585 27.2028208,38.2475 27.2028208,38.4465 C27.2038,38.6585 27.1688,38.8515 27.1018,39.0255 M27.4608,36.8415 C27.2518,36.6425 27.0028,36.4855 26.7128,36.3735 C26.4238,36.2605 26.1118,36.2035 25.7778,36.2035 C25.4438,36.2035 25.1318,36.2585 24.8418,36.3675 C24.5528,36.4775 24.3018,36.6315 24.0898,36.8325 C23.8778,37.0315 23.7118,37.2715 23.5928,37.5515 C23.4738,37.8325 23.4138,38.1435 23.4138,38.4845 C23.4138,38.7945 23.4688,39.0805 23.5778,39.3445 C23.6878,39.6085 23.8378,39.8365 24.0318,40.0255 C24.2248,40.2155 24.4498,40.3645 24.7068,40.4705 C24.9638,40.5765 25.2438,40.6305 25.5458,40.6305 C25.6168,40.6305 25.6918,40.6255 25.7718,40.6155 C25.8528,40.6065 25.9318,40.5945 26.0088,40.5815 C26.1758,40.5495 26.3078,40.5045 26.4038,40.4465 L26.4138,40.4565 L24.5808,43.2205 L25.6908,43.2205 L27.4748,40.3985 C27.6678,40.0835 27.8258,39.7745 27.9478,39.4715 C28.0698,39.1685 28.1308,38.8305 28.1308,38.4565 C28.1308,38.1345 28.0708,37.8345 27.9518,37.5575 C27.8338,37.2795 27.6698,37.0415 27.4608,36.8415" id="Fill-145" fill="#006BA6"></path>
                <path d="M50.8718,40.8815 L53.0368,37.4505 L53.0558,37.4505 L53.0558,40.8815 L50.8718,40.8815 Z M53.0558,43.2195 L53.9638,43.2195 L53.9638,41.6835 L54.9498,41.6835 L54.9498,40.8815 L53.9638,40.8815 L53.9638,36.3775 L52.8138,36.3775 L49.9048,40.8325 L49.9048,41.6835 L53.0558,41.6835 L53.0558,43.2195 Z" id="Fill-147" fill="#006BA6"></path>
                <path d="M56.3376,40.7897 C56.4046,40.6317 56.4986,40.4947 56.6176,40.3787 C56.7366,40.2637 56.8786,40.1727 57.0426,40.1077 C57.2076,40.0437 57.3856,40.0117 57.5796,40.0117 C57.7726,40.0117 57.9516,40.0437 58.1156,40.1077 C58.2796,40.1727 58.4206,40.2627 58.5356,40.3787 C58.6516,40.4947 58.7436,40.6317 58.8116,40.7897 C58.8786,40.9477 58.9126,41.1197 58.9126,41.3067 C58.9126,41.4997 58.8796,41.6767 58.8116,41.8377 C58.7436,41.9987 58.6516,42.1367 58.5356,42.2487 C58.4206,42.3617 58.2796,42.4507 58.1156,42.5147 C57.9516,42.5797 57.7726,42.6117 57.5796,42.6117 C57.3796,42.6117 57.1976,42.5797 57.0336,42.5147 C56.8686,42.4507 56.7276,42.3617 56.6086,42.2487 C56.4886,42.1367 56.3976,41.9987 56.3326,41.8377 C56.2686,41.6777 56.2356,41.4997 56.2356,41.3067 C56.2356,41.1197 56.2696,40.9477 56.3376,40.7897 M56.5306,38.5297 C56.4756,38.3937 56.4486,38.2487 56.4486,38.0937 C56.4486,37.9317 56.4756,37.7817 56.5306,37.6427 C56.5856,37.5027 56.6636,37.3827 56.7636,37.2827 C56.8636,37.1827 56.9836,37.1047 57.1226,37.0497 C57.2616,36.9947 57.4126,36.9677 57.5746,36.9677 C57.7296,36.9677 57.8746,36.9957 58.0106,37.0497 C58.1466,37.1047 58.2646,37.1827 58.3646,37.2827 C58.4646,37.3827 58.5456,37.5027 58.6076,37.6427 C58.6696,37.7807 58.6996,37.9317 58.6996,38.0937 C58.6996,38.2487 58.6706,38.3947 58.6116,38.5297 C58.5536,38.6657 58.4736,38.7837 58.3696,38.8847 C58.2666,38.9847 58.1466,39.0637 58.0106,39.1227 C57.8746,39.1807 57.7286,39.2097 57.5736,39.2097 C57.4116,39.2097 57.2616,39.1807 57.1226,39.1227 C56.9836,39.0647 56.8636,38.9847 56.7636,38.8847 C56.6636,38.7837 56.5866,38.6657 56.5306,38.5297 M55.9606,42.8527 C56.1696,43.0267 56.4146,43.1617 56.6946,43.2537 C56.9756,43.3477 57.2706,43.3947 57.5796,43.3947 C57.8886,43.3947 58.1816,43.3477 58.4586,43.2537 C58.7356,43.1617 58.9796,43.0267 59.1886,42.8527 C59.3976,42.6787 59.5636,42.4667 59.6866,42.2147 C59.8086,41.9637 59.8696,41.6777 59.8696,41.3547 C59.8696,41.1357 59.8366,40.9297 59.7686,40.7367 C59.7006,40.5427 59.6086,40.3727 59.4926,40.2237 C59.3776,40.0757 59.2396,39.9487 59.0826,39.8417 C58.9246,39.7357 58.7556,39.6607 58.5746,39.6147 L58.5746,39.5957 C58.8846,39.4927 59.1376,39.3027 59.3336,39.0247 C59.5306,38.7477 59.6286,38.4227 59.6286,38.0497 C59.6286,37.7657 59.5736,37.5097 59.4646,37.2817 C59.3546,37.0527 59.2086,36.8597 59.0246,36.7017 C58.8406,36.5437 58.6236,36.4207 58.3726,36.3337 C58.1206,36.2477 57.8566,36.2037 57.5796,36.2037 C57.2966,36.2037 57.0306,36.2477 56.7826,36.3337 C56.5346,36.4217 56.3166,36.5467 56.1306,36.7107 C55.9436,36.8747 55.7956,37.0717 55.6856,37.3007 C55.5766,37.5297 55.5216,37.7857 55.5216,38.0687 C55.5216,38.4497 55.6196,38.7707 55.8166,39.0357 C56.0126,39.2997 56.2656,39.4867 56.5746,39.5957 L56.5746,39.6157 C56.4006,39.6667 56.2356,39.7427 56.0776,39.8427 C55.9196,39.9427 55.7806,40.0667 55.6616,40.2147 C55.5426,40.3627 55.4496,40.5337 55.3816,40.7267 C55.3146,40.9197 55.2796,41.1287 55.2796,41.3547 C55.2796,41.6767 55.3406,41.9627 55.4636,42.2147 C55.5856,42.4667 55.7516,42.6787 55.9606,42.8527" id="Fill-149" fill="#006BA6"></path>
            </g>
        </g>
    </g>
</svg>