<?xml version="1.0" encoding="UTF-8"?>
<svg width="11px" height="18px" viewBox="0 0 11 18" version="1.1" xmlns="http://www.w3.org/2000/svg" xmlns:xlink="http://www.w3.org/1999/xlink">
    <title>pin</title>
    <g id="Host-Control" stroke="none" stroke-width="1" fill="none" fill-rule="evenodd">
        <g id="Guest-List" transform="translate(-45.000000, -267.000000)">
            <g id="Group-5" transform="translate(40.000000, 266.000000)">
                <rect id="Rectangle" x="0" y="0" width="20" height="20"></rect>
                <path d="M10.8775,17.6093282 C10.8775,17.6093282 10.6715,19 10.5005,19 C10.3095,19 10.1225,17.6093282 10.1225,17.6093282 L10.1225,6 L10.8775,6 L10.8775,17.6093282 Z" id="Fill-1" fill="#646464"></path>
                <path d="M15.8753494,11.9321615 L14.4016628,9.84592145 L13.4300631,4.17714913 L13.4412955,4.17714913 C13.6322457,4.17714913 13.8108403,4.06838781 13.9197943,3.88492172 L14.9936086,2.06673991 C15.2598157,1.6152156 14.9834994,1 14.5151097,1 L6.48509068,1 C6.01670099,1 5.741508,1.6152156 6.00771509,2.06673991 L7.08152936,3.88492172 C7.18936009,4.06838781 7.36795472,4.17714913 7.55890495,4.17714913 L7.56901408,4.17714913 L6.59966083,9.84592145 L5.12485106,11.9321615 C4.80585184,12.3836858 5.13496019,13 5.6954553,13 L15.3036219,13 C15.864117,13 16.1943486,12.3836858 15.8753494,11.9321615" id="Fill-3" fill="#8B8B8B"></path>
            </g>
        </g>
    </g>
</svg>