<svg xmlns="http://www.w3.org/2000/svg" width="134" height="43" viewBox="0 0 134 43">
  <g fill="none">
    <path fill="#A6A6A6" d="M123.329076,-0.000136955 L10.6769486,-0.000136955 C10.2663174,-0.000136955 9.8606133,-0.000136955 9.45106831,0.00215279484 C9.1082411,0.00430279469 8.76814619,0.0105485443 8.42202676,0.0158052939 C7.6700954,0.0242997322 6.91993233,0.0878047683 6.17805662,0.205768531 C5.43722294,0.326300347 4.71959643,0.553537177 4.04944843,0.879793483 C3.38012004,1.2088098 2.76853555,1.63633278 2.2368818,2.14685289 C1.70243695,2.65593738 1.25693591,3.24437017 0.917509324,3.88952452 C0.577145942,4.53339478 0.341136874,5.2233611 0.217633413,5.93559338 C0.0929557729,6.6469261 0.0258656003,7.36646186 0.0169649921,8.08774323 C0.00657323456,8.41733821 0.00547582913,8.74802968 0,9.07766766 L0,33.9254954 C0.00547582913,34.2592829 0.00657323456,34.5826429 0.0169649921,34.9165379 C0.0258683297,35.6377834 0.0929585034,36.3572833 0.217633413,37.0685802 C0.340795844,37.7812289 0.576818866,38.4715912 0.917509324,39.1157026 C1.25678179,39.7587706 1.70234548,40.3448211 2.2368818,40.8510749 C2.76651969,41.363865 3.37849949,41.7916788 4.04944843,42.1181773 C4.71959134,42.4453069 5.43714048,42.6738962 6.17805662,42.7962873 C6.92005845,42.9133061 7.67014437,42.976837 8.42202676,42.9863473 C8.76814619,42.9936573 9.1082411,42.9978498 9.45106831,42.9978498 C9.8606021,42.9999998 10.2663398,42.9999998 10.6769486,42.9999998 L123.329076,42.9999998 C123.731533,42.9999998 124.140484,42.9999998 124.542941,42.9978498 C124.884144,42.9978498 125.234082,42.9936573 125.575286,42.9863473 C126.325747,42.9773428 127.07442,42.9138079 127.814889,42.7962873 C128.558195,42.6730347 129.278317,42.4445058 129.951694,42.1181773 C130.622038,41.7914898 131.233452,41.3636876 131.762637,40.8510749 C132.295794,40.3428384 132.742309,39.7572166 133.085794,39.1157026 C133.423928,38.4711227 133.657704,37.7808155 133.779063,37.0685802 C133.903938,36.3571857 133.973408,35.6378459 133.986898,34.9165379 C133.991266,34.5826429 133.991266,34.2592829 133.991266,33.9254954 C134,33.5349479 134,33.1465505 134,32.7496605 L134,10.2513418 C134,9.8576661 134,9.46714013 133.991266,9.07766766 C133.991266,8.74802968 133.991266,8.41733821 133.986898,8.08770023 C133.973411,7.36635641 133.90394,6.64698068 133.779063,5.93555038 C133.657366,5.22373015 133.423604,4.5338185 133.085794,3.88948152 C132.394568,2.5963384 131.298483,1.54372999 129.951694,0.879696733 C129.278315,0.55423769 128.558116,0.327061213 127.814889,0.205671781 C127.074549,0.0871882808 126.325797,0.0236611406 125.575286,0.0156547939 C125.234082,0.0104087943 124.884144,0.0041092947 124.542941,0.00201304485 C124.140484,-0.000136955 123.731533,-0.000136955 123.329076,-0.000136955 L123.329076,-0.000136955 Z"/>
    <path fill="#000" d="M9.47605736,42.1996542 C9.13499204,42.1996542 8.80216567,42.1954455 8.46377578,42.1881072 C7.76277369,42.179302 7.06341002,42.1204709 6.37142046,42.0120963 C5.72617511,41.9049662 5.1011058,41.7056846 4.51683025,41.4208249 C3.93791218,41.1383255 3.40989237,40.7679043 2.95299855,40.3237516 C2.48949129,39.8848309 2.10360032,39.3757577 1.81061781,38.8167057 C1.51440689,38.2540204 1.3094113,37.6508895 1.20277199,37.028323 C1.0876108,36.3593682 1.02530382,35.6829495 1.01638833,35.0048994 C1.0092912,34.7773047 1,34.0195191 1,34.0195191 L1,9.09033585 C1,9.09033585 1.00989569,8.34419435 1.0164443,8.12498473 C1.02498081,7.44800875 1.08692548,6.77263964 1.20174212,6.10472305 C1.30857827,5.48045109 1.51373256,4.87558101 1.81010288,4.31105245 C2.1020086,3.75238664 2.48575718,3.2429333 2.94647232,2.80244176 C3.40666963,2.35776493 3.93637847,1.98543631 4.51628173,1.69903379 C5.09921445,1.41508929 5.72310246,1.21721351 6.36704352,1.1120359 C7.06130569,1.00257261 7.76309728,0.94339146 8.46652955,0.934989035 L9.47660587,0.9218125 L124.51792,0.9218125 L125.540064,0.935517823 C126.237098,0.943502735 126.932514,1.00215591 127.620397,1.11097833 C128.270856,1.21747523 128.901246,1.4167317 129.490838,1.70219573 C130.652594,2.27937979 131.597893,3.19253943 132.19424,4.31368559 C132.48588,4.87431699 132.68787,5.47425313 132.793355,6.09313288 C132.909539,6.76652975 132.974563,7.44720617 132.98791,8.12973303 C132.991157,8.43535093 132.991157,8.76363118 132.991157,9.09033585 C133,9.49502057 133,9.88020489 133,10.2685511 L133,32.8539192 C133,33.2459777 133,33.6285397 132.991157,34.0142312 C132.991157,34.3651738 132.991157,34.6866553 132.986791,35.0175256 C132.973733,35.687873 132.909792,36.3563999 132.795482,37.0177472 C132.691028,37.6448048 132.487149,38.2526434 132.190994,38.8199432 C131.895941,39.3729272 131.512266,39.8775907 131.05411,40.3153342 C130.596805,40.7618737 130.067853,41.1344622 129.487591,41.4187745 C128.899633,41.7058241 128.270171,41.9058426 127.620397,42.0120963 C126.928459,42.1210493 126.229029,42.1798842 125.527974,42.1881072 C125.200096,42.1954455 124.856769,42.1996542 124.523405,42.1996542 L123.309953,42.2018125 L9.47605736,42.1996542 Z"/>
    <path fill="#FFF" d="M53.4866562,22.4897493 C55.8802083,22.4897598 57.4580104,24.4033372 57.4580104,27.3591106 C57.4580104,30.238426 55.9777603,32.1177457 53.7231851,32.2227849 L53.5222604,32.2274289 C52.2987034,32.2921608 51.1461796,31.6440118 50.5549375,30.5586849 L50.5101458,30.5586849 L50.5101458,35.2829792 L48.5743125,35.2829792 L48.5743125,22.5895473 L50.448125,22.5895473 L50.448125,24.1759708 L50.4837292,24.1759708 C51.1012378,23.097448 52.2550044,22.4495781 53.4866562,22.4897493 Z M63.8666667,22.4897598 C66.2602917,22.4897598 67.8380521,24.4033372 67.8380521,27.3591106 C67.8380521,30.238426 66.3578019,32.1177457 64.1032267,32.2227849 L63.9023021,32.2274289 C62.6787451,32.2921608 61.5262213,31.6440118 60.9349792,30.5586849 L60.8901875,30.5586849 L60.8901875,35.2829792 L58.9543542,35.2829792 L58.9543542,22.5895473 L60.828125,22.5895473 L60.828125,24.1759708 L60.8637292,24.1759708 C61.4812423,23.0974487 62.6350134,22.4495826 63.8666667,22.4897598 Z M77.7644062,18.8271406 C80.4977396,18.8271406 82.3715417,20.3775555 82.4346146,22.6347636 L80.4804479,22.6347636 C80.3634687,21.3292031 79.2963646,20.541143 77.7369167,20.541143 C76.1774687,20.541143 75.110375,21.3384739 75.110375,22.4989674 C75.110375,23.4238667 75.7919375,23.9681048 77.4592083,24.3847324 L78.884375,24.7386452 C81.5383854,25.3734211 82.6410937,26.4516362 82.6410937,28.3651925 C82.6410937,30.8127259 80.7133958,32.3456526 77.6473958,32.3456526 C74.7787396,32.3456526 72.8418958,30.8487345 72.7167708,28.4824681 L74.6984062,28.482563 C74.8418437,29.7798955 76.0879896,30.631703 77.7908542,30.631703 C79.4225313,30.631703 80.5964375,29.7798534 80.5964375,28.6100891 C80.5964375,27.5946521 79.8884271,26.9866456 78.212,26.5699653 L76.5355729,26.1615234 C74.1602917,25.5812766 73.0575833,24.4578137 73.0575833,22.6347636 C73.0575833,20.3775555 75.0025729,18.8271406 77.7644062,18.8271406 Z M94.1239062,22.4722717 C96.8582812,22.4722717 98.5977812,24.3580367 98.5977812,27.3591106 C98.5977812,30.3683806 96.8674375,32.2459494 94.1239062,32.2459494 C91.3813437,32.2459494 89.6510417,30.3683701 89.6510417,27.3591106 C89.6510417,24.3580788 91.3986771,22.4722717 94.1239062,22.4722717 Z M109.799729,22.4722612 C112.408979,22.4722612 114.049812,24.2850186 114.049812,27.1770025 L114.049812,27.8477871 L107.388844,27.8477871 L107.388844,27.9660951 C107.326654,28.6761874 107.569095,29.3790803 108.0545,29.8959806 C108.539904,30.4128809 109.221487,30.6939683 109.925875,30.6677432 C110.865294,30.7567635 111.750982,30.211196 112.103812,29.3261742 L113.941979,29.3261847 C113.681562,31.0576646 112.014281,32.2459389 109.881104,32.2459389 C107.137573,32.2459389 105.434698,30.3868801 105.434698,27.4043689 C105.434698,24.4125975 107.146729,22.4722612 109.799729,22.4722612 Z M86.8189687,20.3323393 L86.8189687,22.5895473 L88.6123854,22.5895473 L88.6123854,24.1399622 L86.8189687,24.1399622 L86.8189687,29.3982019 C86.8189687,30.2150753 87.1780625,30.5957365 87.9664271,30.5957365 C88.1793348,30.5919817 88.3918981,30.5768605 88.6032292,30.550436 L88.6032292,32.0915906 C88.2487795,32.1585716 87.8885113,32.1889071 87.5279896,32.1821284 C85.6186146,32.1821284 84.8739792,31.4568147 84.8739792,29.6070162 L84.8739792,24.1399622 L83.5027292,24.1399622 L83.5027292,22.5895473 L84.8739583,22.5895473 L84.8739583,20.3323393 L86.8189687,20.3323393 Z M42.7017396,19.0452784 L47.3719479,32.1276414 L45.2479167,32.1276414 L44.0648646,28.5916213 L39.1342396,28.5916213 L37.9501562,32.1276414 L35.8617396,32.1276414 L40.5319479,19.0452784 L42.7017396,19.0452784 Z M104.353385,22.4897387 C104.576473,22.488951 104.798945,22.5134538 105.016635,22.5627884 L105.016635,24.3940664 C104.735001,24.3070297 104.441208,24.2670683 104.146844,24.2757584 C103.577727,24.252408 103.026949,24.4817963 102.639127,24.9036928 C102.251304,25.3255892 102.065184,25.8978436 102.129635,26.4701989 L102.129635,32.1276203 L100.193802,32.1276203 L100.193802,22.5895473 L102.040125,22.5895473 L102.040125,24.2129908 L102.084917,24.2129908 C102.342392,23.1679066 103.289221,22.4486433 104.353385,22.4897387 Z M94.1238958,24.0854436 C92.5552917,24.0854436 91.6234896,25.3097265 91.6234896,27.3591106 C91.6234896,29.4259827 92.5552917,30.6317556 94.1238958,30.6317556 C95.6925,30.6317556 96.6253229,29.4259827 96.6253229,27.3591106 C96.6253229,25.3004662 95.6925,24.0854436 94.1238958,24.0854436 Z M52.9759896,24.1584827 C51.4969062,24.1584827 50.5020312,25.4547829 50.5020312,27.3591106 C50.5020312,29.2809263 51.4969062,30.5679662 52.9759896,30.5679662 C54.4815312,30.5679662 55.4682604,29.3076747 55.4682604,27.3591106 C55.4682604,25.4280451 54.4815208,24.1584827 52.9759896,24.1584827 Z M63.3560312,24.1584827 C61.8769479,24.1584827 60.8820729,25.4547829 60.8820729,27.3591106 C60.8820729,29.2809263 61.8769479,30.5679662 63.3560312,30.5679662 C64.8615729,30.5679662 65.8483125,29.3076747 65.8483125,27.3591106 C65.8483125,25.4280451 64.8615625,24.1584827 63.3560312,24.1584827 Z M41.6265521,21.2212299 L41.5726354,21.2212299 L39.6448958,26.9599289 L43.5532292,26.9599289 L41.6265521,21.2212299 Z M109.799729,24.0586847 C109.163002,24.0548418 108.551136,24.3083901 108.100131,24.7629739 C107.649125,25.2175577 107.39635,25.8355103 107.397974,26.4794802 L112.112958,26.4794802 C112.148089,25.8414042 111.918434,25.2174431 111.479323,24.7579153 C111.040212,24.2983876 110.431459,24.044958 109.799729,24.0586847 Z"/>
    <path fill="#FFF" d="M70.7121487,2.10791 C72.0187757,2.10791 72.8070297,2.96391 72.8070297,4.37791 L72.8070297,4.688 L69.4910673,4.688 L69.4910673,4.7378 C69.4617234,5.07194014 69.5807329,5.40244775 69.8188277,5.6480407 C70.0229089,5.85854894 70.2982503,5.98992869 70.5929561,6.02082458 L70.7416824,6.0278 C71.1950874,6.07999468 71.6364461,5.86433304 71.8588849,5.4819 L72.7510179,5.48193 C72.4911452,6.33130948 71.6339603,6.88010304 70.7162263,6.78466 C70.0900572,6.8005102 69.4882739,6.5516307 69.0705437,6.10405516 C68.6528136,5.65647963 68.4613672,5.05545594 68.547,4.46045 C68.4636417,3.86379048 68.6543707,3.26180373 69.0697747,2.81044696 C69.4851787,2.35909018 70.0843821,2.10277675 70.7121487,2.10791 Z M10.3545432,2.42859737 C11.0730012,2.85611193 11.4766041,3.63722505 11.3960821,4.44434 C11.4781362,5.25232226 11.0749016,6.03495038 10.3558066,6.4633853 C9.63671168,6.89182022 8.72636532,6.89182022 8.00727036,6.4633853 C7.2881754,6.03495038 6.88494083,5.25232226 6.96699486,4.44434 C6.88647286,3.63722505 7.29007582,2.85611193 8.00853375,2.42859737 C8.72699169,2.0010828 9.63608531,2.0010828 10.3545432,2.42859737 Z M30.7292901,2.4285182 C31.4478014,2.85603936 31.851468,3.63717225 31.7710079,4.44434 C31.8529577,5.25235119 31.4496492,6.03495719 30.7305186,6.46337324 C30.0113879,6.89178929 29.1010295,6.89178929 28.3818989,6.46337324 C27.6627682,6.03495719 27.2594598,5.25235119 27.3414096,4.44434 C27.2609494,3.63717225 27.664616,2.85603936 28.3831273,2.4285182 C29.1016385,2.00099704 30.0107789,2.00099704 30.7292901,2.4285182 Z M49.5131198,2.42859737 C50.2315778,2.85611193 50.6351807,3.63722505 50.5546587,4.44434 C50.6367127,5.25232226 50.2334782,6.03495038 49.5143832,6.4633853 C48.7952882,6.89182022 47.8849419,6.89182022 47.1658469,6.4633853 C46.446752,6.03495038 46.0435174,5.25232226 46.1255714,4.44434 C46.0450494,3.63722505 46.4486524,2.85611193 47.1671103,2.42859737 C47.8855683,2.0010828 48.7946619,2.0010828 49.5131198,2.42859737 Z M34.846623,2.10792 C36.0239149,2.10792 36.6879229,2.66992 36.6879229,3.6211 L36.6879229,6.69776 L35.7957899,6.69776 L35.7957899,6.06495 L35.7224666,6.06495 C35.419463,6.52707633 34.8806239,6.79716323 34.3119606,6.77195 C33.913314,6.81171181 33.5157299,6.68791066 33.2174985,6.43115244 C32.9192671,6.17439423 32.7482235,5.80864331 32.7466529,5.42432 C32.7466529,4.61377 33.376038,4.14649 34.49323,4.08008 L35.7652341,4.00977 L35.7652341,3.6211 C35.7652341,3.14551 35.4373077,2.87696 34.8038554,2.87696 C34.2865044,2.87696 33.9280223,3.05909 33.8251549,3.37745 L32.9279327,3.37745 C33.022645,2.60401 33.7813653,2.10792 34.846623,2.10792 Z M42.291236,0.437 L42.291236,6.69774 L41.4031806,6.69774 L41.4031806,5.98631 L41.3298573,5.98631 C41.0288722,6.49073698 40.4608492,6.79335648 39.8551947,6.77195 C38.6605914,6.772 37.9059383,5.87061 37.9059383,4.44434 C37.9059383,3.02149 38.6687361,2.12012 39.8551843,2.12012 C40.4542815,2.09365013 41.0153916,2.40147287 41.295224,2.91012 L41.3644801,2.91012 L41.3644801,0.437 L42.291236,0.437 Z M61.0229526,1.07373 L61.0229526,2.21533 L62.0403536,2.21533 L62.0403536,2.96387 L61.0229526,2.96387 L61.0229526,5.2793 C61.0229526,5.75098 61.2256214,5.95752 61.6869606,5.95752 C61.80507,5.95715754 61.9230608,5.95030966 62.0403536,5.93701 L62.0403536,6.67724 C61.8739235,6.70579072 61.7052999,6.72098004 61.5362364,6.72265 C60.5056016,6.72265 60.0951747,6.37499 60.0951747,5.50683 L60.0951747,2.96383 L59.3496987,2.96383 L59.3496987,2.21529 L60.0951747,2.21529 L60.0951747,1.07373 L61.0229526,1.07373 Z M5.14312249,1.54887182 C5.71030019,2.12319621 5.97899813,2.91114479 5.875259,3.69584 C5.875259,5.60209 4.80083457,6.69784 2.94731243,6.69784 L0.699673714,6.69784 L0.699673714,0.731 L2.94731243,0.731 C3.77007098,0.674384181 4.57594479,0.974547428 5.14312249,1.54887182 Z M13.0051899,2.19482 L13.8464001,5.63082 L13.9156563,5.63082 L14.8811126,2.19482 L15.77019,2.19482 L16.7356463,5.63082 L16.8089696,5.63082 L17.6461023,2.19482 L18.5728581,2.19482 L17.2835426,6.69775 L16.3221639,6.69775 L15.3516184,3.38134 L15.2782951,3.38134 L14.3118169,6.69775 L13.3595944,6.69775 L12.0651897,2.19482 L13.0051899,2.19482 Z M22.0242669,2.1079 C22.4871044,2.07453177 22.9406524,2.2447899 23.2568518,2.57060207 C23.5730512,2.89641424 23.7175885,3.34242376 23.6496536,3.7827 L23.6496536,6.6977 L22.7228977,6.6977 L22.7228977,4.00586 C22.7228977,3.28223 22.3949713,2.92236 21.7095743,2.92236 C21.3956387,2.90833912 21.0909725,3.02648257 20.8754498,3.24581678 C20.6599271,3.465151 20.5550428,3.76380101 20.5882943,4.06347 L20.5882943,6.69775 L19.6615384,6.69775 L19.6615384,2.19482 L20.5536714,2.19482 L20.5536714,2.91015 L20.6229276,2.91015 C20.8637596,2.38347794 21.4265145,2.06130747 22.0242669,2.1079 Z M26.053116,0.437 L26.053116,6.69774 L25.1263601,6.69774 L25.1263601,0.437 L26.053116,0.437 Z M54.1608691,2.1079 C54.6237067,2.07453177 55.0772547,2.2447899 55.3934541,2.57060207 C55.7096535,2.89641424 55.8541908,3.34242376 55.7862559,3.7827 L55.7862559,6.6977 L54.8595,6.6977 L54.8595,4.00586 C54.8595,3.28223 54.5315736,2.92236 53.8461766,2.92236 C53.5322409,2.90833912 53.2275748,3.02648257 53.0120521,3.24581678 C52.7965294,3.465151 52.6916451,3.76380101 52.7248966,4.06347 L52.7248966,6.69775 L51.7981407,6.69775 L51.7981407,2.19482 L52.6902737,2.19482 L52.6902737,2.91015 L52.7595299,2.91015 C53.0003619,2.38347794 53.5631168,2.06130747 54.1608691,2.1079 Z M64.2248473,0.437 L64.2248473,2.91845 L64.2981706,2.91845 C64.550571,2.38716856 65.123175,2.06458754 65.7300134,2.11181 C66.1902227,2.08779728 66.6376311,2.26180371 66.9503745,2.58643385 C67.2631179,2.91106399 67.4086223,3.35250564 67.3472554,3.79052 L67.3472554,6.69775 L66.4195714,6.69775 L66.4195714,4.00975 C66.4195714,3.33845933 66.1152425,2.97639569 65.5422891,2.93110405 L65.4154147,2.92625 C65.0929935,2.90089367 64.7753393,3.01329096 64.5473741,3.2333935 C64.319409,3.45349605 64.204378,3.75886031 64.2330337,4.06785 L64.2330337,6.69775 L63.3062779,6.69775 L63.3062361,0.437 L64.2248473,0.437 Z M35.7652341,4.66309 L34.618498,4.7334 C33.9718014,4.7749 33.6784979,4.98584 33.6784979,5.38281 C33.6784979,5.7543075 33.9865663,5.98343674 34.4262417,6.0190451 L34.5492836,6.02392 C34.8477348,6.05288986 35.1456689,5.96447505 35.3748827,5.77891559 C35.6040964,5.59335613 35.7449627,5.32654106 35.7652341,5.03955 L35.7652341,4.66309 Z M9.18306629,2.89747 C8.37750086,2.89747 7.92433771,3.46827 7.92433771,4.44435 C7.92433771,5.42824 8.37753214,5.99464 9.18306629,5.99464 C9.98558657,5.99464 10.4428481,5.42432 10.4428481,4.44434 C10.4428481,3.46827 9.98556571,2.89747 9.18306629,2.89747 Z M29.557481,2.89747 C28.7519156,2.89747 28.2987524,3.46827 28.2987524,4.44435 C28.2987524,5.42824 28.7519469,5.99464 29.557481,5.99464 C30.3599909,5.99464 30.8172629,5.42432 30.8172629,4.44434 C30.8172629,3.46827 30.3599804,2.89747 29.557481,2.89747 Z M48.3416429,2.89747 C47.5360774,2.89747 47.0829143,3.46827 47.0829143,4.44435 C47.0829143,5.42824 47.5361087,5.99464 48.3416429,5.99464 C49.1441527,5.99464 49.6014143,5.42432 49.6014143,4.44434 C49.6014143,3.46827 49.1441423,2.89747 48.3416429,2.89747 Z M40.1179739,2.91846 C39.3378333,2.91846 38.8632499,3.49707 38.8632499,4.44434 C38.8632811,5.39942 39.3327754,5.97413 40.1179739,5.97413 C40.8990739,5.97413 41.3818229,5.39113 41.3818229,4.44825 C41.3818229,3.50977 40.8940056,2.91846 40.1179739,2.91846 Z M2.83935586,1.57421 L1.66614157,1.57421 L1.66614157,5.854 L2.83935586,5.854 C3.4273416,5.88770201 3.99986452,5.66555901 4.39795645,5.24925179 C4.79604838,4.83294457 4.97732731,4.26679442 4.89145886,3.708 C4.97107997,3.15152453 4.78719044,2.59004622 4.39008555,2.17713398 C3.99298066,1.76422175 3.42421691,1.5430863 2.83935586,1.57421 Z M70.7070283,2.86426 C70.3832128,2.86035891 70.0714777,2.98202124 69.8425376,3.20164888 C69.6135975,3.42127653 69.4868574,3.72025374 69.4910673,4.03076 L71.8629311,4.03076 C71.8865549,3.72516044 71.7744952,3.42420507 71.5543674,3.20205909 C71.3342395,2.97991311 71.0265154,2.85723623 70.7070283,2.86426 Z" transform="translate(36 9)"/>
    <path fill="#FFF" d="M15.5517908 12.9587664C15.5745585 11.1715343 16.5010022 9.52067557 18.0065408 8.58457117 17.0524498 7.2064802 15.5116992 6.36406534 13.8490825 6.31145529 12.0998741 6.12576538 10.4040929 7.37004369 9.51272829 7.37004369 8.60411371 7.37004369 7.23171788 6.32989154 5.75387413 6.3606432 3.80941711 6.42417812 2.04060035 7.51516909 1.09458246 9.23445425-.920000874 12.7620147.582697043 17.9463409 2.51249913 20.7977545 3.47801996 22.1940108 4.60643663 23.7536648 6.08294704 23.6983561 7.52780121 23.6377482 8.06742621 22.7665564 9.81148871 22.7665564 11.5393637 22.7665564 12.045645 23.6983561 13.5521137 23.6631902 15.1025095 23.6377377 16.0793325 22.2607289 17.0109783 20.8512513 17.7047034 19.8563677 18.2385238 18.7568047 18.5926658 17.593292 16.7512664 16.805623 15.55394 14.9808062 15.5517908 12.9587664L15.5517908 12.9587664zM12.7063429 4.43617261C13.5516831 3.40984439 13.9681501 2.09067334 13.8673012.758804445 12.5758094.895991728 11.3828327 1.52025283 10.526072 2.50720358 9.6800603 3.48096314 9.2514727 4.75490133 9.33470746 6.04842794 10.6435167 6.06205683 11.8862034 5.46782642 12.7063429 4.43617261L12.7063429 4.43617261z" transform="translate(10.25 8.428)"/>
  </g>
</svg>
