<?xml version="1.0" encoding="UTF-8"?>
<svg width="33px" height="12px" viewBox="0 0 33 12" version="1.1" xmlns="http://www.w3.org/2000/svg" xmlns:xlink="http://www.w3.org/1999/xlink">
    <!-- Generator: Sketch 53 (72520) - https://sketchapp.com -->
    <title>phone</title>
    <desc>Created with Sketch.</desc>
    <g id="Page-1" stroke="none" stroke-width="1" fill="none" fill-rule="evenodd">
        <g id="Mobile" transform="translate(-164.000000, -610.000000)" fill="#FFFFFF">
            <path d="M166.880215,621.980431 L166.940935,621.965742 C166.940935,621.965742 170.471279,620.892147 172.043401,620.421448 C172.648622,620.240512 173.123822,619.942736 173.454483,619.5368 C173.913183,618.973296 173.923743,618.403783 173.923083,618.340355 L173.917143,618.259568 C173.916483,618.255563 173.859063,617.879003 173.850483,617.131225 C173.842563,616.408818 174.416764,615.837302 175.275425,615.7238 C176.371026,615.578251 183.502334,615.651026 185.853257,615.771872 C186.325157,615.795908 186.661098,615.931442 186.880878,616.18582 C187.332319,616.708597 187.251138,617.695397 187.206918,618.225518 L187.192398,618.413798 C187.119798,619.494737 187.897279,620.264548 188.65034,620.523599 C189.140721,620.691182 193.296745,621.780133 193.771946,621.888962 C194.332946,622.019155 195.058947,622.066559 195.700468,621.279389 C196.066108,620.830055 196.848209,619.514767 196.929389,618.316987 L196.950509,618.052594 C197.04027,616.982337 197.20659,614.990043 195.389608,613.475126 C193.081585,611.551601 188.23718,610.429266 180.581171,610.044027 C172.394522,609.631414 166.326475,612.207242 164.802533,614.078689 C163.405971,615.793237 164.138572,619.18895 164.712113,620.564327 C165.264534,621.890297 166.371355,622.070565 166.880215,621.980431" id="phone" transform="translate(180.500000, 616.000000) rotate(-360.000000) translate(-180.500000, -616.000000) "></path>
        </g>
    </g>
</svg>