<?xml version="1.0" encoding="UTF-8"?>
<svg width="57px" height="57px" viewBox="0 0 57 57" version="1.1" xmlns="http://www.w3.org/2000/svg" xmlns:xlink="http://www.w3.org/1999/xlink">
    <title>Group 2</title>
    <defs>
        <filter x="-13.8%" y="-13.8%" width="127.7%" height="127.7%" filterUnits="objectBoundingBox" id="filter-1">
            <feOffset dx="0" dy="1" in="SourceAlpha" result="shadowOffsetOuter1"></feOffset>
            <feGaussianBlur stdDeviation="1" in="shadowOffsetOuter1" result="shadowBlurOuter1"></feGaussianBlur>
            <feColorMatrix values="0 0 0 0 0.557617188   0 0 0 0 0.557617188   0 0 0 0 0.557617188  0 0 0 0.5 0" type="matrix" in="shadowBlurOuter1" result="shadowMatrixOuter1"></feColorMatrix>
            <feMerge>
                <feMergeNode in="shadowMatrixOuter1"></feMergeNode>
                <feMergeNode in="SourceGraphic"></feMergeNode>
            </feMerge>
        </filter>
        <rect id="path-2" x="0" y="0" width="47" height="47" rx="7"></rect>
        <rect id="path-4" x="0" y="0" width="47" height="47"></rect>
    </defs>
    <g id="Page-1" stroke="none" stroke-width="1" fill="none" fill-rule="evenodd">
        <g id="Desktop_VV-Exit" transform="translate(-631.000000, -471.000000)">
            <g transform="translate(0.000000, 1.000000)" id="EXIT">
                <g transform="translate(336.000000, 156.000000)">
                    <g id="Promo-MDO" transform="translate(51.000000, 136.000000)">
                        <g id="img-MDO-app-Promo" transform="translate(76.000000, 75.000000)">
                            <g id="Group-3" transform="translate(3.000000, 49.000000)">
                                <g id="Group-2" filter="url(#filter-1)" transform="translate(170.000000, 59.000000)">
                                    <mask id="mask-3" fill="white">
                                        <use xlink:href="#path-2"></use>
                                    </mask>
                                    <use id="Rectangle" fill="#D8D8D8" xlink:href="#path-2"></use>
                                    <g id="Group" mask="url(#mask-3)">
                                        <g id="iOS_MDO_1024-pt-asset">
                                            <g id="MDO-Icon">
                                                <mask id="mask-5" fill="white">
                                                    <use xlink:href="#path-4"></use>
                                                </mask>
                                                <use id="Mask" fill="#003B71" xlink:href="#path-4"></use>
                                                <g id="illustration_original" mask="url(#mask-5)">
                                                    <g transform="translate(11.965984, 5.920903)">
                                                        <path d="M14.9735828,6.56920336 C14.5746852,6.3312454 14.0547233,6.12323414 13.6275544,5.99611935 C13.4361134,5.9398034 13.2320723,5.89015189 13.0205975,5.84517414 C11.5215885,5.65170348 10.5241148,6.11677165 9.56659405,6.68033503 C9.58108846,6.05116588 9.63616722,4.50412179 9.84325071,3.83831265 C10.1605491,2.81689369 11.1949333,2.20904497 11.9745029,1.93167739 C12.2010749,1.83690388 12.3109167,1.57113416 12.1875564,1.29151624 C12.0786905,1.0511637 11.7909836,0.978316487 11.6051395,1.04418191 C10.4721359,1.43943216 9.79462986,1.94327525 9.3378981,2.66199599 C9.12229018,3.00349797 8.9632535,3.37064794 8.84666678,3.73147968 C8.80803416,3.9323072 8.76595732,4.15670548 8.72522946,4.38297903 C8.42584098,2.65654327 7.23491716,1.91104937 6.50356657,1.77080766 C6.50356657,1.77080766 3.54007694,1.37619212 3.05157229,0 C3.05157229,0 2.89385589,2.33641942 4.02588362,3.90325487 C5.09367671,5.38114458 7.58559576,4.9607945 8.53826593,5.17376803 C8.52942578,5.37081615 8.52446037,5.61096673 8.52446037,5.66543626 L8.52446037,6.71031058 C7.15162453,6.12646538 6.39165825,5.70014327 4.97166536,5.84517414 C4.76016179,5.89015189 4.55623549,5.9398034 4.36479448,5.99611935 C3.93759688,6.12323414 3.41757765,6.3312454 3.01868002,6.56920336 C1.15713863,7.68086631 -0.0641804019,9.86486915 0.00260868857,12.3863638 C0.00260868857,12.4140024 0.00599550107,12.4440645 0.0071148713,12.4741266 C0.0252544094,13.7059514 0.288220308,15.0764312 0.815099266,16.4607014 C2.23359967,20.2440541 5.0535803,22.7192727 7.24935416,22.1275802 C7.69230906,22.0073606 8.23287877,21.8665131 8.73811657,21.8676959 C8.82318871,21.867869 8.90981075,21.8726005 8.99617446,21.876553 C9.08245208,21.8726005 9.16904541,21.867869 9.25420365,21.8676959 C9.75938405,21.8665131 10.2998677,22.0073606 10.7429087,22.1275802 C12.9387399,22.7192727 15.7587206,20.2440541 17.1772497,16.4607014 C17.7041286,15.0764312 17.9670084,13.7059514 17.985148,12.4741266 C17.9862673,12.4440645 17.989568,12.4140024 17.989568,12.3863638 C18.0565006,9.86486915 16.8350955,7.68086631 14.9735828,6.56920336" id="Apple" fill="#FFFFFF"></path>
                                                        <path d="M9.74514476,17.6708934 C9.11181314,17.6708934 8.59651575,18.1654033 8.59651575,18.7732412 C8.59651575,19.3802938 9.11181314,19.8740184 9.74514476,19.8740184 C10.3768411,19.8740184 10.8914376,19.3802938 10.8914376,18.7732412 C10.8914376,18.1654033 10.3768411,17.6708934 9.74514476,17.6708934 M14.3181623,24.4638622 C12.2532829,24.4638622 10.8313305,23.345831 10.0851394,21.1391891 C9.97171904,21.1558578 9.85679834,21.1643779 9.73945401,21.1643779 C8.45126312,21.1643779 7.40315637,20.126974 7.40315637,18.8516626 C7.40315637,17.575522 8.45126312,16.5373461 9.73945401,16.5373461 C11.026058,16.5373461 12.0734146,17.575522 12.0734146,18.8516626 C12.0734146,19.5836264 11.7284505,20.2370788 11.1911249,20.6613726 C11.942798,22.9947022 13.3255972,23.2733523 14.3181623,23.2733523 C15.356084,23.2733523 16.1179133,23.0210633 16.5832512,22.5234331 C16.901613,22.1839695 17.0314217,21.7774881 17.0830105,21.4740495 C14.851564,20.8051578 12.4174842,16.820199 12.4174842,13.524689 C12.4174842,11.7501462 13.0080144,11.0886311 14.5192086,10.3108355 C14.531673,10.0992604 14.6583945,9.90432547 14.8594408,9.80903093 L15.9653397,9.28512537 C16.1272616,9.20758598 16.3157281,9.2071857 16.4791792,9.28315258 C16.6426591,9.35909087 16.7623405,9.50290471 16.806947,9.67608175 L17.0916664,10.7906248 C17.1361862,10.9630584 17.0994278,11.1464139 16.9930764,11.290142 C16.8859171,11.4335556 16.7201289,11.5219025 16.5402317,11.5311946 L15.3169884,11.5939523 C15.1660306,11.598241 15.0127068,11.5494358 14.8985075,11.4548275 C13.7565426,12.0582452 13.6188859,12.4167505 13.6188859,13.524689 C13.6188859,16.7489497 16.2899337,20.3808069 17.7134153,20.3808069 C19.1361757,20.3808069 21.8072235,16.7489497 21.8072235,13.524689 C21.8072235,12.4167505 21.6695668,12.0582452 20.526794,11.4541127 C20.4134025,11.548235 20.2585784,11.5998135 20.1099287,11.5924656 L18.8858776,11.5296793 C18.7059804,11.5203871 18.5401923,11.4319831 18.4338408,11.2886267 C18.3266815,11.1448128 18.2907021,10.9615717 18.3344429,10.7891094 L18.6199991,9.67456641 C18.6637688,9.5013036 18.7842581,9.35757553 18.9469301,9.28163724 C19.1103813,9.20638515 19.2988477,9.20678542 19.4607696,9.28352426 L20.5675053,9.80751559 C20.7693306,9.90323901 20.8960232,10.0988601 20.9085165,10.3112643 C22.4188162,11.0886311 23.0086251,11.7505465 23.0086251,13.524689 C23.0086251,16.844959 20.5385948,20.8648563 18.2938471,21.4883451 C18.2359395,21.9773979 18.0490022,22.6997838 17.4796211,23.3170968 C16.7780364,24.0778235 15.7143203,24.4638622 14.3181623,24.4638622" id="Fill-3" fill="#78BE43"></path>
                                                    </g>
                                                </g>
                                            </g>
                                            <g id="Sash_Final" transform="translate(-16.615234, 33.230469)">
                                                <path d="M40.1152344,27.8144531 C55.8009629,27.8144531 69.1727077,23.1634115 80.2304688,13.8613281 C69.1727077,4.62044271 55.8009629,0 40.1152344,0 C24.4295059,0 11.0577611,4.62044271 0,13.8613281 C11.0577611,23.1634115 24.4295059,27.8144531 40.1152344,27.8144531 Z" id="White-Sash_New" fill="#FFFFFF"></path>
                                                <g id="Group" transform="translate(34.928711, 1.652344)" fill="#0079AE">
                                                    <g id="KP-Logo-Minimum-Converted" transform="translate(0.000000, -0.039130)">
                                                        <polygon id="Fill-15" points="10.3730469 8.33391028 10.3730469 7.27970567 8.01553622 8.92351017"></polygon>
                                                        <path d="M7.54403409,8.21902253 L10.3730469,6.69124662 L10.3730469,5.6814414 C10.3730469,5.45096821 10.1655859,4.96982572 9.6714517,4.6965843 L7.54403409,8.21902253 Z" id="Fill-3"></path>
                                                        <path d="M7.48708826,4.51571913 L6.83678089,7.7493641 L9.19429155,4.3813985 C9.01150245,4.29558253 8.80527886,4.23339705 8.56976214,4.22842221 C7.93703065,4.20976657 7.69331185,4.3689614 7.48708826,4.51571913 Z" id="Fill-6"></path>
                                                        <polygon id="Fill-8" points="10.3730469 9.96086823 10.3730469 9.06029819 8.48703835 9.96086823"></polygon>
                                                        <polygon id="Fill-11" points="0 8.35005666 2.35751065 8.92351017 0 7.04487645"></polygon>
                                                        <path d="M0,6.36230417 L3.06476385,8.21902253 L0.325351754,4.46175509 C0.0558810264,4.74178474 0,5.31767181 0,5.31767181 L0,6.36230417 Z" id="Fill-13"></path>
                                                        <path d="M1.61569316,3.53830872 C1.13949479,3.57956907 0.896511521,3.75461293 0.707253196,3.94090962 L3.77201705,7.7493641 L2.9954474,4.07594347 C2.91730203,3.96591589 2.82328338,3.85088706 2.65844548,3.75461293 C2.31289641,3.55081186 2.21643571,3.4895465 1.61569316,3.53830872 Z" id="Fill-18"></path>
                                                        <polygon id="Fill-20" points="0 9.91742483 2.12175959 9.91742483 0 9.1037416"></polygon>
                                                        <path d="M3.53626598,4.00457139 L4.68354824,7.51453488 L4.95077237,2.81795058 C3.96501225,2.90679501 3.72985502,3.45446615 3.53626598,4.00457139" id="Fill-23"></path>
                                                        <path d="M6.84847415,3.59545847 C6.60404744,3.21216285 6.40941136,2.90043192 5.65802557,2.81795058 L5.96582216,7.51453488 L7.07253196,4.26379988 C7.04763665,3.97390224 6.98652997,3.81136549 6.84847415,3.59545847" id="Fill-25"></path>
                                                        <path d="M9.66498361,2.73536639 C9.69076365,1.2868978 7.50461624,1.27682149 7.5445753,2.72403055 C7.52524027,4.0616598 9.71396569,4.13723208 9.66498361,2.73536639" id="Fill-27"></path>
                                                        <path d="M2.82356266,1.98319602 C2.88557147,0.561400278 0.866338957,0.620436779 0.945259268,1.9868858 C0.876485854,3.39884212 2.94870772,3.41852095 2.82356266,1.98319602" id="Fill-29"></path>
                                                        <path d="M5.41035033,2.34757848 C6.24523118,2.37176785 6.57567877,1.77670932 6.59946098,1.22277272 C6.63450845,0.360421632 6.07750399,-2.03681876e-16 5.41410542,-2.03681876e-16 C4.75195854,-2.03681876e-16 4.21122612,0.384611003 4.2450219,1.22277272 C4.26504903,1.68841811 4.47032708,2.32217964 5.41035033,2.34757848" id="Fill-31"></path>
                                                    </g>
                                                </g>
                                            </g>
                                        </g>
                                    </g>
                                </g>
                            </g>
                        </g>
                    </g>
                </g>
            </g>
        </g>
    </g>
</svg>