<?xml version="1.0" encoding="UTF-8"?>
<svg width="32px" height="31px" viewBox="0 0 32 31" version="1.1" xmlns="http://www.w3.org/2000/svg" xmlns:xlink="http://www.w3.org/1999/xlink">
    <title>Fill 1</title>
    <g id="Page-1" stroke="none" stroke-width="1" fill="none" fill-rule="evenodd">
        <g id="VV" transform="translate(-826.000000, -467.000000)" stroke="#979797">
            <g id="Group-11" transform="translate(439.000000, 333.000000)">
                <g id="Group-7" transform="translate(62.000000, 135.000000)">
                    <g id="stars" transform="translate(86.000000, 0.000000)">
                        <path d="M269.95333,10.9630748 C269.826415,10.5721118 269.468938,10.3089637 269.065982,10.3089637 L258.998438,10.3089637 L255.886901,0.584297381 C255.634129,-0.195480367 254.358632,-0.195480367 254.111147,0.588593677 L251.003841,10.3089637 L240.934182,10.3089637 C240.524881,10.3089637 240.169518,10.5721118 240.046833,10.9630748 C239.919918,11.3540377 240.05741,11.7847414 240.381043,12.0221118 L248.527938,18.0337041 L245.420632,27.7594445 C245.293717,28.1482593 245.431209,28.5778889 245.756957,28.8206296 C246.083764,29.0590741 246.53114,29.0590741 246.855831,28.8174074 L254.999553,22.8079632 L263.143275,28.8174074 C263.307207,28.9377037 263.498637,29 263.692183,29 C263.885729,29 264.077159,28.9377037 264.241091,28.8206296 C264.567898,28.5778889 264.706447,28.1482593 264.580589,27.7572963 L261.471168,18.0337041 L269.618063,12.0221118 C269.941696,11.7847414 270.080245,11.3540377 269.95333,10.9630748" id="Fill-1"></path>
                    </g>
                </g>
            </g>
        </g>
    </g>
</svg>