<?xml version="1.0" encoding="UTF-8"?>
<svg width="26px" height="29px" viewBox="0 0 26 29" version="1.1" xmlns="http://www.w3.org/2000/svg" xmlns:xlink="http://www.w3.org/1999/xlink">
    <!-- Generator: Sketch 53.2 (72643) - https://sketchapp.com -->
    <title>Group 10</title>
    <desc>Created with Sketch.</desc>
    <g id="Page-1" stroke="none" stroke-width="1" fill="none" fill-rule="evenodd">
        <g id="Group-10" transform="translate(0.000000, 0.598210)">
            <path d="M3.53923288,5.5 C3.26423288,5.5 3.03923288,5.275 3.03923288,5 C3.03923288,4.725 3.26423288,4.5 3.53923288,4.5 L5.03923288,4.5 C5.31423288,4.5 5.53923288,4.725 5.53923288,5 C5.53923288,5.275 5.31423288,5.5 5.03923288,5.5 L3.53923288,5.5 Z M23.5392329,6 C24.3642329,6 25.0392329,6.675 25.0392329,7.5 L25.0392329,20.5 C25.0392329,21.325 24.3642329,22 23.5392329,22 L1.53923288,22 C0.714232883,22 0.0392328825,21.325 0.0392328825,20.5 L0.0392328825,7.5 C0.0392328825,6.675 0.714232883,6 1.53923288,6 L6.25973288,6 L8.61423288,3.641 L8.61623288,3.6465 C8.98173288,3.251 9.50023288,3 10.0812329,3 L12.5392329,3 L14.9972329,3 C15.5782329,3 16.0967329,3.251 16.4622329,3.6465 L16.4642329,3.641 L18.8187329,6 L23.5392329,6 Z M19.7892329,9.25 C20.2032329,9.25 20.5392329,8.914 20.5392329,8.5 C20.5392329,8.086 20.2032329,7.75 19.7892329,7.75 C19.3752329,7.75 19.0392329,8.086 19.0392329,8.5 C19.0392329,8.914 19.3752329,9.25 19.7892329,9.25 Z M12.5392329,19.5 C15.8527329,19.5 18.5392329,16.8135 18.5392329,13.5 C18.5392329,10.1865 15.8527329,7.5 12.5392329,7.5 C9.22573288,7.5 6.53923288,10.1865 6.53923288,13.5 C6.53923288,16.8135 9.22573288,19.5 12.5392329,19.5 Z M12.5392329,9 C15.0247329,9 17.0392329,11.0145 17.0392329,13.5 C17.0392329,15.9855 15.0247329,18 12.5392329,18 C10.0537329,18 8.03923288,15.9855 8.03923288,13.5 C8.03923288,11.0145 10.0537329,9 12.5392329,9 Z" id="camera" fill-opacity="0.6" fill="#006BA6"></path>
            <path d="M29,13.9017904 L-4,13.9017904" id="Line" stroke="#A5A5A5" stroke-width="2" stroke-linecap="round" stroke-linejoin="round" transform="translate(12.500000, 13.901790) rotate(130.000000) translate(-12.500000, -13.901790) "></path>
        </g>
    </g>
</svg>