<?xml version="1.0" encoding="UTF-8"?>
<svg width="25px" height="29px" viewBox="0 0 25 29" version="1.1" xmlns="http://www.w3.org/2000/svg" xmlns:xlink="http://www.w3.org/1999/xlink">
    <!-- Generator: Sketch 53.2 (72643) - https://sketchapp.com -->
    <title>Group 9</title>
    <desc>Created with Sketch.</desc>
    <g id="Page-1" stroke="none" stroke-width="1" fill="none" fill-rule="evenodd">
        <g id="Group-9" transform="translate(1.000000, 1.000000)">
            <path d="M12.0001,19 C9.5186,19 7.5001,16.9815 7.5001,14.5 L7.5001,5.5 C7.5001,3.0185 9.5186,1 12.0001,1 C14.4816,1 16.5001,3.0185 16.5001,5.5 L16.5001,14.5 C16.5001,16.9815 14.4816,19 12.0001,19 Z M18.5,10 C18.7765,10 19,10.2235 19,10.5 L19,14.5 C19,18.191 16.1265,21.2165 12.5,21.4745 L12.5,25.5 L15.5,25.5 C15.7765,25.5 16,25.7235 16,26 C16,26.2765 15.7765,26.5 15.5,26.5 L8.5,26.5 C8.224,26.5 8,26.2765 8,26 C8,25.7235 8.224,25.5 8.5,25.5 L11.5,25.5 L11.5,21.4745 C7.8735,21.2165 5,18.191 5,14.5 L5,10.5 C5,10.2235 5.224,10 5.5,10 C5.776,10 6,10.2235 6,10.5 L6,14.5 C6,17.8085 8.6915,20.5 12,20.5 C15.3085,20.5 18,17.8085 18,14.5 L18,10.5 C18,10.2235 18.2235,10 18.5,10 Z" id="mic" fill-opacity="0.6" fill="#006BA6"></path>
            <path d="M28,13.5 L-5,13.5" id="Line" stroke="#A5A5A5" stroke-width="2" stroke-linecap="round" stroke-linejoin="round" transform="translate(11.500000, 13.500000) rotate(130.000000) translate(-11.500000, -13.500000) "></path>
        </g>
    </g>
</svg>