<svg id="Layer_1" data-name="Layer 1" xmlns="http://www.w3.org/2000/svg" width="7.5159in" height="1.2616in" viewBox="0 0 541.1435 90.8379"><defs><style>.cls-1{fill:#4b4b4b;}.cls-2{fill:#0078b3;}</style></defs><title>pm_tpmg_lg_hr_tm_rgb</title><path class="cls-1" d="M12.0719,83.8769H7.7466V63.4347H0V59.4575H19.8163v3.9772H12.0719Zm15.6664,0H23.5171V58.4112h4.2212v9.907a6.628,6.628,0,0,1,5.7558-3.2449c4.1513,0,6.56,2.7909,6.56,7.0821V83.8769H35.8327V73.4117c0-2.8608-1.4305-4.5012-3.9431-4.5012-2.4409,0-4.1513,1.71-4.1513,4.5712ZM53.3118,80.842a6.6921,6.6921,0,0,0,4.9894-2.1986l2.4767,2.1986a9.3181,9.3181,0,0,1-7.5361,3.4531,9.1978,9.1978,0,0,1-9.453-9.5929c0-5.3035,3.7313-9.6289,8.9989-9.6289,5.8617,0,8.8266,4.6054,8.8266,9.943,0,.384-.0341.7322-.07,1.15H48.01A5.1637,5.1637,0,0,0,53.3118,80.842Zm4.1171-7.4662c-.28-2.7208-1.8845-4.8494-4.6753-4.8494-2.5809,0-4.3954,1.9886-4.7794,4.8494Zm27.842,2.6527H80.4215v7.8484H76.13V59.4575h9.6289c5.6858,0,9.2807,3.2091,9.2807,8.1985C95.04,73.1677,90.6426,76.0285,85.2709,76.0285Zm.14-12.6638H80.4215v8.7907h4.9894c3.2431,0,5.2676-1.7786,5.2676-4.3953C90.6785,64.8651,88.62,63.3647,85.4109,63.3647ZM107.1131,80.842a6.6921,6.6921,0,0,0,4.9894-2.1986l2.4767,2.1986a9.3181,9.3181,0,0,1-7.5361,3.4531,9.1978,9.1978,0,0,1-9.453-9.5929c0-5.3035,3.7313-9.6289,8.9989-9.6289,5.8617,0,8.8266,4.6054,8.8266,9.943,0,.384-.0341.7322-.07,1.15H101.81A5.1665,5.1665,0,0,0,107.1131,80.842Zm4.1171-7.4662c-.28-2.7208-1.8845-4.8494-4.6753-4.8494-2.5809,0-4.3954,1.9886-4.7794,4.8494Zm12.3156,10.5011h-4.2212V65.4574h4.2212v4.1513c1.1522-2.755,3.279-4.6395,6.5239-4.4995v4.4654h-.244c-3.6972,0-6.28,2.4067-6.28,7.29ZM154.945,65.0733c4.0113,0,6.4539,2.5468,6.4539,7.048V83.8769h-4.2212V73.4117c0-2.9308-1.36-4.5012-3.7331-4.5012-2.3027,0-3.9431,1.6045-3.9431,4.5712V83.8769H145.28V73.3758c0-2.8608-1.3946-4.4653-3.7313-4.4653-2.3386,0-3.9431,1.7445-3.9431,4.6053V83.8769h-4.2213V65.4574h4.2213v2.7908a6.6,6.6,0,0,1,5.6176-3.1749,5.79,5.79,0,0,1,5.4758,3.2449A7.5216,7.5216,0,0,1,154.945,65.0733Zm22.5062,18.8036V81.61a7.4494,7.4494,0,0,1-5.9657,2.6508c-3.489,0-6.5581-1.9886-6.5581-5.6875v-.0683c0-3.9771,3.1731-5.9316,7.4644-5.9316a15.4915,15.4915,0,0,1,5.0935.7681v-.454c0-2.5468-1.6045-3.9413-4.5353-3.9413a12.815,12.815,0,0,0-5.2676,1.15l-1.15-3.3831a15.7756,15.7756,0,0,1,7.0121-1.5363c5.4417,0,8.0926,2.8609,8.0926,7.78V83.8769Zm.1041-7.8143a12.0687,12.0687,0,0,0-4.2213-.7323c-2.6508,0-4.2212,1.0805-4.2212,2.965v.07c0,1.7445,1.57,2.7208,3.559,2.7208,2.7908,0,4.8835-1.57,4.8835-3.8731Zm12.98,7.8143h-4.2213V65.4574h4.2213v2.8608a6.63,6.63,0,0,1,5.7557-3.2449c4.1513,0,6.56,2.7909,6.56,7.0821V83.8769h-4.2213V73.4117c0-2.8608-1.43-4.5012-3.9431-4.5012-2.4408,0-4.1512,1.71-4.1512,4.5712ZM216.11,80.842A6.692,6.692,0,0,0,221.1,78.6434l2.4768,2.1986a9.3183,9.3183,0,0,1-7.5362,3.4531,9.1978,9.1978,0,0,1-9.453-9.5929c0-5.3035,3.7313-9.6289,8.9989-9.6289,5.8617,0,8.8266,4.6054,8.8266,9.943,0,.384-.0341.7322-.07,1.15H210.8085A5.1637,5.1637,0,0,0,216.11,80.842Zm4.1171-7.4662c-.28-2.7208-1.8844-4.8494-4.6753-4.8494-2.5808,0-4.3953,1.9886-4.7794,4.8494Zm12.3156,10.5011h-4.2212V65.4574h4.2212v2.8608a6.63,6.63,0,0,1,5.7558-3.2449c4.1513,0,6.56,2.7909,6.56,7.0821V83.8769h-4.2212V73.4117c0-2.8608-1.43-4.5012-3.9431-4.5012-2.4409,0-4.1513,1.71-4.1513,4.5712Zm22.1545-5.7557a2.011,2.011,0,0,0,2.2685,2.3026,5.6752,5.6752,0,0,0,2.615-.6281v3.4531a7.3784,7.3784,0,0,1-3.8013.9422c-3.1049,0-5.3035-1.36-5.3035-5.4076v-9.697h-2.3368v-3.629h2.3368V60.4h4.2213v5.0576h4.9535v3.629h-4.9535Zm17.375,2.7208a6.6921,6.6921,0,0,0,4.9894-2.1986l2.4767,2.1986a9.3181,9.3181,0,0,1-7.5361,3.4531,9.1978,9.1978,0,0,1-9.453-9.5929c0-5.3035,3.7313-9.6289,8.9989-9.6289,5.8617,0,8.8266,4.6054,8.8266,9.943,0,.384-.0341.7322-.07,1.15h-13.536A5.1665,5.1665,0,0,0,272.0724,80.842Zm4.1171-7.4662c-.28-2.7208-1.8845-4.8494-4.6753-4.8494-2.5809,0-4.3954,1.9886-4.7794,4.8494Zm30.7029,4.5013h-.14l-7.64-11.4434V83.8769h-4.2213V59.4575h4.5713l7.43,11.5475,7.43-11.5475h4.57V83.8769h-4.29V66.3637Zm25.9593,2.9649a6.6921,6.6921,0,0,0,4.9894-2.1986l2.4767,2.1986a9.3181,9.3181,0,0,1-7.5361,3.4531,9.1978,9.1978,0,0,1-9.453-9.5929c0-5.3035,3.7313-9.6289,8.9989-9.6289,5.8617,0,8.8266,4.6054,8.8266,9.943,0,.384-.0341.7322-.07,1.15H327.55A5.1637,5.1637,0,0,0,332.8517,80.842Zm4.1171-7.4662c-.28-2.7208-1.8845-4.8494-4.6753-4.8494-2.5809,0-4.3954,1.9886-4.7794,4.8494Zm21.9786,10.5011V80.8061a7.3694,7.3694,0,0,1-6.2781,3.4549c-4.3271,0-8.5484-3.4549-8.5484-9.5929,0-6.1417,4.1513-9.5948,8.5484-9.5948a7.6167,7.6167,0,0,1,6.2781,3.2449v-9.907h4.2212V83.8769ZM353.68,68.7364c-2.895,0-5.3017,2.2327-5.3017,5.9317,0,3.6272,2.4408,5.93,5.3017,5.93,2.8267,0,5.3376-2.3367,5.3376-5.93C359.0174,71.0732,356.5065,68.7364,353.68,68.7364Zm14.48-6.1039V58.6194h4.5354v4.0131Zm.1741,21.2444V65.4574h4.2213v18.42Zm17.8991.4182a9.4112,9.4112,0,0,1-9.523-9.5588,9.506,9.506,0,0,1,9.5571-9.663,9.2023,9.2023,0,0,1,7.3621,3.1749l-2.6168,2.825a6.1962,6.1962,0,0,0-4.7794-2.3009c-3.0708,0-5.3035,2.6509-5.3035,5.8958,0,3.3131,2.2686,5.9639,5.5135,5.9639a6.4841,6.4841,0,0,0,4.7794-2.3026l2.5468,2.5126A9.3238,9.3238,0,0,1,386.233,84.2951Zm22.33-.4182V81.61a7.45,7.45,0,0,1-5.9658,2.6508c-3.489,0-6.56-1.9886-6.56-5.6875v-.0683c0-3.9771,3.1749-5.9316,7.4662-5.9316a15.4915,15.4915,0,0,1,5.0935.7681v-.454c0-2.5468-1.6045-3.9413-4.5353-3.9413a12.815,12.815,0,0,0-5.2676,1.15l-1.1505-3.3831a15.7756,15.7756,0,0,1,7.0121-1.5363c5.4417,0,8.0926,2.8609,8.0926,7.78V83.8769Zm.1041-7.8143a12.077,12.077,0,0,0-4.2213-.7323c-2.6508,0-4.2212,1.0805-4.2212,2.965v.07c0,1.7445,1.57,2.7208,3.559,2.7208,2.7908,0,4.8835-1.57,4.8835-3.8731Zm9.0025,7.8143V58.4112h4.2212V83.8769Zm31.5751.4182c-7.64,0-12.6638-5.4417-12.6638-12.5938A12.4473,12.4473,0,0,1,449.175,59.0394a13.18,13.18,0,0,1,9.3829,3.3131l-2.7208,3.2449a9.5623,9.5623,0,0,0-6.8362-2.6168c-4.5013,0-7.92,3.9072-7.92,8.6507,0,5.06,3.3149,8.7566,8.3026,8.7566a9.9687,9.9687,0,0,0,5.8957-1.8486V73.97H449.035V70.2368H459.43v10.257A15.5736,15.5736,0,0,1,449.245,84.2951Zm19.1536-.4182h-4.2213V65.4574h4.2213v4.1513c1.1522-2.755,3.279-4.6395,6.5239-4.4995v4.4654h-.2441c-3.6972,0-6.28,2.4067-6.28,7.29Zm18.5972.4182a9.5334,9.5334,0,0,1-9.7671-9.5588,9.8227,9.8227,0,1,1,9.7671,9.5588Zm0-15.5228c-3.3831,0-5.5458,2.6509-5.5458,5.8958a5.6944,5.6944,0,0,0,5.6158,5.9639c3.419,0,5.5817-2.6508,5.5817-5.8957A5.7012,5.7012,0,0,0,486.9958,68.7723Zm25.9216-3.3149h4.2213v18.42h-4.2213V81.0161a6.6277,6.6277,0,0,1-5.7558,3.2449c-4.1512,0-6.558-2.7908-6.558-7.0821V65.4574h4.2213V75.9226c0,2.8608,1.4286,4.5012,3.9412,4.5012,2.4427,0,4.1513-1.71,4.1513-4.5712ZM532.561,84.261a7.5022,7.5022,0,0,1-6.244-3.2449v8.4425h-4.2212V65.4574h4.2212v3.069a7.3565,7.3565,0,0,1,6.244-3.4531c4.3612,0,8.5825,3.4531,8.5825,9.5948C541.1435,80.8061,536.9581,84.261,532.561,84.261Zm-.9764-15.5246c-2.8608,0-5.3717,2.3368-5.3717,5.9317,0,3.5931,2.5109,5.93,5.3717,5.93,2.8968,0,5.2676-2.2685,5.2676-5.93C536.8522,71.0391,534.4455,68.7364,531.5846,68.7364Z"/><path class="cls-2" d="M522.4246,29.0818a5.6386,5.6386,0,1,1,11.2743,0,5.6394,5.6394,0,1,1-11.2743,0Zm5.6462,6.9625a6.9475,6.9475,0,1,0-7.0516-6.9625A6.9322,6.9322,0,0,0,528.0708,36.0443Zm-1.4623-6.4114h1.4008l2.1067,3.4735h1.3667l-2.2868-3.526a2.09,2.09,0,0,0,2.0727-2.2047c0-1.5806-.9294-2.2774-2.8265-2.2774h-3.0476v8.0081h1.214Zm0-1.0295v-2.478H528.26c.8449,0,1.7424.1889,1.7424,1.1752,0,1.2231-.911,1.3028-1.936,1.3028Z"/><path class="cls-2" d="M101.2683.8948h10.1036V35.13h-5.7551V5.985L98.1544,35.13H92.23L84.7251,5.9386V35.13H78.926V.9H89.255l5.93,24.7778Zm32.2428,0L145.3582,35.13h-6.1737l-3.308-9.8835H123.318L120.15,35.1243h-5.7872l11.84-34.23Zm.7721,19.5727L129.5356,6.3062h-.14L124.85,20.4671Zm35.0455,6.8292L155.7348.8944h-7.7775V35.13h5.5868V9.3219L166.9532,35.13h8.0733V.8944h-5.6978ZM281.2422,30.13H267.1943V20.4671h10.3871V15.5044H267.1943V5.8235h12.8479V.8944L261.3454.8852,261.342,35.13l19.9-.0057ZM226.3279.8944V27.5735L212.7382.8921h-7.79V30.13H187.0169V20.4673h10.3873V15.5045H187.0169V5.8236h12.8378V.8944L181.169.8853l-.01,34.2447h29.3944V9.0481L223.9523,35.13h8.0767V6.0641h10.37v29.06h5.9341V6.0641h10.1121V.8944ZM70.3753,17.887a9.9945,9.9945,0,0,1-4.5679,2.2L75.0022,35.13H67.9475s-5.7594-10.29-8.4767-14.5629H56.5384V35.13H26.6873V.8847l18.7019.01V5.8238H32.537v9.6805H42.931v4.9632H32.537V30.13H50.6043V.8948h9.9332c4.93,0,7.8387.6777,9.9045,2.48a9.3694,9.3694,0,0,1,3.1831,7.23,9.5182,9.5182,0,0,1-3.25,7.2818m-8.8471-2.33c4.497,0,6.2843-1.6008,6.2843-4.8919,0-2.9957-1.8194-4.7568-6.2843-4.7568h-4.99V15.557ZM19.8377,3.4691a9.86,9.86,0,0,1,3.173,7.46,9.9089,9.9089,0,0,1-3.2178,7.4555c-2.0683,1.8026-4.9307,2.6633-9.8673,2.6633H5.9349V35.13H0V.8953H9.9256c4.9366,0,7.84.7747,9.9121,2.5738M10.9239,16.0376c4.2455,0,6.28-2.0294,6.28-5.1383,0-2.9982-1.821-4.9906-6.28-4.9906H5.9333V16.0376h4.9906M334.8867,35.13V.8844h-4.9352L318.09,30.1469,306.0831.8844h-4.9358V35.13h2.9752V3.7749L317.27,35.13h1.4939L331.911,3.7749V35.13Zm62.6358-24.5968A16.6565,16.6565,0,0,1,399.1159,18a16.6319,16.6319,0,0,1-1.5928,7.4921,16.3837,16.3837,0,0,1-4.1789,5.3391,17.7571,17.7571,0,0,1-5.8047,3.2181,20.4912,20.4912,0,0,1-6.4241,1.0807H342.7212V.8844h21.0114V3.4676H345.698V15.9718h16.8551V18.554H345.698V32.5335h24.151V.8844h11.2664A20.4539,20.4539,0,0,1,387.54,1.9523,17.7682,17.7682,0,0,1,393.3448,5.17,16.3136,16.3136,0,0,1,397.5225,10.5332ZM395.9434,18a15.2,15.2,0,0,0-.9756-5.3567,13.5058,13.5058,0,0,0-2.9356-4.6423,14.633,14.633,0,0,0-4.9351-3.2824,17.9432,17.9432,0,0,0-6.9634-1.251h-7.31V32.5335h7.31a17.96,17.96,0,0,0,6.9628-1.25A14.64,14.64,0,0,0,392.0322,28a13.5044,13.5044,0,0,0,2.9356-4.6417A15.218,15.218,0,0,0,395.9434,18ZM405.0844.8844V35.13h2.9763V.8844Zm36.7992,2.32A14.6611,14.6611,0,0,0,438.99,1.4972,17.6647,17.6647,0,0,0,431.88,0a18.43,18.43,0,0,0-7.0908,1.3543,16.9878,16.9878,0,0,0-9.4065,9.4312A18.8644,18.8644,0,0,0,414.0292,18a19.1453,19.1453,0,0,0,1.3307,7.2178,16.7054,16.7054,0,0,0,9.3553,9.4284A18.7437,18.7437,0,0,0,431.88,36a16.9359,16.9359,0,0,0,4.2789-.5139,15.996,15.996,0,0,0,3.5732-1.3983,13.6648,13.6648,0,0,0,2.8411-2.0386,14.5369,14.5369,0,0,0,1.9358-2.2233l-2.28-1.4653a11.062,11.062,0,0,1-4.4823,3.8035,13.9655,13.9655,0,0,1-5.8167,1.2537,14.6527,14.6527,0,0,1-6.1373-1.25,13.9506,13.9506,0,0,1-4.6378-3.3742,15.08,15.08,0,0,1-2.93-4.9149A17.0211,17.0211,0,0,1,417.2017,18a17.3653,17.3653,0,0,1,.9981-5.874,14.7676,14.7676,0,0,1,2.9065-4.9186,13.9671,13.9671,0,0,1,4.6384-3.3742,14.7707,14.7707,0,0,1,6.1856-1.251,12.2586,12.2586,0,0,1,3.1939.4034,13.7643,13.7643,0,0,1,2.735,1.0542,10.2287,10.2287,0,0,1,2.198,1.5165,9.5429,9.5429,0,0,1,1.3279,1.48l2.49-1.8265A10.0236,10.0236,0,0,0,441.8836,3.2044ZM449.3125,35.13h2.9762V.8844h-2.9762ZM460.1238.8844V35.13h2.9768l-.0033-30.7285L483.8768,35.13h3.99V.8844h-2.9736V31.2918L464.1174.8844Zm38.5547,17.67h16.8573V15.9718H498.6785V3.4676h18.0368V.8844h-21.01V35.13h21.5995V32.5335h-18.626Z"/></svg>