<?xml version="1.0" encoding="UTF-8"?>
<svg width="35px" height="35px" viewBox="0 0 35 35" version="1.1" xmlns="http://www.w3.org/2000/svg" xmlns:xlink="http://www.w3.org/1999/xlink">
    <!-- Generator: Sketch 52.6 (67491) - http://www.bohemiancoding.com/sketch -->
    <title>Round Button</title>
    <desc>Created with Sketch.</desc>
    <defs>
        <circle id="path-1" cx="17.5" cy="17.5" r="17.5"></circle>
    </defs>
    <g id="Round-Button" stroke="none" stroke-width="1" fill="none" fill-rule="evenodd">
        <mask id="mask-2" fill="white">
            <use xlink:href="#path-1"></use>
        </mask>
        <use id="Oval" fill="#9D291F" xlink:href="#path-1"></use>
        <g id="color/@red" mask="url(#mask-2)" fill="#9D291F">
            <g transform="translate(-3.000000, -3.000000)" id="Rectangle">
                <rect x="0" y="0" width="41" height="41"></rect>
            </g>
        </g>
        <g id="Icon/Camera/off" mask="url(#mask-2)">
            <g transform="translate(-1.000000, -1.000000)">
                <g id="Camera" opacity="0.698823475" stroke="none" stroke-width="1" fill-rule="evenodd" transform="translate(7.000000, 12.000000)">
                    <g id="Group-3" fill="#FFFFFF">
                        <path d="M8.84348583,0.00481551182 L8.84348583,0.00213125233 C6.54968582,0.00213125233 4.25677042,-0.00413201982 1.96473963,0.00481551182 C0.668782427,0.00928927763 0.0256691947,0.599826365 0.015938458,1.88469191 C-0.00794607743,4.96980081 -0.00352301531,8.05580447 0.0194769077,11.1409134 C0.0283230319,12.3345141 0.654628628,12.9456305 1.84089389,12.9841049 C2.73523705,13.012737 3.63046482,12.9939472 4.52569259,12.9939472 C8.24460322,12.9939472 11.9635139,13.0002105 15.6824245,12.9894734 C17.0491507,12.9858944 17.586995,12.4463582 17.5878796,11.1391239 C17.5887643,8.05401497 17.5878796,4.96801131 17.5878796,1.8829024 C17.5887643,0.549720188 17.0659583,0.0119735371 15.7213474,0.00660501814 C13.4293166,-0.00144776033 11.1364012,0.00481551182 8.84348583,0.00481551182 M22.9849,6.10345307 C22.9849,4.5975835 22.964554,3.09171392 22.9937462,1.5867391 C23.0079,0.874515586 22.6169013,0.635616492 22.0330571,0.691985941 C21.7119428,0.723302302 21.3589824,0.902252934 21.1086371,1.1187832 C20.2647168,1.84800703 19.4429119,2.60675771 18.6520684,3.39414049 C18.4503768,3.59545996 18.2982234,3.94351894 18.2893773,4.2289452 C18.251339,5.51470549 18.2637235,6.80225529 18.2814158,8.08891034 C18.2849542,8.31975666 18.3212233,8.6150252 18.4618767,8.76802799 C19.294297,9.66814967 20.1240635,10.5807979 21.0422912,11.3869705 C21.3200595,11.6312381 21.9039037,11.6768705 22.30021,11.591869 C22.8097468,11.4827091 23.0158615,11.0398063 22.9990538,10.457322 C22.9583617,9.00692709 22.9849,7.5547427 22.9849,6.10345307" id="Fill-1"></path>
                    </g>
                </g>
                <path d="M28.8816352,8 L8,29.5396683" id="Line" stroke="#FFFFFF" stroke-width="2" stroke-linecap="round" stroke-linejoin="round"></path>
            </g>
        </g>
    </g>
</svg>