<?xml version="1.0" encoding="UTF-8"?>
<svg width="21px" height="21px" viewBox="0 0 21 21" version="1.1" xmlns="http://www.w3.org/2000/svg" xmlns:xlink="http://www.w3.org/1999/xlink">
    <!-- Generator: Sketch 52.6 (67491) - http://www.bohemiancoding.com/sketch -->
    <title>Icon/clear</title>
    <desc>Created with Sketch.</desc>
    <g id="Icon/clear" stroke="none" stroke-width="1" fill="none" fill-rule="evenodd">
        <path d="M10.5,3 C14.6421429,3 18,6.35839286 18,10.5 C18,14.6426786 14.6421429,18 10.5,18 C6.35785714,18 3,14.6426786 3,10.5 C3,6.35839286 6.35785714,3 10.5,3 Z M10.5121435,8.90251319 L8.03840824,6.42877791 C7.6454388,6.03580847 7.00830946,6.03580847 6.61534003,6.42877791 C6.22237059,6.82174734 6.22237059,7.45887668 6.61534003,7.85184612 L9.08907531,10.3255814 L6.61534003,12.7993167 C6.22237059,13.1922861 6.22237059,13.8294154 6.61534003,14.2223849 C7.00830946,14.6153543 7.6454388,14.6153543 8.03840824,14.2223849 L10.5121435,11.7486496 L12.9737353,14.2102414 C13.3667047,14.6032108 14.0038341,14.6032108 14.3968035,14.2102414 C14.7897729,13.8172719 14.7897729,13.1801426 14.3968035,12.7871732 L11.9352117,10.3255814 L14.3968035,7.86398963 C14.7897729,7.4710202 14.7897729,6.83389086 14.3968035,6.44092142 C14.0038341,6.04795199 13.3667047,6.04795199 12.9737353,6.44092142 L10.5121435,8.90251319 Z" id="Combined-Shape" fill="#717173"></path>
    </g>
</svg>