<?xml version="1.0" encoding="UTF-8"?>
<svg width="35px" height="35px" viewBox="0 0 35 35" version="1.1" xmlns="http://www.w3.org/2000/svg" xmlns:xlink="http://www.w3.org/1999/xlink">
    <!-- Generator: Sketch 52.6 (67491) - http://www.bohemiancoding.com/sketch -->
    <title>Round Button</title>
    <desc>Created with Sketch.</desc>
    <defs>
        <path d="M22.90797,23.44719 C22.69237,24.38989 23.27647,25.34249 24.24667,25.56359 C24.70757,25.66919 25.17727,25.58669 25.57767,25.33589 C25.97917,25.08179 26.25747,24.68909 26.36087,24.22489 C26.55777,23.35259 26.07377,22.46709 25.22787,22.16459 C25.16297,22.14259 25.09257,22.12389 25.02437,22.10629 C24.07397,21.89619 23.12027,22.49569 22.90797,23.44719 Z M26.48847,26.78129 C26.45657,26.79889 26.42027,26.80989 26.38727,26.83079 L26.54237,28.48299 L24.59867,28.85699 L24.12237,27.26309 C24.03767,27.24989 23.95407,27.24769 23.86827,27.23009 C23.72967,27.19819 23.59327,27.15969 23.46127,27.11239 C23.02897,26.95729 22.64947,26.72189 22.32387,26.43149 L20.80587,27.08709 L19.84997,25.35239 L21.20957,24.41629 C21.13477,23.97959 21.13807,23.52639 21.23927,23.07319 C21.28987,22.85209 21.36357,22.63979 21.45157,22.43959 L20.36367,21.20209 L21.71337,19.75449 L23.03887,20.76759 C23.61857,20.46289 24.28407,20.32539 24.97047,20.39029 L25.81967,18.95919 L27.61157,19.79739 L27.06157,21.36489 C27.54337,21.83569 27.87227,22.43519 28.01747,23.09299 L29.64327,23.45599 L29.39687,25.42169 L27.74027,25.38099 C27.46087,25.94749 27.03737,26.43369 26.48847,26.78129 Z M14.36152,18.3125 C15.13812,18.5897 15.97742,18.549 16.72432,18.1926 C17.47012,17.8395 18.03222,17.2169 18.31052,16.4392 C18.58772,15.6637 18.54702,14.8255 18.19172,14.0775 C17.83862,13.3328 17.21602,12.7696 16.44052,12.4924 C15.66392,12.2152 14.82352,12.2559 14.07882,12.6079 C13.33082,12.9632 12.76762,13.5858 12.49042,14.3635 C12.21212,15.139 12.25502,15.9794 12.60812,16.723 C12.96342,17.4699 13.58602,18.0353 14.36152,18.3125 Z M20.03642,18.4753 C19.72732,18.9417 19.35332,19.3586 18.91992,19.7106 L19.61292,21.6532 L17.56692,22.6201 L16.50542,20.8524 C15.95652,20.9657 15.39772,20.9943 14.84002,20.936 L13.96002,22.8005 L11.82602,22.0404 L12.32542,20.0373 C11.85902,19.7304 11.44542,19.3542 11.09122,18.9208 L9.14972,19.6149 L8.17842,17.5689 L9.94832,16.5052 C9.83722,15.9574 9.80862,15.3975 9.86472,14.8431 L8.00022,13.9598 L8.76032,11.828 L10.76452,12.3274 C11.07252,11.861 11.44872,11.4463 11.88102,11.0921 L11.18472,9.1517 L13.23402,8.1804 L14.29442,9.9481 C14.84442,9.837 15.40102,9.8073 15.95872,9.8667 L16.84202,8 L18.97162,8.7601 L18.47332,10.7632 C18.94082,11.0723 19.35552,11.4485 19.70972,11.8819 L21.65232,11.1878 L22.62032,13.2294 L20.85152,14.2953 C20.96592,14.8431 20.99232,15.403 20.93732,15.9618 L22.80072,16.8407 L22.03952,18.9725 L20.03642,18.4753 Z" id="path-1"></path>
    </defs>
    <g id="Round-Button" stroke="none" stroke-width="1" fill="none" fill-rule="evenodd">
        <g id="color/@white" transform="translate(-3.000000, -3.000000)" fill="#FFFFFF">
            <rect id="Rectangle" x="0" y="0" width="41" height="41"></rect>
        </g>
        <g id="Icon/Settings" transform="translate(-1.000000, -1.000000)">
            <mask id="mask-2" fill="white">
                <use xlink:href="#path-1"></use>
            </mask>
            <use id="Combined-Shape" fill="#231F20" fill-rule="evenodd" xlink:href="#path-1"></use>
            <g id="color/@blue" mask="url(#mask-2)" fill="#006BA6" fill-rule="evenodd">
                <g transform="translate(-1.000000, -1.000000)" id="Rectangle">
                    <rect x="0" y="0" width="39" height="39"></rect>
                </g>
            </g>
        </g>
    </g>
</svg>